<?xml version="1.0" encoding="UTF-8" standalone="no"?><!DOCTYPE svg PUBLIC "-//W3C//DTD SVG 1.1//EN" "http://www.w3.org/Graphics/SVG/1.1/DTD/svg11.dtd"><svg width="3000px" height="3000px" version="1.1" xmlns="http://www.w3.org/2000/svg" xmlns:xlink="http://www.w3.org/1999/xlink" xml:space="preserve" xmlns:serif="http://www.serif.com/" style="fill-rule:evenodd;clip-rule:evenodd;stroke-linejoin:round;stroke-miterlimit:2;"><g transform="matrix(0.74625,0,0,0.74625,1647.5,1492.5)"><g id="converted-32.svg" serif:id="converted 32.svg" transform="matrix(1,0,0,1,-2000,-2000)"><g transform="matrix(0.1,0,0,-0.1,0,4000)"><path d="M15372,36984C15294,36944 15250,36874 15230,36760C15223,36720 15215,36426 15210,36005C15201,35276 15199,35241 15145,34595C15007,32956 15013,31933 15165,31105C15269,30538 15505,29861 15860,29110C16131,28538 16293,28283 16829,27580C16978,27385 17171,27126 17258,27006C17494,26677 17685,26424 18001,26019C18437,25463 18530,25332 18702,25035C18901,24693 19107,24204 19231,23781C19308,23517 19398,23026 19445,22604C19475,22337 19478,22208 19456,22005C19447,21923 19429,21727 19416,21570C19393,21304 19381,21147 19315,20200C19270,19550 19227,19131 19144,18510C18995,17395 18847,16676 18504,15391C18378,14920 18330,14753 18060,13855C17934,13437 17775,12902 17707,12665C17638,12429 17517,12012 17437,11740C17357,11468 17253,11112 17205,10950C17104,10603 16818,9669 16814,9673C16813,9674 16827,9781 16846,9910C16888,10200 16914,10430 16937,10710C16958,10976 16961,11741 16942,12230C16902,13284 16893,13399 16810,14125C16775,14431 16718,15008 16690,15340C16685,15409 16662,15735 16640,16065C16619,16395 16595,16751 16588,16855C16570,17125 16573,18131 16593,18704C16625,19588 16613,20137 16539,21020C16472,21838 16371,22368 16145,23095C16023,23488 15817,23950 15534,24468C15328,24843 14848,25600 14590,25955C14357,26275 13882,26843 13485,27275C13409,27358 13246,27538 13122,27675C12823,28008 12055,28777 11980,28819C11869,28881 11763,28852 11707,28745C11688,28709 11686,28681 11679,28430C11663,27842 11593,27383 11315,26060C11072,24903 10902,23882 10806,23010C10763,22625 10755,22480 10755,22095C10755,21726 10761,21603 10801,21205C10872,20482 10934,20184 11135,19590C11316,19056 11501,18665 11757,18270C11946,17980 12106,17785 12390,17496C12781,17100 12964,16947 13610,16485C13966,16230 14503,15828 14675,15687C14869,15528 15034,15374 15281,15122C15860,14531 16056,14270 16205,13890C16253,13767 16303,13616 16401,13290C16545,12815 16547,12803 16570,12452C16664,10976 16662,10783 16540,9670C16512,9420 16467,9042 16440,8830C16386,8411 16370,8260 16370,8160C16369,8081 16358,8019 16281,7677C16185,7254 16070,6667 15915,5815C15879,5617 15847,5442 15843,5425C15839,5404 15831,5436 15818,5540C15754,6045 15678,6388 15525,6860C15343,7419 15167,8127 15080,8645C15064,8739 15038,8946 15021,9105C15003,9265 14969,9566 14945,9775C14921,9984 14889,10270 14875,10410C14799,11169 14762,11418 14644,11960C14521,12523 14402,12848 14152,13302C13926,13713 13744,13961 13390,14339C13280,14457 12661,15043 12220,15447C11934,15709 11863,15755 11744,15755C11683,15755 11667,15751 11624,15725C11585,15700 11569,15681 11543,15630C11500,15545 11490,15461 11490,15202C11490,14642 11457,14369 11285,13500C11156,12851 11131,12686 11098,12260C11081,12036 11081,11249 11098,11075C11158,10475 11303,9906 11495,9515C11679,9139 12007,8716 12365,8391C12673,8111 12993,7861 13321,7645C14423,6918 14600,6790 14865,6525C15139,6252 15338,5968 15465,5670C15515,5553 15527,5504 15556,5285C15581,5103 15582,5065 15591,4355C15599,3705 15598,3591 15584,3415C15553,3042 15563,2772 15610,2679C15627,2647 15636,2640 15660,2640C15682,2640 15693,2647 15703,2668C15724,2709 15729,2734 15745,2916C15791,3419 16012,4817 16210,5860C16391,6809 16552,7576 16675,8067C16734,8305 16746,8343 16805,8467C16841,8542 16908,8695 16953,8808L17035,9013L17140,9144C17360,9420 17612,9635 17980,9861C18317,10067 18706,10217 19140,10308C19336,10349 19454,10365 19790,10395C20142,10426 20419,10466 20745,10531C21339,10649 21695,10771 22225,11040C22781,11321 23046,11506 23505,11930C23794,12197 24101,12522 24316,12790C24634,13186 24912,13593 25535,14575C25736,14891 26130,15481 26324,15755C26761,16371 27131,16822 27595,17300C27849,17562 28135,17878 28186,17954C28249,18047 28253,18146 28197,18224C28169,18264 28087,18300 28023,18300C27973,18300 27528,18194 27165,18095C26856,18011 26648,17962 26405,17915C25730,17785 25578,17755 25380,17709C24570,17522 24036,17352 23380,17073C22832,16839 22071,16403 21580,16042C21104,15691 20476,15139 20152,14787C19519,14099 18733,13028 18268,12220C18010,11772 17742,11227 17440,10533C17394,10427 17354,10342 17352,10344C17350,10346 17391,10489 17444,10662C17496,10834 17604,11198 17685,11470C18102,12880 18065,12758 18353,13700C18641,14641 18721,14917 18876,15488C19062,16178 19185,16688 19290,17210C19352,17513 19353,17517 19457,17794C19514,17947 19572,18094 19585,18120C19618,18185 19771,18380 19860,18470C20038,18650 20183,18727 20502,18809C20728,18867 21017,18895 21405,18894C21693,18894 21809,18887 22230,18845C22596,18808 22725,18802 23180,18795C23851,18784 24131,18814 24550,18941C25015,19081 25357,19259 25781,19581C26280,19961 26555,20237 26867,20671C27169,21090 27626,21811 27859,22235C27990,22473 28206,22916 28368,23280C28818,24288 28996,24626 29281,25016C29396,25173 29424,25232 29418,25311C29412,25387 29375,25444 29305,25479C29256,25505 29252,25505 29050,25503C28937,25502 28688,25492 28495,25481C28303,25469 27997,25453 27815,25445C27140,25414 26950,25392 26365,25275C25899,25182 25697,25124 25170,24933C24599,24726 24345,24618 24067,24462C23666,24236 23259,23960 22945,23703C22576,23399 21977,22816 21690,22480C21297,22019 20770,21249 20457,20678C20178,20170 19823,19386 19626,18844C19584,18729 19543,18622 19535,18605L19520,18575L19525,18610C19598,19117 19658,19774 19710,20655C19750,21331 19773,21642 19816,22080C19911,23071 19975,23526 20220,24995C20524,26815 20634,27657 20679,28530C20726,29415 20677,30127 20529,30730C20439,31098 20241,31623 20053,31993C19907,32280 19749,32517 19459,32887C18789,33737 18606,33945 18025,34515C17800,34735 17473,35068 17296,35255C16938,35635 16296,36295 15915,36675C15626,36964 15589,36991 15477,36997C15423,37000 15397,36997 15372,36984ZM16005,36098C16153,35942 16358,35730 16460,35625C16562,35521 16773,35296 16930,35125C17357,34661 17379,34638 17830,34190C18333,33689 18484,33519 19031,32834C19292,32508 19434,32323 19507,32215C19835,31727 20144,30960 20255,30355C20287,30182 20324,29888 20342,29675C20358,29473 20358,28752 20342,28470C20287,27557 20179,26719 19920,25195C19876,24937 19826,24640 19808,24536C19788,24414 19774,24354 19769,24366C19765,24376 19752,24439 19740,24505C19718,24631 19653,24891 19574,25170C19549,25261 19474,25574 19409,25865C19222,26693 19127,27101 19015,27560C18958,27794 18875,28140 18830,28330C18677,28982 18529,29484 18283,30185C18040,30878 17863,31318 17597,31895C17501,32104 17373,32388 17313,32525C17252,32663 17133,32928 17047,33115C16962,33302 16838,33584 16772,33741C16705,33898 16603,34136 16545,34270C16486,34405 16387,34645 16323,34805C16260,34964 16149,35237 16075,35410C16002,35583 15904,35817 15857,35930C15727,36244 15645,36417 15585,36502C15577,36515 15570,36531 15570,36540C15571,36548 15608,36516 15653,36468C15698,36421 15856,36254 16005,36098ZM15605,36030C15666,35840 15798,35473 15918,35164C15994,34966 16085,34729 16119,34635C16154,34542 16235,34336 16301,34177C16367,34019 16474,33758 16539,33597C16605,33436 16723,33158 16803,32979C16882,32801 17000,32531 17065,32380C17130,32229 17243,31974 17316,31813C17536,31330 17618,31130 17828,30560C18069,29907 18303,29188 18419,28750C18436,28687 18492,28451 18545,28225C18598,28000 18677,27672 18721,27498C18819,27104 18946,26555 19085,25915C19190,25435 19248,25192 19350,24820C19378,24719 19399,24631 19397,24626C19395,24621 19381,24648 19365,24686C19230,25008 19054,25332 18839,25650C18785,25730 18643,25921 18523,26075C18403,26229 18217,26468 18110,26605C18002,26743 17881,26902 17839,26960C17507,27419 17393,27573 17184,27845C16671,28513 16552,28695 16310,29185C15965,29884 15709,30573 15600,31095C15509,31534 15450,32209 15450,32821C15450,33211 15480,33885 15531,34640C15566,35170 15582,35631 15574,35905C15567,36115 15572,36134 15605,36030ZM12664,27700C12792,27560 13078,27238 13362,26913C13800,26413 14235,25858 14487,25480C15186,24431 15583,23653 15795,22919C15986,22257 16069,21819 16124,21170C16200,20289 16218,19616 16190,18755C16170,18161 16172,17130 16193,16810C16202,16670 16221,16375 16235,16155C16275,15524 16299,15201 16321,14977C16332,14862 16340,14759 16338,14748C16335,14726 16314,14761 16052,15240C15826,15653 15592,16026 15334,16390C15176,16612 15120,16698 14975,16940C14904,17058 14767,17283 14670,17440C14295,18045 14160,18315 13895,18985C13631,19653 13512,20016 13355,20636C13174,21348 13122,21637 13006,22550C12927,23174 12910,23373 12885,23980C12849,24853 12800,25421 12699,26120C12613,26719 12522,27125 12370,27594C12303,27802 12200,28146 12200,28164C12200,28179 12492,27887 12664,27700ZM12039,27962C12057,27881 12099,27721 12131,27605C12264,27135 12338,26793 12399,26380C12512,25609 12570,24950 12605,24020C12634,23277 12649,23095 12755,22283C12842,21616 12879,21411 13010,20860C13189,20104 13369,19545 13684,18767C13924,18173 14052,17918 14370,17400C14457,17260 14603,17017 14695,16860C14897,16518 14928,16469 15108,16213C15313,15922 15710,15296 15698,15284C15696,15282 15618,15360 15526,15456C15333,15656 15114,15861 14925,16015C14710,16190 14245,16543 13915,16780C13350,17186 13234,17276 12980,17506C12818,17653 12555,17918 12436,18055C12164,18367 11866,18850 11692,19260C11590,19502 11438,19943 11362,20220C11200,20810 11099,21833 11139,22485C11170,23003 11252,23643 11411,24610C11500,25153 11534,25337 11686,26105C11817,26765 11891,27183 11934,27510C11962,27722 11990,28000 11990,28068C11990,28091 11993,28110 11998,28110C12002,28110 12020,28044 12039,27962ZM28435,25026C27998,24881 27825,24808 27380,24576C26645,24193 26377,24029 25717,23563C25107,23132 24848,22918 24253,22352C23801,21922 23662,21797 23255,21455C23112,21335 22934,21184 22860,21120C22545,20849 22393,20737 22080,20547C21822,20391 21387,20118 21253,20028C20919,19805 20458,19453 20226,19245C20070,19105 19946,19000 19942,19004C19926,19021 20435,20080 20636,20447C20931,20986 21343,21599 21754,22110C22019,22439 22394,22823 22855,23235C23216,23557 23574,23814 24020,24070C24415,24297 24616,24385 25240,24601C25832,24807 26107,24877 26690,24974C27066,25036 27252,25053 27725,25070C28102,25083 28502,25100 28515,25105C28521,25107 28561,25108 28605,25108L28685,25108L28435,25026ZM28790,24954C28790,24951 28773,24923 28752,24892C28573,24625 28424,24336 28065,23554C27650,22651 27443,22279 26937,21520C26415,20737 26187,20466 25763,20128C25486,19907 25276,19759 25090,19655C24875,19534 24548,19406 24275,19335C23971,19256 23849,19242 23341,19229C22888,19217 22664,19223 22200,19261C21845,19290 21370,19292 21120,19267C20868,19242 20717,19221 20620,19200C20573,19190 20534,19183 20532,19185C20528,19189 20733,19360 20825,19431C21135,19669 21672,20027 22150,20315C22545,20553 22638,20621 23061,20980C23174,21076 23368,21239 23491,21341C23798,21596 23957,21736 24214,21978C24879,22604 24983,22699 25198,22878C25438,23078 26083,23547 26441,23783C26761,23993 26960,24109 27495,24395C27881,24602 28055,24681 28397,24806C28510,24848 28641,24899 28689,24920C28778,24960 28790,24964 28790,24954ZM27039,17676C27037,17674 26952,17638 26850,17595C26519,17457 26251,17317 25663,16974C25319,16773 25166,16672 24676,16322C23807,15702 23668,15586 22730,14685C22142,14120 21941,13920 21525,13485C20982,12917 20832,12774 20480,12489C20422,12442 20265,12314 20130,12204C19686,11841 19629,11803 18985,11440C18754,11310 18534,11184 18495,11160C18292,11036 17963,10796 17838,10680C17795,10641 17760,10612 17760,10617C17760,10634 18189,11485 18296,11680C18742,12495 19431,13472 20170,14335C20490,14710 20900,15096 21425,15520C21773,15801 22013,15968 22388,16191C23071,16599 23483,16791 24187,17030C24654,17189 25299,17346 25990,17470C26513,17564 26704,17601 26860,17639C27009,17676 27048,17684 27039,17676ZM27204,17423C26859,17062 26737,16923 26461,16580C26055,16076 25568,15383 24985,14480C24551,13808 24203,13318 23921,12980C23590,12584 23104,12112 22756,11851C22470,11636 22069,11411 21667,11239C21172,11027 20491,10872 19690,10790C19303,10750 19055,10696 18695,10576C18308,10446 18022,10300 17651,10043C17598,10006 17562,9985 17571,9996C17758,10228 18059,10531 18230,10657C18510,10865 18618,10931 19170,11233C19661,11500 19771,11567 19985,11729C20158,11860 20819,12389 20965,12515C21134,12660 21506,13029 21893,13435C22050,13600 22470,14019 22827,14366C23937,15446 23964,15469 24850,16120C25310,16458 25492,16580 25955,16857C26466,17164 26606,17240 27040,17445C27147,17496 27267,17556 27305,17578C27344,17600 27379,17618 27384,17619C27388,17620 27307,17531 27204,17423ZM11891,15064C11908,15021 11953,14896 11991,14788C12029,14679 12107,14474 12164,14333C12283,14037 12328,13913 12410,13640C12671,12773 12765,12318 12865,11430C12939,10774 12979,10527 13067,10170C13174,9735 13375,9156 13535,8823C13696,8486 14082,7833 14277,7563C14373,7431 14378,7424 14359,7436C14268,7492 13403,8079 13314,8145C12996,8380 12672,8657 12475,8861C12273,9070 12024,9398 11903,9615C11788,9820 11693,10084 11601,10455C11486,10917 11446,11380 11468,11972C11489,12516 11520,12769 11645,13435C11784,14175 11813,14414 11826,14936C11834,15220 11831,15213 11891,15064ZM12771,14430C13215,13988 13372,13807 13568,13514C13804,13161 14041,12667 14139,12330C14185,12170 14224,12008 14279,11750C14371,11321 14406,11083 14480,10390C14502,10184 14534,9914 14550,9790C14567,9666 14598,9404 14620,9208C14642,9012 14669,8789 14680,8713C14739,8321 14951,7476 15090,7076C15101,7043 15108,7015 15106,7013C15091,6997 14544,7689 14393,7915C14137,8299 13860,8792 13737,9085C13619,9363 13474,9795 13394,10105C13307,10445 13264,10682 13205,11160C13104,11981 13080,12140 13003,12515C12921,12916 12826,13267 12664,13762C12578,14026 12517,14180 12382,14480C12294,14677 12200,14896 12152,15020C12142,15046 12378,14820 12771,14430Z" style="fill-rule:nonzero;"/></g></g><g id="converted-32.svg1" serif:id="converted 32.svg"></g></g></svg>