<?xml version="1.0" encoding="UTF-8" standalone="no"?><!DOCTYPE svg PUBLIC "-//W3C//DTD SVG 1.1//EN" "http://www.w3.org/Graphics/SVG/1.1/DTD/svg11.dtd"><svg width="3000px" height="3000px" version="1.1" xmlns="http://www.w3.org/2000/svg" xmlns:xlink="http://www.w3.org/1999/xlink" xml:space="preserve" xmlns:serif="http://www.serif.com/" style="fill-rule:evenodd;clip-rule:evenodd;stroke-linejoin:round;stroke-miterlimit:2;"><g transform="matrix(0.76625,0,0,0.76625,1467.5,1532.5)"><g id="converted-82.svg" serif:id="converted 82.svg" transform="matrix(1,0,0,1,-2000,-2000)"><g transform="matrix(0.1,0,0,-0.1,0,4000)"><path fill="#F5F5FA" d="M16400,38521C16319,38495 16218,38420 16124,38314C16086,38272 15992,38182 15915,38115C15632,37868 15483,37692 15421,37530C15379,37421 15366,37342 15367,37185C15368,37018 15387,36889 15439,36683C15460,36599 15474,36530 15470,36530C15465,36530 15438,36551 15408,36576C15287,36680 15191,36694 15122,36616C15082,36570 15065,36496 15036,36229C14990,35826 14965,35292 14954,34510C14947,33986 14956,33711 14995,33230C15043,32652 15043,32630 15039,32005C15029,30530 15033,30320 15081,29885C15184,28947 15456,27790 15722,27160C15806,26963 15999,26583 16096,26425C16140,26354 16270,26160 16385,25995C16882,25278 17013,25137 17317,24986C17455,24917 17589,24867 17754,24824C18027,24751 18367,24628 18618,24511C19014,24327 19255,24134 19409,23877C19429,23843 19486,23732 19535,23630L19624,23445L19636,23225C19643,23104 19649,22960 19649,22904L19650,22804L19591,22762C19447,22661 19208,22441 19099,22311C18940,22122 18869,21919 18810,21490C18799,21410 18785,21331 18779,21313C18772,21292 18746,21263 18702,21228C18566,21122 18474,21013 18399,20866C18345,20763 18353,20755 18320,20945C18216,21545 18015,22007 17500,22830C17382,23019 16985,23605 16873,23755C16652,24052 16561,24147 16275,24380C15869,24710 15793,24809 15430,25485C15209,25896 14975,26293 14806,26545C14566,26902 14382,27092 14058,27318C13774,27516 13577,27694 13267,28033C13024,28298 12902,28417 12730,28554C12439,28786 12207,28910 12067,28910C11989,28910 11937,28887 11887,28831C11840,28779 11815,28723 11785,28601C11772,28550 11760,28506 11758,28504C11756,28503 11713,28552 11663,28613C11396,28944 11147,29174 10791,29418C10678,29496 10611,29524 10535,29524C10410,29525 10329,29455 10230,29258C10195,29190 10161,29127 10152,29118C10129,29091 10079,29096 9956,29137C9847,29174 9842,29174 9689,29175L9533,29175L9484,29145C9430,29111 9377,29041 9358,28977C9337,28910 9343,28721 9369,28610C9421,28384 9510,28116 9592,27940C9677,27756 9816,27562 9988,27388L10114,27260L10037,27260C9922,27260 9860,27228 9820,27149C9776,27065 9787,26949 9856,26778C9902,26660 10058,26337 10143,26183C10247,25993 10402,25679 10488,25484C10610,25210 10972,24499 11132,24220C11258,24002 11373,23843 11885,23180C11960,23084 12080,22920 12153,22815C12334,22554 12445,22417 12767,22055C12969,21827 13077,21689 13205,21495C13642,20832 13776,20631 13824,20565C14067,20237 14425,19936 14895,19664C15196,19490 15443,19384 15880,19241C16080,19176 16143,19160 16445,19100C16583,19072 16727,19039 16766,19025C16867,18988 16951,18930 17006,18857C17102,18730 17205,18462 17289,18117C17311,18028 17346,17912 17365,17860C17391,17793 17405,17732 17415,17654C17422,17593 17439,17511 17453,17471C17500,17337 17616,17180 17739,17086L17796,17042L17848,16873C17896,16717 17936,16557 18105,15860C18197,15480 18243,15233 18420,14190C18590,13192 18658,12799 18730,12410C18811,11969 18806,12004 18914,11270C19045,10386 19087,10024 19200,8805C19221,8569 19251,8258 19265,8115C19297,7785 19345,7095 19365,6700C19387,6252 19399,5753 19416,4640C19430,3692 19437,3470 19460,3318C19465,3281 19477,3169 19485,3068C19493,2967 19505,2861 19511,2831C19522,2776 19556,2730 19585,2730C19613,2730 19640,2768 19640,2808C19640,2854 19648,2865 19683,2874C19709,2880 19710,2879 19710,2842C19710,2782 19776,2332 19799,2235C19820,2148 19848,2083 19873,2062C19903,2036 19945,2037 19976,2063L20005,2088L20002,2299L19998,2510L20020,2510C20032,2510 20055,2517 20070,2527C20159,2579 20187,2755 20245,3615C20315,4652 20383,5254 20526,6115C20707,7208 21122,9005 21471,10210C21728,11095 21932,11609 22434,12635C22591,12955 22684,13117 22828,13319C22972,13522 23070,13640 23230,13804C23390,13967 23499,14063 23586,14115C23667,14164 23852,14234 24010,14275C24189,14322 24270,14354 24490,14468C24780,14617 24978,14732 25200,14879C25456,15048 25578,15112 25826,15206C25934,15246 26062,15302 26111,15330C26272,15423 26592,15655 26985,15965C27320,16229 27495,16365 27738,16549C28178,16882 28712,17330 28935,17554C29153,17773 29235,17880 29523,18330C29673,18564 29843,18757 30013,18886C30287,19095 30551,19320 30684,19461C30888,19675 30987,19812 31179,20146C31337,20421 31399,20508 31555,20668C31713,20831 31794,20897 32015,21045C32196,21166 32390,21327 32428,21388C32470,21456 32440,21535 32363,21561C32319,21575 32159,21565 32030,21540C31864,21507 31784,21500 31562,21500C31306,21500 31206,21490 31022,21450C30831,21408 30695,21392 30400,21375C30133,21360 30051,21346 29917,21296C29880,21282 29847,21270 29844,21270C29842,21270 29856,21296 29876,21328C29931,21413 29950,21460 29950,21514C29950,21579 29922,21622 29862,21652C29772,21696 29547,21678 29330,21609C29294,21597 29112,21512 28925,21420C28738,21327 28446,21190 28275,21115C28105,21040 27922,20956 27870,20928C27514,20739 27036,20331 26712,19938C26610,19814 26491,19651 26307,19380C26132,19122 26051,19022 25820,18785C25546,18503 25481,18416 25297,18090C25166,17857 25024,17673 24895,17571C24855,17539 24758,17475 24679,17430C24496,17325 24184,17114 24059,17013C23789,16795 23521,16563 23404,16446C23321,16362 23196,16217 23058,16045C22940,15897 22811,15745 22773,15709C22734,15672 22628,15586 22538,15517C22234,15283 22149,15199 22009,14990C21926,14867 21815,14645 21768,14510C21738,14423 21735,14404 21735,14295C21735,14187 21737,14170 21760,14127C21823,14003 21952,13934 22229,13875C22365,13847 22471,13803 22496,13765C22549,13683 22533,13572 22406,13170C22383,13098 22311,12941 22173,12665C21879,12073 21750,11805 21670,11615C21350,10861 21192,10356 20846,8990C20646,8199 20450,7335 20320,6670C20281,6469 20245,6296 20240,6285C20232,6267 20231,6268 20235,6290C20237,6304 20242,6358 20245,6410C20272,6824 20373,7827 20460,8540C20532,9130 20615,9825 20650,10135C20709,10645 20822,11454 20950,12275C21037,12833 21052,12921 21136,13345C21374,14544 21537,15225 21825,16230C22078,17111 22152,17349 22279,17693C22307,17768 22341,17874 22355,17928C22369,17981 22385,18035 22390,18047C22396,18060 22436,18088 22498,18119C22727,18237 22897,18373 23350,18800C23441,18886 23601,19035 23705,19131C24051,19451 24373,19793 24569,20049C24783,20327 25092,20859 25217,21164C25242,21225 25325,21459 25400,21683C25476,21907 25540,22093 25542,22096C25545,22098 25596,22114 25656,22131C25993,22225 26380,22507 26626,22836C27061,23419 27528,24214 27809,24848C27941,25145 27971,25228 28192,25875C28483,26732 28546,26858 29036,27559C29276,27902 29509,28325 29684,28736C29761,28916 30003,29556 30184,30055C30533,31022 30610,31275 30610,31457C30609,31579 30566,31650 30483,31666C30423,31677 30368,31654 30190,31541C30160,31521 30163,31526 30235,31625C30412,31865 30537,32090 30585,32255C30642,32453 30659,32794 30615,32870C30571,32946 30463,32969 30335,32929C30254,32904 30039,32823 29911,32768C29860,32747 29816,32731 29813,32734C29810,32737 29835,32812 29867,32902C30002,33269 30015,33373 29937,33448C29871,33509 29809,33512 29644,33459C29529,33422 29402,33357 29135,33198C28893,33053 28795,33003 28615,32930C28458,32866 28072,32675 27921,32585C27778,32500 27624,32385 27543,32302C27470,32227 27353,32058 27265,31898C27232,31838 27202,31790 27198,31790C27195,31790 27189,31825 27185,31868C27169,32066 27127,32291 27096,32346C27066,32400 27031,32422 26977,32422C26952,32422 26921,32416 26908,32410C26896,32403 26818,32331 26735,32251C26653,32170 26504,32032 26405,31944C26212,31774 25846,31425 25690,31264C25513,31081 25447,31001 25265,30745C25082,30488 24886,30246 24601,29927C24061,29320 23882,29057 23545,28373C23326,27929 23191,27701 22926,27330C22861,27239 22769,27101 22723,27022C22676,26943 22636,26881 22633,26884C22630,26886 22633,26960 22639,27047C22672,27496 22670,28022 22635,28425C22615,28663 22598,28790 22545,29120C22506,29363 22480,29534 22375,30240C22328,30555 22231,30977 22163,31160C22099,31333 22006,31513 21905,31661C21757,31875 21670,32046 21545,32365C21455,32593 21344,32847 21310,32901C21253,32989 21199,33019 21129,33000C21079,32986 21040,32939 20984,32825C20959,32773 20935,32730 20931,32730C20927,32730 20919,32810 20912,32908C20890,33218 20864,33352 20800,33479C20747,33585 20718,33690 20685,33890C20638,34181 20562,34528 20509,34690C20455,34855 20371,35026 20272,35175C20167,35332 20110,35426 20025,35580C19876,35851 19651,36210 19546,36345C19275,36694 19151,36850 19095,36915C19062,36954 19001,37026 18960,37075C18857,37199 18772,37287 18656,37388C18584,37451 18530,37511 18460,37605C18407,37676 18351,37746 18337,37758C18286,37805 18201,37804 18150,37755C18135,37740 18075,37641 18018,37534C17962,37427 17913,37340 17910,37340C17907,37340 17886,37379 17865,37428C17789,37596 17625,37814 17497,37916C17377,38011 17281,38068 17169,38111C17115,38131 17043,38165 17010,38185C16899,38252 16824,38237 16797,38143L16783,38095L16766,38155C16723,38306 16623,38458 16540,38500C16494,38523 16434,38532 16400,38521ZM16492,38283C16557,38217 16602,38088 16665,37790C16717,37549 16753,37438 16791,37406C16864,37345 16957,37392 16978,37500C16984,37530 16994,37645 17000,37754C17006,37864 17012,37955 17014,37957C17020,37963 17154,37909 17200,37883C17429,37750 17602,37540 17721,37247C17775,37112 17847,37061 17940,37089C18005,37108 18051,37166 18151,37360C18203,37459 18248,37540 18251,37540C18254,37540 18282,37504 18313,37461C18346,37415 18424,37332 18497,37263C18567,37198 18646,37122 18673,37094C18778,36981 19384,36222 19470,36095C19537,35995 19752,35631 19855,35445C19903,35357 19996,35203 20062,35102C20184,34916 20255,34776 20310,34611C20348,34497 20434,34136 20471,33935C20528,33625 20539,33583 20617,33418C20685,33273 20703,33177 20725,32851C20737,32675 20739,32582 20731,32439C20716,32150 20734,32090 20832,32090C20899,32091 20914,32115 21001,32362C21060,32530 21146,32730 21160,32730C21167,32730 21283,32436 21356,32235C21403,32104 21516,31852 21573,31750C21590,31720 21646,31633 21697,31556C21849,31332 21922,31168 21988,30904C22063,30608 22096,30416 22220,29565C22237,29450 22273,29222 22300,29060C22388,28531 22420,28185 22427,27689C22436,27060 22384,26482 22279,26058C22217,25807 22169,25681 22087,25560C22021,25463 21868,25289 21754,25185C21689,25125 21552,24994 21450,24894C21348,24795 21251,24703 21233,24691C21192,24664 21004,24580 20920,24552C20851,24529 20518,24457 20315,24420C20172,24395 20107,24377 20023,24339C19954,24308 19856,24244 19826,24211C19815,24200 19804,24190 19801,24190C19798,24190 19795,24259 19794,24343C19793,24426 19788,24545 19781,24605C19775,24666 19763,24776 19756,24851C19748,24926 19738,25049 19734,25124L19727,25260L19786,25260C19867,25260 20083,25286 20193,25309C20309,25333 20635,25437 20802,25502C21182,25649 21631,25928 21888,26175C22015,26296 22196,26515 22235,26594C22264,26651 22268,26708 22244,26717C22217,26727 22119,26649 21960,26490C21767,26296 21690,26229 21520,26108C21253,25919 21127,25844 20900,25739C20763,25676 20392,25549 20220,25505C20074,25469 19732,25417 19719,25429C19715,25432 19705,25536 19696,25660C19682,25852 19644,26216 19624,26343L19618,26380L19712,26380C19920,26380 20293,26455 20575,26554C20683,26591 21243,26834 21315,26875C21404,26924 21642,27085 21775,27185C21981,27339 22158,27550 22201,27692C22223,27764 22220,27794 22189,27810C22159,27827 22137,27809 22059,27702C21981,27596 21830,27441 21735,27369C21661,27312 21292,27063 21230,27028C21165,26991 20570,26738 20475,26707C20291,26647 20093,26597 19889,26560C19770,26538 19660,26516 19645,26510C19629,26504 19613,26503 19609,26507C19591,26526 19494,27428 19509,27443C19513,27447 19553,27455 19599,27460C19721,27474 19957,27539 20211,27628C20675,27792 20806,27855 21121,28066C21248,28151 21396,28254 21450,28296C21645,28445 21816,28624 22001,28872C22151,29073 22206,29184 22217,29312C22222,29361 22220,29371 22205,29376C22175,29388 22157,29368 22097,29254C22032,29132 21992,29077 21834,28893C21580,28596 21473,28502 21130,28275C20747,28020 20709,28003 20035,27775C19788,27691 19566,27614 19542,27605C19518,27595 19497,27590 19494,27593C19491,27596 19477,27683 19464,27786C19451,27889 19420,28113 19395,28284C19354,28571 19290,29072 19290,29113C19290,29128 19301,29130 19385,29130C19583,29130 19803,29195 20215,29375C20528,29511 20680,29588 20880,29709C21267,29946 21467,30096 21696,30324C21811,30439 21843,30478 21870,30533C21895,30584 21901,30606 21894,30618C21875,30648 21860,30642 21792,30577C21611,30404 21330,30175 21150,30053C21090,30012 20649,29755 20580,29720C20505,29682 20040,29478 19909,29425C19687,29335 19501,29285 19349,29273L19272,29267L19266,29311C19262,29335 19248,29456 19234,29580C19220,29704 19200,29862 19190,29932C19179,30002 19170,30063 19170,30069C19170,30075 19186,30080 19204,30080C19311,30080 19703,30186 19929,30276C20314,30430 20626,30657 20895,30980C21144,31279 21315,31652 21246,31746C21222,31778 21201,31754 21124,31608C20985,31343 20898,31216 20725,31021C20481,30746 20106,30495 19770,30382C19543,30305 19150,30206 19145,30224C19143,30230 19127,30321 19110,30425C19081,30597 18979,31116 18965,31161C18960,31175 18967,31181 19002,31191C19141,31228 19193,31246 19265,31280C19492,31389 19666,31541 19966,31896C20151,32115 20195,32171 20278,32298C20403,32488 20479,32649 20525,32821C20568,32982 20555,33064 20492,33029C20472,33018 20453,32986 20418,32905C20327,32691 20307,32649 20231,32523C20136,32363 20047,32244 19855,32020C19595,31716 19435,31563 19278,31468C19206,31425 18942,31305 18934,31312C18932,31315 18892,31463 18845,31641C18770,31933 18735,32060 18671,32287C18659,32327 18650,32364 18650,32369C18650,32373 18671,32385 18698,32395C18774,32425 18874,32489 18994,32586C19152,32716 19280,32858 19396,33035C19625,33386 19863,33823 19944,34042C20018,34242 20066,34509 20039,34566C20022,34602 19986,34610 19970,34581C19965,34570 19937,34494 19909,34413C19787,34059 19688,33851 19443,33433C19250,33103 19194,33015 19115,32920C19020,32807 18884,32687 18755,32600C18728,32582 18686,32551 18662,32532C18638,32513 18617,32499 18615,32501C18613,32503 18587,32600 18556,32715C18526,32831 18442,33148 18371,33420C18299,33692 18227,33963 18211,34022L18182,34129L18233,34162C18391,34263 18623,34482 18739,34640C18829,34761 18969,35001 19024,35124C19076,35244 19247,35699 19279,35804C19306,35891 19307,35961 19281,35984C19252,36010 19234,35994 19201,35917C19136,35759 18978,35414 18911,35282C18832,35128 18661,34848 18573,34730C18475,34601 18162,34292 18141,34304C18136,34307 18127,34331 18121,34357C18107,34411 18028,34682 17909,35083C17865,35230 17832,35355 17835,35360C17838,35365 17882,35398 17933,35433C18138,35577 18251,35697 18372,35900C18466,36058 18533,36222 18605,36472C18689,36767 18708,36859 18692,36895C18665,36955 18649,36927 18549,36640C18454,36364 18359,36131 18293,36010C18234,35901 18132,35751 18077,35693C18027,35640 17803,35463 17797,35471C17795,35473 17769,35552 17738,35645C17582,36120 17417,36494 17225,36804C17191,36860 17138,36951 17106,37008C17012,37176 16945,37228 16904,37165C16892,37146 16889,37128 16895,37093C16906,37012 16975,36821 17045,36675C17149,36458 17303,36107 17350,35980C17413,35809 17500,35560 17496,35560C17495,35560 17460,35571 17420,35585C17320,35619 17233,35664 17098,35753C16799,35949 16247,36438 16120,36619C16053,36715 16025,36744 16011,36735C15993,36724 16004,36661 16034,36601C16095,36481 16287,36263 16616,35939C16811,35748 16900,35676 17079,35570C17212,35491 17341,35444 17462,35430C17507,35425 17547,35417 17551,35413C17560,35403 17755,34833 17878,34460C17978,34155 18016,34023 18007,34014C17997,34004 17644,34077 17535,34111C17226,34208 16920,34362 16656,34554C16335,34788 15920,35198 15727,35471C15674,35547 15653,35560 15641,35528C15609,35442 15746,35241 16111,34835C16310,34613 16415,34522 16660,34361C16979,34150 17365,33982 17666,33921C17794,33895 17961,33878 18011,33886C18032,33890 18050,33890 18050,33887C18050,33884 18070,33806 18094,33714C18146,33516 18192,33317 18290,32865C18330,32684 18377,32466 18397,32382C18416,32297 18429,32226 18427,32224C18418,32215 18126,32250 18045,32269C17848,32317 17374,32539 17145,32690C16901,32852 16736,32984 16546,33170C16359,33354 16246,33479 16140,33620C16104,33667 16017,33779 15945,33870C15873,33961 15789,34072 15758,34116C15690,34212 15619,34280 15587,34280C15560,34280 15540,34263 15540,34239C15540,34205 15693,33934 15789,33797C16117,33330 16134,33308 16320,33116C16526,32904 16777,32699 17050,32521C17288,32365 17751,32152 17977,32094C18099,32062 18294,32051 18394,32070C18431,32077 18463,32081 18465,32078C18481,32062 18728,30825 18756,30618L18763,30570L18724,30570C18702,30570 18631,30559 18565,30545C18116,30450 17619,30534 17115,30790C16873,30913 16676,31044 16445,31239C16301,31360 15854,31813 15737,31958C15625,32095 15564,32150 15523,32150C15495,32150 15484,32127 15497,32097C15520,32049 15719,31772 15785,31699C15963,31500 16205,31248 16302,31159C16629,30862 16938,30665 17299,30521C17490,30446 17627,30406 17845,30363C17972,30339 18006,30336 18210,30336C18416,30336 18446,30338 18567,30363C18640,30378 18718,30397 18741,30405C18769,30415 18786,30417 18790,30410C18793,30405 18813,30289 18834,30153C18855,30016 18896,29767 18926,29598C18955,29429 18993,29192 19009,29073C19026,28953 19042,28842 19045,28826L19050,28798L18792,28803C18493,28809 18356,28827 18129,28889C17521,29057 16875,29348 16440,29648C16280,29759 15993,29977 15891,30064C15769,30169 15673,30240 15651,30240C15604,30240 15598,30191 15638,30132C15708,30028 16183,29620 16435,29448C16698,29268 16983,29114 17295,28985C18010,28688 18571,28563 18980,28610C19037,28616 19066,28616 19070,28609C19074,28604 19087,28508 19099,28397C19132,28106 19185,27701 19226,27435C19245,27309 19264,27189 19267,27169L19272,27132L19154,27126C18575,27097 18271,27114 17965,27191C17852,27220 17625,27294 17490,27347C17360,27398 17080,27535 16975,27600C16895,27648 16515,27911 16425,27979C16361,28027 16121,28240 16008,28347C15928,28423 15897,28429 15892,28369C15887,28315 15947,28236 16128,28052C16280,27898 16325,27861 16645,27628C17110,27289 17687,27046 18208,26970C18507,26927 19032,26918 19164,26954C19196,26963 19235,26979 19250,26990C19277,27010 19300,27016 19300,27004C19300,27001 19316,26912 19335,26807C19404,26428 19422,26288 19483,25642C19486,25619 19484,25597 19479,25594C19452,25578 19288,25559 19170,25559C19022,25559 18931,25572 18715,25625C18260,25735 17741,25979 17220,26331C17019,26466 16946,26522 16778,26668C16688,26747 16584,26807 16557,26797C16548,26794 16540,26781 16540,26769C16540,26740 16799,26469 16920,26371C17505,25899 18092,25582 18634,25445C18878,25383 18981,25368 19155,25366L19305,25365L19398,25409C19448,25433 19492,25451 19494,25449C19500,25444 19547,24866 19580,24405C19586,24323 19597,24228 19606,24196C19614,24164 19619,24135 19617,24134C19615,24132 19585,24166 19550,24210C19359,24454 19066,24651 18604,24848C18403,24934 18139,25022 17880,25090C17633,25155 17539,25188 17407,25257C17191,25371 17081,25493 16660,26080C16331,26539 16257,26657 16095,26980C15871,27428 15725,27890 15556,28675C15428,29274 15360,29731 15315,30300C15292,30589 15288,30813 15286,31880C15284,32693 15280,32912 15267,33080C15216,33719 15215,33735 15216,34505C15216,35203 15229,35761 15251,36055C15256,36127 15263,36233 15267,36292C15270,36351 15276,36404 15280,36410C15285,36418 15310,36404 15355,36370C15436,36309 15525,36263 15577,36255C15656,36243 15730,36313 15730,36399C15730,36425 15707,36538 15680,36650C15613,36921 15598,37017 15597,37185C15594,37475 15657,37581 16028,37919C16125,38008 16239,38119 16280,38166C16347,38243 16432,38320 16449,38320C16453,38320 16472,38303 16492,38283ZM29790,33276C29790,33259 29736,33106 29680,32960C29642,32864 29604,32759 29595,32727C29580,32675 29568,32660 29478,32572C29254,32355 28950,32006 28760,31746L28675,31630L28672,31683C28666,31773 28690,31999 28720,32150C28748,32292 28790,32440 28844,32588C28881,32689 28868,32705 28801,32645C28726,32577 28656,32409 28590,32135C28525,31868 28517,31808 28522,31605L28527,31425L28426,31286C28298,31111 27899,30598 27894,30603C27892,30605 27883,30685 27874,30781C27862,30911 27859,31018 27863,31205C27869,31461 27877,31549 27910,31680C27920,31721 27932,31779 27936,31807C27942,31852 27940,31861 27925,31866C27872,31887 27791,31693 27756,31459C27702,31103 27707,30803 27771,30541L27792,30458L27761,30416C27744,30394 27613,30202 27470,29990C27104,29447 26985,29275 26975,29275C26961,29275 26891,29498 26875,29590C26859,29689 26843,29865 26834,30070C26826,30239 26837,30358 26881,30580C26897,30665 26914,30774 26917,30821C26922,30903 26922,30908 26900,30923C26882,30936 26873,30937 26862,30928C26817,30890 26736,30645 26694,30420C26658,30221 26671,29829 26720,29622C26732,29573 26775,29463 26825,29353C26871,29251 26906,29162 26903,29156C26899,29150 26839,29064 26769,28964C26699,28865 26616,28744 26585,28697C26551,28647 26520,28610 26511,28610C26482,28610 26376,28899 26310,29156C26245,29407 26227,29557 26226,29835C26225,29967 26231,30138 26238,30215C26264,30503 26291,30748 26306,30850C26323,30964 26322,31021 26303,31027C26287,31033 26254,30978 26235,30915C26169,30698 26080,29985 26080,29673C26080,29462 26092,29365 26142,29166C26190,28974 26225,28871 26294,28726C26352,28604 26397,28544 26441,28533L26470,28525L26377,28380C26325,28300 26221,28136 26145,28015C25851,27548 25657,27250 25648,27250C25632,27250 25572,27378 25495,27578C25343,27973 25272,28202 25236,28420C25209,28583 25177,29005 25177,29190C25178,29368 25182,29406 25246,29808C25273,29978 25272,30020 25241,30020C25228,30020 25215,30002 25197,29963C25115,29778 25055,29483 25044,29210C25038,29064 25060,28580 25081,28410C25105,28209 25159,28003 25266,27707C25355,27462 25382,27406 25484,27262C25532,27194 25569,27133 25567,27127C25565,27120 25468,26971 25353,26795C25179,26528 25064,26347 24950,26157L24933,26128L24903,26167C24886,26188 24865,26220 24855,26239C24846,26257 24804,26329 24762,26399C24626,26626 24476,26961 24426,27150C24412,27202 24371,27407 24335,27605C24273,27946 24269,27977 24260,28190C24248,28483 24243,28530 24220,28568C24196,28606 24186,28608 24165,28576C24144,28544 24126,28091 24140,27937C24152,27801 24227,27264 24247,27175C24289,26984 24363,26776 24470,26553C24570,26344 24634,26245 24735,26140C24818,26055 24827,26043 24817,26022C24809,26005 24811,25996 24824,25981C24840,25964 24836,25955 24754,25804C24651,25614 24417,25149 24319,24937C24280,24854 24247,24783 24244,24781C24229,24765 24062,24968 23940,25149C23863,25265 23724,25532 23674,25660C23596,25862 23578,25945 23509,26440C23470,26712 23467,26754 23465,26975C23463,27178 23460,27221 23445,27258C23436,27281 23422,27300 23414,27300C23385,27300 23369,27249 23345,27080C23307,26814 23312,26650 23375,26130C23415,25804 23487,25585 23666,25241C23795,24993 23893,24858 24060,24696C24128,24630 24160,24592 24157,24581C24154,24572 24133,24516 24110,24456C24087,24396 24052,24295 24033,24231C24013,24167 23994,24112 23991,24109C23988,24105 23924,24097 23850,24091C23776,24085 23678,24074 23632,24068L23549,24057L23517,24087C23499,24103 23435,24156 23373,24203C23184,24350 23090,24456 22975,24653C22851,24867 22766,25074 22716,25290C22675,25468 22633,25530 22583,25488C22558,25468 22571,25225 22604,25100C22652,24917 22735,24729 22864,24512C22976,24325 23083,24206 23254,24077C23360,23998 23356,24002 23334,23994C23324,23990 23207,23942 23075,23887C22864,23800 22442,23640 22422,23640C22418,23640 22415,23675 22414,23718C22413,23760 22399,23866 22382,23952C22327,24231 22317,24358 22324,24685C22337,25338 22408,25687 22655,26310C22789,26648 22898,26847 23190,27285C23430,27646 23559,27866 23775,28290C24136,28997 24253,29169 24746,29725C25120,30147 25297,30362 25478,30615C25553,30720 25640,30839 25673,30880C25736,30960 26938,32161 26945,32151C26958,32130 26982,31952 26990,31820C27004,31598 27022,31531 27079,31491C27114,31466 27178,31463 27219,31485C27259,31505 27337,31595 27399,31692C27428,31738 27483,31825 27521,31885C27659,32103 27740,32190 27932,32323C28123,32455 28462,32635 28720,32740C28918,32821 28990,32858 29239,33008C29534,33185 29790,33310 29790,33276ZM30440,32648C30440,32464 30399,32297 30310,32115C30262,32019 30119,31789 30045,31693C30011,31648 30008,31647 29957,31646C29909,31645 29889,31636 29749,31556C29256,31271 28781,31030 28587,30966C28522,30945 28467,30930 28464,30932C28460,30937 28757,31350 28999,31675C29080,31785 29208,31945 29282,32030C29356,32115 29471,32252 29538,32334L29659,32483L29727,32485C29788,32487 29825,32499 30095,32608C30260,32675 30405,32729 30418,32730C30439,32730 30440,32727 30440,32648ZM29865,31460C29773,31341 29760,31267 29821,31216C29871,31174 29917,31180 30051,31246C30114,31277 30213,31331 30271,31366C30330,31401 30381,31430 30384,31430C30397,31430 30388,31376 30356,31263C30319,31136 30282,31032 30060,30430C29982,30218 29888,29960 29850,29855C29813,29751 29756,29600 29725,29520C29694,29440 29646,29317 29620,29245C29396,28634 29140,28129 28817,27660C28495,27193 28433,27096 28338,26906C28230,26692 28124,26414 27932,25850C27796,25451 27757,25345 27675,25148C27412,24521 27034,23856 26572,23207C26286,22807 26153,22669 25888,22496C25800,22439 25662,22370 25634,22370C25615,22370 25615,22373 25655,22513C25769,22920 25813,23157 25814,23380C25814,23517 25794,23723 25774,23774C25770,23785 25796,23788 25902,23793C26057,23799 26160,23823 26340,23895C26529,23970 26614,24017 26851,24175C27174,24391 27254,24461 27248,24525C27245,24550 27240,24555 27215,24558C27191,24560 27162,24546 27081,24490C26530,24111 26133,23931 25841,23927L25738,23925L25701,24010C25626,24183 25549,24284 25455,24331C25410,24353 25393,24355 25285,24354C25165,24353 25165,24353 24860,24266C24445,24147 24259,24109 24261,24143C24261,24149 24300,24252 24348,24370C24430,24571 24437,24585 24460,24583C24593,24571 24690,24586 25025,24666C25470,24772 25761,24862 26165,25018C26308,25073 26493,25144 26575,25175C26785,25255 26943,25334 27101,25438C27255,25539 27312,25587 27330,25630C27344,25663 27331,25690 27303,25690C27275,25690 27154,25637 27040,25574C26879,25485 26732,25421 26514,25345C26410,25309 26213,25237 26075,25185C25938,25133 25758,25068 25675,25040C25267,24901 24533,24711 24515,24740C24513,24743 24546,24825 24589,24921C24819,25435 25055,25896 25087,25894C25097,25893 25143,25887 25189,25880C25315,25861 25653,25872 25804,25899C25981,25931 26219,25994 26450,26070C26724,26160 26826,26202 27222,26383C27572,26543 27692,26612 27813,26720C27915,26812 27964,26908 27925,26940C27904,26957 27878,26944 27764,26856C27653,26770 27534,26698 27428,26653C26621,26304 26388,26219 25990,26127C25736,26068 25631,26056 25393,26055C25277,26055 25179,26058 25175,26062C25166,26071 25232,26181 25428,26485C25670,26860 25735,26954 25761,26965C25774,26971 25786,26984 25788,26995C25791,27014 25799,27015 25968,27015C26209,27016 26337,27037 26795,27150C27084,27221 27263,27278 27456,27360C27586,27415 28064,27676 28194,27763C28342,27862 28510,28035 28510,28089C28510,28128 28475,28111 28324,28004C28143,27875 28118,27861 27765,27677C27354,27463 27230,27414 26820,27302C26532,27223 26358,27185 26190,27164C26085,27151 25870,27144 25870,27154C25870,27157 25919,27234 25978,27327C26038,27419 26148,27592 26222,27710C26412,28013 26560,28245 26652,28386L26731,28508L26808,28515C26928,28526 27134,28566 27375,28625C27631,28687 27734,28720 27891,28791C27997,28838 28250,28944 28740,29147C29088,29292 29220,29363 29220,29406C29220,29445 29145,29422 28615,29220C28090,29020 27684,28872 27561,28835C27422,28794 26839,28648 26834,28653C26832,28655 26927,28796 27045,28966C27163,29136 27292,29320 27330,29376L27400,29477L27488,29483C27595,29491 28077,29588 28219,29630C28447,29698 28603,29772 28817,29912C28893,29962 29059,30068 29185,30148C29617,30421 29823,30561 29898,30633C29946,30680 29949,30690 29918,30690C29882,30689 29835,30665 29475,30453C29288,30343 29065,30215 28980,30167C28797,30065 28489,29926 28311,29866C28180,29821 27554,29663 27545,29672C27530,29686 27960,30295 28212,30616L28330,30768L28398,30775C28580,30794 28859,30887 29095,31009C29235,31081 29620,31322 29790,31443C29848,31485 29899,31519 29903,31519C29908,31520 29890,31493 29865,31460ZM10605,29229C10686,29178 10898,29011 10979,28935C11021,28896 11107,28810 11170,28744C11280,28630 11339,28562 11528,28331C11574,28276 11631,28217 11654,28201C11752,28134 11843,28139 11917,28216C11963,28263 11989,28333 12030,28520C12059,28655 12056,28652 12142,28608C12248,28553 12348,28485 12495,28367C12675,28223 12794,28107 12993,27885C13328,27512 13524,27335 13885,27079C14169,26879 14317,26725 14529,26410C14695,26163 14891,25830 15140,25370C15305,25065 15344,24997 15443,24840C15628,24547 15761,24410 16135,24125C16427,23903 16547,23759 16987,23100C17769,21929 17937,21588 18079,20885C18132,20621 18140,20507 18116,20324C18097,20181 18089,20148 18040,20005C17998,19883 17950,19784 17883,19682C17831,19602 17699,19473 17605,19409C17532,19360 17220,19197 17212,19204C17211,19206 17194,19266 17175,19338C17156,19410 17124,19515 17105,19572C17086,19629 17070,19686 17070,19699C17070,19713 17061,19733 17051,19744C17030,19767 16957,19927 16962,19938C16964,19942 16991,19988 17022,20041C17086,20148 17100,20180 17199,20436C17284,20655 17302,20720 17335,20920C17372,21147 17368,21392 17324,21645C17291,21829 17213,22018 17157,22050C17134,22063 17129,22063 17110,22045C17084,22021 17085,21996 17125,21755C17177,21437 17183,21193 17145,20934C17118,20749 17104,20695 17012,20434C16946,20244 16889,20109 16878,20113C16873,20114 16793,20259 16699,20435C16605,20611 16492,20823 16448,20905C16346,21095 16140,21518 16140,21537C16140,21545 16148,21564 16158,21578C16181,21611 16230,21730 16264,21834C16301,21945 16406,22381 16430,22517C16487,22846 16480,23127 16409,23317C16385,23380 16367,23400 16335,23400C16291,23400 16286,23372 16300,23203C16323,22926 16301,22736 16190,22260C16104,21895 16056,21720 16042,21720C16038,21720 16013,21762 15985,21813C15906,21962 15753,22227 15591,22499L15439,22753L15465,22818C15537,22996 15579,23297 15566,23530C15532,24126 15439,24530 15299,24693C15266,24731 15252,24740 15231,24738C15196,24734 15198,24712 15248,24574C15314,24393 15345,24208 15400,23677C15415,23528 15413,23207 15395,23109C15378,23012 15352,22920 15342,22920C15338,22920 15263,23045 15175,23198C15087,23350 14926,23624 14816,23805C14707,23987 14608,24151 14597,24171L14576,24207L14601,24306C14623,24399 14625,24422 14625,24675C14624,25100 14579,25390 14434,25897C14346,26205 14191,26582 14119,26665C14085,26704 14056,26710 14041,26681C14028,26658 14029,26654 14160,26260C14312,25803 14399,25449 14441,25114C14464,24928 14477,24532 14463,24440L14455,24386L14406,24455C14378,24494 14248,24669 14116,24845C13922,25103 13661,25462 13418,25805L13390,25845L13405,26008C13428,26262 13407,26446 13304,26880C13194,27342 13129,27501 13063,27476C13042,27467 13049,27400 13095,27155C13115,27051 13144,26895 13161,26810C13201,26599 13226,26424 13245,26240C13253,26155 13263,26065 13267,26040L13273,25995L13182,26105C13090,26215 13070,26254 13066,26330C13065,26349 13059,26375 13053,26386C13046,26398 13030,26454 13016,26511C12983,26650 12933,26793 12805,27110C12590,27642 12411,28026 12329,28130C12296,28172 12284,28181 12262,28178C12241,28176 12234,28169 12232,28148C12229,28125 12478,27464 12681,26958C12715,26874 12764,26747 12790,26675C12817,26604 12842,26536 12846,26526C12861,26487 12828,26524 12663,26728C12374,27086 12137,27356 11971,27511C11761,27710 11397,27984 11186,28104C11100,28153 11010,28207 10985,28224C10899,28285 10740,28432 10673,28513C10529,28685 10482,28720 10496,28643C10507,28578 10577,28459 10664,28355C10798,28196 11030,27974 11162,27880C11353,27745 11666,27485 11800,27349C12029,27118 12477,26579 12446,26572C12428,26568 12241,26641 12150,26688C12035,26747 11759,26921 11405,27158C11057,27391 11052,27395 10842,27573C10764,27640 10672,27712 10638,27733C10548,27787 10498,27781 10514,27716C10522,27684 10767,27421 10891,27311C11136,27094 11843,26622 12086,26514C12188,26469 12250,26450 12410,26419C12495,26403 12575,26387 12586,26385C12615,26379 13214,25633 13236,25576C13241,25564 13235,25564 13193,25576C13167,25584 13062,25602 12960,25615C12586,25665 12477,25699 12100,25886C11602,26132 11410,26243 11206,26403C11090,26494 11039,26522 11002,26518C10981,26516 10974,26509 10972,26486C10969,26461 10986,26440 11122,26306C11330,26100 11406,26050 11954,25755C12190,25629 12257,25596 12391,25545C12602,25464 12968,25402 13155,25415C13210,25419 13275,25423 13300,25424L13344,25425L13495,25214C13579,25098 13757,24857 13892,24678C14119,24377 14340,24061 14340,24038C14340,24032 14333,24030 14325,24034C14317,24037 14212,24057 14093,24079C13700,24151 13289,24253 13065,24335C12923,24387 12804,24442 12530,24582C11971,24869 11864,24936 11536,25199C11273,25410 11246,25428 11225,25410C11198,25388 11209,25355 11263,25289C11384,25143 11639,24917 11825,24791C11978,24687 12460,24415 12745,24273C12991,24150 13287,24056 13748,23955C13988,23903 14175,23878 14318,23881C14385,23882 14442,23881 14443,23879C14455,23864 14635,23557 14785,23295C14883,23125 15001,22921 15048,22842C15095,22764 15130,22697 15128,22694C15118,22685 14656,22709 14532,22725C14292,22756 14124,22793 13825,22881C13574,22955 13519,22975 13362,23051C13209,23124 13145,23158 12677,23418C12451,23543 12371,23583 12342,23584C12234,23587 12341,23470 12605,23295C12791,23172 13116,22981 13305,22885C13534,22768 13981,22627 14320,22566C14541,22526 14646,22517 14943,22515C15221,22512 15243,22511 15254,22494C15261,22483 15380,22279 15517,22040C15777,21589 15899,21365 15890,21357C15883,21350 15435,21367 15275,21380C14945,21408 14661,21489 14315,21654C14133,21741 14073,21778 13830,21951C13573,22134 13462,22197 13403,22191C13354,22187 13433,22101 13690,21879C13936,21667 14075,21573 14303,21465C14620,21315 14919,21230 15235,21201C15400,21186 15761,21169 15813,21175C15836,21177 15883,21182 15917,21184L15979,21190L16076,21002C16184,20794 16355,20485 16525,20190C16586,20083 16658,19955 16685,19906L16733,19817L16704,19823C16583,19846 16175,19933 16110,19950C16006,19976 15837,20037 15737,20083C15652,20123 15545,20185 15370,20299C15307,20340 15141,20442 15002,20526C14731,20690 14668,20732 14532,20842C14434,20921 14398,20942 14376,20934C14328,20915 14362,20842 14477,20720C14571,20620 14727,20500 14995,20318C15452,20009 15523,19964 15635,19909C15802,19828 16019,19758 16234,19715C16474,19668 16556,19659 16669,19666C16804,19675 16809,19671 16855,19558C16897,19454 16961,19270 16955,19270C16953,19270 16912,19283 16863,19299C16815,19315 16699,19343 16605,19360C16216,19431 15927,19516 15523,19676C15330,19752 15293,19770 15077,19892C14758,20071 14495,20271 14271,20506C14139,20643 14090,20711 13543,21509C13314,21842 13242,21933 12970,22235C12647,22594 12554,22708 12367,22975C12297,23074 12172,23243 12087,23350C11680,23868 11504,24107 11395,24290C11230,24569 10861,25277 10737,25555C10576,25915 10511,26043 10300,26415C10180,26626 10070,26864 10041,26973C10033,27004 10034,27012 10047,27017C10082,27031 10230,26980 10451,26879C10579,26820 10610,26818 10656,26864C10733,26941 10691,27019 10471,27209C9995,27618 9831,27843 9687,28286C9603,28542 9565,28720 9572,28825C9578,28918 9586,28924 9695,28917C9763,28913 9812,28902 9895,28874C9990,28841 10018,28836 10095,28835C10174,28835 10192,28838 10242,28863C10318,28901 10361,28952 10428,29090C10520,29279 10523,29281 10605,29229ZM22080,24963C22063,24724 22072,24243 22095,24100C22117,23962 22186,23646 22200,23620C22225,23573 22132,23620 22051,23694C21974,23765 21918,23796 21829,23819C21711,23849 21635,23853 21528,23836C21346,23806 21236,23755 21048,23613C20888,23492 20805,23444 20445,23265C20275,23181 20088,23084 20032,23050C19975,23016 19927,22990 19926,22992C19924,22994 19918,23096 19912,23220C19905,23356 19895,23467 19885,23500C19867,23565 19865,23740 19881,23825C19895,23902 19931,23971 19983,24022C20081,24118 20166,24151 20395,24181C20478,24192 20563,24205 20585,24210C20607,24215 20695,24231 20780,24245C20865,24260 20978,24286 21030,24302C21141,24337 21323,24421 21399,24472C21452,24508 22008,25053 22057,25117C22071,25135 22085,25148 22087,25146C22090,25143 22087,25061 22080,24963ZM25355,24138C25386,24124 25459,24010 25496,23919C25531,23833 25566,23670 25579,23535C25591,23417 25582,23269 25554,23105C25519,22896 25292,22099 25194,21840C25175,21788 25132,21669 25100,21575C25023,21347 24993,21275 24896,21075C24755,20783 24478,20343 24287,20105C24094,19865 23746,19500 23510,19290C23452,19238 23304,19103 23180,18989C22618,18472 22539,18417 21995,18165C21754,18054 21517,17926 21340,17812C21020,17606 20824,17370 20592,16910C20515,16758 20500,16733 20505,16770C20524,16896 20588,17191 20659,17474L20737,17790L20826,17908C20931,18048 21105,18225 21214,18305C21353,18407 21713,18608 22015,18754C22206,18846 22288,18894 22480,19028C22810,19259 22964,19394 22958,19448C22952,19503 22918,19490 22715,19357C22434,19174 22284,19087 21985,18937C21412,18648 21144,18475 20928,18252C20874,18196 20830,18158 20830,18165C20830,18173 20859,18300 20896,18447C20932,18595 20986,18827 21015,18964C21058,19161 21076,19225 21101,19269C21244,19523 21608,19797 22020,19960C22078,19983 22244,20042 22389,20091C22567,20152 22740,20220 22924,20302C23434,20529 23470,20549 23470,20605C23470,20627 23466,20630 23437,20630C23419,20630 23291,20591 23154,20544C23017,20497 22826,20432 22730,20401C22527,20333 22223,20222 22063,20157C21754,20030 21487,19863 21243,19642C21192,19596 21150,19563 21150,19568C21150,19584 21250,19972 21291,20115C21350,20319 21411,20496 21476,20653L21533,20791L21679,20930C21916,21156 22059,21261 22232,21339C22391,21410 22933,21614 23140,21680C23264,21720 23424,21778 23495,21808C23567,21838 23709,21895 23812,21936C24083,22042 24130,22069 24130,22117C24130,22136 24125,22140 24102,22140C24086,22140 23946,22102 23791,22055C23636,22008 23427,21950 23327,21926C23044,21857 22832,21784 22435,21618C22085,21471 21967,21405 21793,21258C21742,21215 21700,21181 21700,21184C21700,21208 21941,21709 21991,21789C22141,22029 22324,22244 22671,22585C22912,22822 23022,22917 23166,23012C23370,23146 23516,23219 23785,23320C23862,23349 23942,23381 23963,23392C23985,23403 24093,23446 24204,23489C24315,23532 24419,23574 24435,23583C24526,23630 24513,23701 24416,23683C24399,23680 24246,23642 24075,23599C23843,23541 23726,23506 23610,23460C23370,23365 23137,23236 22942,23090C22835,23010 22497,22681 22337,22500C22271,22426 22213,22361 22208,22355C22181,22326 22277,22529 22350,22657C22425,22787 22456,22830 22581,22980C22633,23043 22697,23124 22723,23160C22749,23196 22790,23251 22815,23283C22878,23365 22875,23420 22807,23420C22774,23420 22744,23400 22645,23316C22407,23112 22230,22888 22094,22619L22047,22525L22034,22590C22018,22677 21996,22739 21947,22835C21855,23019 21775,23120 21622,23241C21428,23396 21388,23419 21360,23385C21339,23359 21358,23324 21448,23223C21708,22932 21826,22753 21865,22586C21901,22436 21889,22197 21839,22034C21813,21951 21717,21723 21656,21602C21619,21529 21566,21412 21417,21081L21397,21036L21376,21112C21349,21204 21305,21274 21233,21340C21154,21412 21081,21449 20845,21534C20730,21576 20607,21622 20573,21636C20479,21675 20263,21800 20122,21899C19981,21997 19963,22005 19944,21989C19900,21953 19945,21891 20132,21728C20353,21535 20376,21523 20723,21404C20987,21313 21077,21272 21139,21211C21250,21102 21264,20989 21205,20691C21185,20589 21147,20439 21121,20356C21094,20273 21028,20027 20974,19810C20920,19593 20875,19413 20873,19411C20872,19409 20859,19422 20844,19440C20744,19559 20641,19611 20405,19661C20319,19680 20256,19684 19955,19690C19514,19700 19473,19708 19231,19830C19176,19857 19121,19880 19110,19880C19099,19880 19083,19869 19075,19856C19060,19834 19060,19829 19075,19801C19105,19742 19343,19593 19485,19544L19565,19516L19950,19509C20162,19505 20349,19499 20365,19495C20382,19491 20431,19482 20475,19473C20679,19434 20768,19347 20791,19167C20804,19064 20802,19052 20694,18595C20647,18397 20586,18136 20559,18015C20478,17658 20451,17560 20408,17470L20368,17385L20330,17493C20218,17808 20103,17954 19844,18108C19642,18228 19323,18390 19204,18434C19026,18498 18751,18582 18740,18575C18734,18572 18730,18555 18730,18538C18730,18482 18766,18459 19055,18339C19315,18231 19800,17959 19917,17855C20100,17693 20223,17390 20285,16943C20301,16829 20301,16814 20285,16718C20256,16532 20254,16528 20227,16613C20194,16716 20120,16829 20020,16931C19941,17011 19911,17034 19840,17069C19662,17156 19553,17168 19124,17149C18478,17120 18188,17141 18015,17227C17892,17289 17780,17392 17716,17503C17640,17635 17638,17821 17712,18090C17723,18131 17770,18260 17816,18375C17914,18624 17932,18690 17960,18898C18009,19269 18063,19436 18227,19720C18367,19962 18405,20061 18500,20431C18532,20555 18572,20689 18588,20728C18650,20874 18727,20965 18869,21065C19005,21160 19035,21228 19070,21515C19108,21822 19156,21992 19244,22123C19296,22202 19495,22401 19625,22505C19859,22692 20171,22882 20560,23074C20700,23143 20866,23230 20928,23267C21035,23331 21075,23360 21230,23480C21310,23542 21434,23605 21520,23626C21606,23648 21747,23641 21811,23613C21837,23601 21889,23564 21927,23528C21965,23493 22025,23449 22061,23430C22123,23396 22128,23395 22235,23396C22324,23397 22360,23402 22425,23423C22613,23483 22853,23575 23105,23682C23407,23811 23500,23843 23633,23865C23716,23878 23967,23897 24065,23898C24246,23898 24655,23981 25015,24090C25087,24112 25163,24134 25185,24139C25243,24152 25325,24152 25355,24138ZM29700,21456C29700,21454 29682,21423 29661,21387C29580,21255 29565,21182 29602,21110C29653,21012 29742,21001 29935,21068C30106,21128 30169,21139 30404,21150C30659,21163 30875,21190 31040,21230C31224,21275 31337,21290 31509,21290C31593,21290 31739,21297 31832,21306C31926,21314 32004,21319 32007,21317C32009,21314 31969,21286 31918,21254C31633,21074 31373,20848 31210,20638C31139,20547 31084,20462 30950,20235C30830,20032 30769,19942 30670,19822C30510,19627 30223,19363 29915,19130C29704,18970 29529,18774 29345,18492C29301,18425 29230,18317 29188,18252C28973,17923 28736,17686 28041,17106C27917,17002 27716,16842 27595,16751C27176,16434 26936,16244 26757,16090C26516,15882 26371,15767 26212,15659C26049,15548 25972,15509 25755,15430C25530,15348 25319,15244 25135,15124C24914,14980 24729,14876 24415,14720C24135,14582 24079,14559 23920,14520C23657,14454 23443,14341 23238,14160C23204,14130 23180,14112 23185,14120C23190,14128 23283,14269 23392,14432C23621,14775 23579,14736 23901,14895C24055,14971 24140,15005 24315,15062C24613,15158 25171,15399 25232,15457C25304,15526 25249,15515 24938,15396C24788,15339 24548,15253 24405,15206C24147,15119 23990,15052 23808,14949C23759,14922 23716,14901 23714,14903C23712,14905 23759,14972 23819,15051L23928,15196L24057,15267C24281,15392 24449,15470 24685,15562C25021,15693 25162,15744 25385,15815C25642,15897 25677,15909 25785,15958C25973,16042 26586,16349 26604,16369C26614,16380 26620,16397 26618,16407C26611,16440 26545,16427 26385,16362C25811,16129 25651,16067 25377,15974C25208,15917 25010,15844 24937,15814C24865,15783 24729,15726 24635,15688C24542,15650 24396,15583 24313,15540C24229,15496 24160,15463 24160,15465C24160,15472 24451,15832 24544,15940C24594,15997 24697,16111 24774,16193C24921,16350 24942,16365 25105,16430C25243,16485 25456,16540 25667,16575C25781,16595 25934,16621 26005,16635C26077,16648 26218,16671 26320,16685C26422,16699 26543,16719 26590,16729C26913,16799 27204,16866 27318,16895C27564,16960 27936,17093 28015,17144C28049,17167 28076,17208 28063,17221C28056,17228 27990,17210 27865,17170C27619,17091 27434,17043 27114,16976C26971,16946 26775,16903 26679,16881C26583,16859 26405,16825 26285,16806C26164,16787 26000,16757 25920,16740C25840,16723 25719,16698 25650,16685C25494,16654 25383,16622 25212,16558C25138,16531 25076,16511 25073,16514C25065,16521 25374,16862 25547,17037L25695,17187L25800,17224C25858,17244 25941,17269 25985,17280C26077,17304 26378,17348 26690,17385C27010,17423 27231,17463 27505,17532C27813,17610 27910,17652 28407,17922C28723,18094 28780,18130 28780,18160C28780,18202 28722,18183 28440,18049C27786,17737 27462,17636 26730,17515C26395,17459 26054,17393 25957,17365C25909,17351 25866,17340 25862,17340C25858,17340 25968,17453 26105,17591C26387,17874 26353,17851 26675,17985C26965,18106 27195,18177 27751,18320C28207,18437 28375,18492 28725,18640C28813,18677 28983,18749 29103,18799C29350,18902 29435,18943 29468,18973C29495,18998 29496,19020 29470,19020C29459,19020 29314,18970 29147,18909C28498,18672 28091,18535 27790,18453C27537,18385 27078,18249 26950,18204C26898,18186 26801,18148 26735,18120C26560,18045 26564,18046 26581,18066C26594,18083 27067,18517 27190,18626C27255,18683 27329,18714 27660,18818C27968,18916 28493,19097 28705,19180C28815,19222 29009,19295 29135,19341C29329,19412 29422,19454 29730,19609C30212,19852 30309,19904 30348,19945C30440,20043 30349,20017 29974,19839C29491,19610 29269,19514 28985,19410C28914,19384 28788,19335 28705,19302C28342,19157 27446,18840 27434,18853C27425,18862 27835,19234 27900,19275C27919,19287 27982,19316 28040,19338C28098,19361 28222,19409 28315,19445C28409,19482 28564,19539 28660,19572C28756,19605 28954,19683 29100,19745C29246,19807 29424,19882 29495,19913C29754,20022 29961,20130 30280,20320C30459,20426 30641,20537 30686,20565C30808,20644 30843,20690 30780,20690C30751,20690 30641,20636 30235,20424C30009,20306 29707,20168 29270,19982C29141,19927 28981,19857 28915,19827C28849,19797 28716,19742 28620,19705C28524,19669 28398,19618 28342,19594C28285,19569 28236,19550 28234,19552C28232,19554 28283,19601 28348,19657C28412,19712 28536,19823 28623,19903C28957,20211 29078,20308 29377,20507C29489,20581 29586,20651 29595,20663C29636,20721 29593,20751 29504,20725C29399,20695 29073,20520 28900,20402C28788,20325 28744,20290 28587,20152C28522,20094 28467,20050 28464,20053C28456,20061 28494,20191 28581,20445C28624,20573 28660,20691 28660,20708C28660,20743 28639,20764 28611,20755C28569,20742 28479,20561 28399,20330C28344,20171 28320,20068 28320,19983L28320,19911L28203,19808C28138,19751 27997,19631 27890,19541C27664,19350 27572,19269 27403,19112C27335,19049 27280,19005 27280,19013C27280,19038 27356,19298 27408,19450C27466,19619 27515,19743 27613,19970C27689,20148 27703,20215 27665,20215C27637,20215 27558,20081 27421,19805C27238,19438 27150,19159 27150,18950C27150,18918 27147,18884 27144,18875C27140,18866 27004,18739 26841,18592C26678,18446 26494,18276 26432,18216C26371,18156 26318,18109 26315,18112C26302,18125 26424,18648 26480,18819C26526,18960 26529,18990 26500,18990C26440,18990 26294,18674 26224,18395C26202,18308 26199,18274 26199,18137L26200,17980L25684,17457C25400,17170 25147,16915 25123,16890L25079,16845L25100,16899C25135,16989 25237,17206 25321,17368C25402,17525 25412,17556 25384,17567C25344,17582 25208,17386 25085,17135C24986,16935 24947,16837 24915,16717C24889,16619 24886,16616 24615,16330C24453,16160 24345,16035 24217,15873C24152,15789 24096,15720 24093,15720C24090,15720 24104,15748 24123,15783C24142,15817 24189,15915 24228,16000C24267,16085 24326,16214 24360,16285C24426,16424 24480,16551 24480,16569C24480,16591 24450,16579 24427,16548C24394,16503 24290,16311 24177,16085C24082,15894 24010,15719 24010,15679C24010,15661 24014,15659 24036,15664L24062,15671L24032,15633C23761,15298 23671,15184 23619,15107C23536,14983 23537,14984 23545,15060C23577,15358 23742,15825 24021,16411C24064,16502 24100,16582 24100,16589C24100,16606 24075,16602 24047,16580C23994,16538 23887,16340 23682,15900C23575,15670 23505,15477 23470,15315C23444,15192 23433,14980 23449,14915L23461,14868L23304,14617C23218,14478 23136,14353 23122,14338C23067,14278 22952,14321 22909,14416C22861,14523 22845,14790 22875,14991C22898,15148 22895,15169 22850,15155C22771,15130 22701,14703 22744,14509C22783,14333 22863,14243 22999,14222L23049,14215L22922,14018C22852,13909 22791,13822 22786,13823C22781,13825 22768,13850 22757,13880C22720,13979 22585,14085 22435,14134C22408,14142 22336,14159 22275,14170C22046,14213 21994,14244 22006,14329C22016,14402 22077,14576 22130,14685C22254,14939 22398,15100 22695,15320C22921,15488 23057,15623 23291,15910C23386,16028 23506,16167 23555,16219C23667,16336 24248,16822 24435,16955C24511,17009 24630,17089 24699,17133C24978,17308 25055,17364 25156,17465C25321,17629 25436,17791 25579,18058C25695,18276 25760,18361 26044,18664C26303,18942 26363,19016 26696,19479C26912,19780 27028,19919 27234,20126C27509,20401 27686,20548 27894,20674C27998,20737 28110,20790 28450,20937C28674,21034 29036,21209 29208,21303C29272,21339 29359,21380 29400,21394C29504,21431 29700,21471 29700,21456ZM17764,19148C17757,19113 17742,19018 17731,18935C17706,18758 17683,18664 17631,18526C17498,18175 17506,18193 17498,18231C17494,18250 17479,18328 17464,18405C17432,18573 17393,18711 17338,18844C17299,18940 17298,18944 17316,18957C17326,18965 17403,19004 17485,19045C17568,19085 17664,19139 17700,19164C17736,19189 17768,19210 17771,19210C17775,19210 17772,19182 17764,19148ZM22090,17894C22084,17880 22048,17794 22009,17703C21891,17427 21713,16874 21506,16144C21308,15445 21162,14849 20986,14030C20824,13269 20760,12923 20691,12430C20593,11736 20538,11325 20505,11060C20486,10903 20450,10635 20426,10464C20401,10293 20371,10079 20360,9989C20349,9899 20317,9668 20290,9475C20263,9283 20224,9001 20205,8850C20185,8699 20149,8429 20125,8250C20075,7877 20020,7420 19991,7115C19960,6798 19921,6394 19905,6215C19880,5951 19792,4879 19755,4390C19746,4272 19735,4166 19730,4155C19718,4122 19707,4838 19706,5850C19705,6748 19707,6841 19732,7410C19785,8557 19833,9269 19925,10215C20042,11426 20132,12531 20195,13545C20273,14787 20339,15340 20477,15883C20564,16230 20656,16482 20799,16764C20986,17133 21167,17371 21378,17528C21514,17629 21825,17808 21990,17881C22094,17927 22103,17928 22090,17894ZM18102,16911C18296,16865 18613,16854 19010,16878C19416,16903 19647,16895 19678,16856C19702,16827 19649,16003 19590,15460C19535,14965 19484,14385 19460,13990C19449,13806 19431,13527 19420,13370C19409,13213 19393,12934 19385,12750C19376,12566 19365,12321 19359,12205C19354,12090 19347,11660 19343,11250C19340,10840 19334,10514 19329,10525C19325,10536 19305,10662 19285,10805C19193,11474 19096,12079 18999,12595C18960,12799 18898,13134 18860,13340C18782,13770 18602,14696 18565,14857C18552,14917 18514,15094 18481,15251C18411,15587 18390,15670 18259,16150C18167,16486 18086,16747 18032,16878C18020,16906 18012,16930 18014,16930C18017,16930 18056,16921 18102,16911ZM19926,16650C20051,16456 20084,16230 20084,15550C20084,15152 20082,15111 20057,14900C20023,14613 19996,14310 19970,13950C19959,13793 19943,13568 19935,13450C19909,13090 19812,11916 19775,11519C19756,11313 19729,11010 19715,10845C19682,10452 19613,9750 19607,9744C19596,9732 19588,10643 19593,11365C19603,12615 19623,13069 19725,14335C19835,15691 19870,16231 19870,16552C19870,16645 19872,16720 19875,16720C19878,16720 19901,16689 19926,16650ZM24090,15706C24090,15704 24082,15696 24073,15689C24057,15676 24056,15677 24069,15693C24082,15709 24090,15714 24090,15706Z" style="fill-rule:nonzero;"/><path fill="#F5F5FA" d="M10119,17809C10077,17805 10016,17794 9984,17786C9951,17778 9831,17751 9715,17726C9484,17676 9419,17657 9329,17609C9175,17527 9077,17339 9096,17163C9113,17005 9278,16636 9434,16408C9482,16337 9523,16274 9526,16267C9529,16259 9516,16247 9495,16237C9441,16211 9418,16167 9423,16098C9431,15970 9624,15648 9823,15430C10011,15224 10357,14891 10453,14823C10548,14756 10744,14653 10877,14601C10922,14583 10967,14562 10977,14555C10993,14543 10991,14540 10952,14525C10929,14515 10898,14494 10884,14477C10862,14451 10859,14439 10862,14400C10868,14337 10893,14306 11035,14187C11101,14131 11218,14025 11295,13952C11446,13809 11531,13743 11765,13590C11933,13480 12040,13389 12180,13238C12354,13050 12610,12825 12805,12691C12844,12664 12999,12572 13149,12486C13299,12400 13455,12305 13495,12275C13599,12196 13691,12096 13813,11924C14001,11660 14150,11511 14410,11329C14534,11242 14638,11186 14828,11106C15081,10999 15168,10950 15360,10804C15413,10765 15482,10716 15513,10696C15639,10615 15893,10503 16046,10460C16233,10407 16465,10450 16644,10571C16760,10650 16841,10723 16936,10836C16989,10898 17047,10959 17065,10970C17212,11061 17359,10867 17599,10265C17665,10100 17769,9853 17830,9715C18142,9018 18208,8818 18389,8030C18486,7606 18622,6956 18675,6662C18875,5546 18956,5002 19030,4260C19116,3396 19148,3142 19175,3089C19203,3036 19267,3038 19294,3093C19322,3154 19331,3215 19337,3391C19352,3870 19250,4919 19089,5930C18967,6695 18729,7858 18575,8436C18434,8962 18341,9217 18115,9690C17962,10010 17916,10111 17809,10370C17684,10670 17483,11071 17355,11275C17039,11777 16948,11936 16892,12080C16870,12139 16867,12161 16865,12305C16864,12441 16860,12476 16841,12535C16783,12712 16687,12857 16514,13027C16385,13155 16276,13291 16153,13479C15998,13716 15988,13730 15930,13789C15874,13845 15850,13862 15605,14023C15339,14197 15233,14313 15026,14660C14952,14784 14839,14962 14775,15055C14586,15330 14520,15434 14380,15671C14307,15794 14227,15924 14202,15960C14128,16064 14016,16169 13885,16255C13704,16374 13659,16411 13485,16580C13397,16665 13289,16762 13245,16795C13115,16893 12936,16994 12768,17065C12559,17154 12374,17249 12161,17377C11921,17523 11882,17544 11750,17604C11607,17670 11582,17676 11374,17695C11207,17709 11005,17741 10832,17779C10783,17790 10694,17804 10634,17810C10510,17821 10232,17821 10119,17809ZM10513,17620C10600,17614 10765,17594 10878,17575C10992,17555 11175,17531 11285,17519C11395,17508 11503,17494 11525,17489C11585,17473 11773,17381 11880,17315C12229,17099 12484,16961 12663,16891C12764,16851 12842,16811 12965,16737C13106,16652 13164,16605 13335,16440C13521,16260 13581,16210 13734,16107C13944,15967 13986,15917 14190,15570C14319,15350 14430,15177 14624,14895C14677,14818 14760,14690 14807,14610C14980,14319 15104,14158 15255,14027C15329,13963 15393,13918 15652,13751C15775,13671 15819,13624 15960,13420C16111,13201 16206,13084 16375,12910C16538,12742 16606,12646 16645,12529C16670,12454 16672,12438 16667,12351C16663,12299 16657,12253 16652,12248C16648,12244 16625,12267 16602,12300C16535,12395 16448,12495 16321,12625L16204,12745L16055,13035C15919,13301 15793,13513 15711,13615C15654,13685 15590,13711 15606,13657C15611,13638 15693,13491 15817,13275C15839,13237 15898,13138 15948,13055C15998,12973 16037,12903 16035,12901C16027,12893 15880,13020 15695,13195C15591,13294 15463,13413 15413,13458C15362,13504 15282,13590 15235,13648C15150,13753 14894,14131 14748,14365C14566,14656 13865,15694 13819,15740C13773,15786 13743,15800 13727,15784C13719,15776 13749,15718 13825,15595C13859,15540 13942,15396 14010,15275C14141,15042 14328,14732 14505,14453C14564,14361 14626,14263 14643,14235C14698,14147 14872,13886 14902,13848C14918,13827 14926,13810 14920,13810C14906,13810 14592,13987 14359,14127C14207,14217 14201,14222 14126,14316C14020,14448 13965,14533 13733,14915C13300,15629 13238,15727 13032,16020C12902,16205 12656,16529 12567,16632C12486,16726 12430,16751 12430,16694C12430,16656 12461,16603 12610,16380C12959,15861 13203,15478 13480,15015C13651,14728 13745,14580 13802,14508C13819,14487 13829,14470 13826,14470C13822,14470 13728,14539 13617,14623C13506,14707 13282,14862 13120,14968C12958,15074 12818,15166 12809,15173C12801,15179 12747,15253 12690,15335C12418,15730 11957,16314 11697,16594C11458,16851 10938,17290 10872,17290C10815,17290 10863,17226 11025,17084C11252,16885 11446,16681 11720,16350C12011,16000 12478,15390 12455,15390C12452,15390 12417,15408 12377,15429C12213,15519 11624,15787 11440,15855C11399,15870 11354,15892 11341,15904C11328,15915 11253,16011 11175,16116C10997,16353 10900,16468 10650,16740C10447,16959 10160,17236 10093,17277C10029,17316 9984,17299 10011,17247C10028,17215 10179,17041 10285,16930C10421,16788 10657,16518 10822,16315C10902,16216 10995,16105 11029,16068C11063,16032 11090,15999 11090,15996C11090,15993 11042,16011 10983,16036C10923,16061 10765,16127 10630,16181C10191,16360 9740,16609 9551,16777C9515,16810 9460,16855 9429,16877C9378,16915 9370,16926 9332,17017C9251,17214 9256,17315 9352,17407C9412,17465 9485,17489 9791,17551C10035,17600 10172,17620 10330,17629C10344,17629 10426,17625 10513,17620ZM9679,16508C9900,16347 10258,16140 10460,16055C10534,16023 10693,15955 10813,15903C10933,15851 11113,15775 11213,15735C11473,15630 11524,15609 11533,15600C11543,15591 11457,15570 11310,15544C11230,15530 11168,15529 10925,15533C10624,15539 10481,15553 10338,15590C10204,15625 10161,15618 10174,15566C10184,15527 10301,15474 10445,15445C10570,15419 10804,15395 11030,15385C11247,15374 11447,15405 11615,15475C11662,15494 11709,15510 11720,15510C11765,15510 12418,15173 12558,15077L12602,15048L12558,15003C12417,14858 12143,14746 11735,14665C11609,14640 11482,14615 11454,14609C11389,14596 11364,14572 11384,14544C11407,14513 11549,14513 11755,14545C11951,14575 12036,14595 12181,14646C12391,14718 12601,14834 12680,14921L12725,14970L13004,14790C13267,14619 13490,14463 13490,14448C13490,14433 13393,14389 13031,14245C12505,14036 12466,14027 12088,14025C11834,14024 11802,14019 11837,13988C11891,13940 12119,13905 12310,13914C12542,13925 12695,13960 13022,14080C13375,14210 13375,14210 13474,14298C13579,14392 13562,14392 13685,14300C13792,14220 13973,14102 14083,14040C14114,14023 14140,14005 14140,14002C14139,13990 13930,13858 13825,13803C13700,13738 13634,13713 13422,13651C13330,13623 13183,13578 13095,13550C13007,13522 12870,13483 12790,13464C12635,13426 12613,13416 12631,13394C12660,13359 12805,13369 12998,13420C13481,13548 13684,13605 13759,13634C13918,13695 14094,13793 14207,13882L14269,13931L14447,13832C14545,13777 14650,13720 14680,13705C14710,13690 14737,13676 14739,13674C14746,13668 14588,13526 14509,13468C14344,13346 14029,13142 13905,13076C13744,12991 13432,12816 13406,12797C13393,12788 13389,12777 13393,12766C13409,12725 13523,12764 13884,12929C14107,13031 14209,13091 14485,13279C14646,13389 14760,13488 14826,13573L14855,13611L14962,13546C15021,13511 15123,13441 15187,13391C15315,13293 15503,13126 15508,13107C15511,13095 15429,12986 15305,12838C15234,12753 15031,12567 14913,12478C14870,12447 14771,12387 14691,12345C14473,12233 14308,12137 14296,12117C14281,12092 14305,12078 14351,12085C14392,12091 14696,12218 14834,12287C14937,12338 14988,12373 15110,12474C15358,12680 15484,12817 15560,12961L15598,13033L15681,12954C15727,12910 15806,12838 15855,12795C16003,12664 16190,12488 16190,12480C16190,12476 16139,12431 16078,12381C16016,12330 15938,12267 15906,12240C15825,12173 15419,11908 15306,11850C15256,11824 15114,11763 14990,11715C14866,11666 14759,11621 14751,11614C14743,11607 14740,11594 14744,11584C14755,11556 14839,11572 15057,11644C15286,11721 15409,11778 15645,11918C15997,12127 16084,12195 16177,12337C16207,12383 16237,12420 16243,12420C16257,12420 16375,12285 16444,12191C16508,12103 16600,11953 16600,11936C16600,11929 16518,11836 16418,11731C16286,11591 16207,11516 16126,11456C15924,11305 15826,11246 15698,11195C15619,11163 15601,11147 15621,11124C15648,11091 15804,11121 15930,11185C16232,11336 16491,11551 16610,11748C16640,11799 16668,11839 16671,11837C16681,11834 16817,11683 16876,11610C16926,11548 17110,11258 17110,11241C17110,11236 17087,11230 17058,11227C16960,11215 16908,11180 16745,11015C16530,10797 16445,10740 16299,10714C16201,10697 16159,10704 16004,10765C15843,10828 15708,10899 15582,10988C15319,11173 15223,11227 14980,11330C14702,11448 14597,11508 14404,11658C14266,11765 14167,11869 14016,12068C13862,12272 13725,12410 13581,12509C13531,12543 13399,12623 13288,12687C13030,12834 12971,12871 12862,12948C12684,13073 12501,13229 12330,13399C12101,13628 12071,13651 11715,13882C11660,13918 11570,13987 11515,14036C11383,14153 11250,14264 11172,14324C11138,14350 11112,14375 11115,14380C11118,14384 11136,14391 11155,14394C11176,14398 11205,14415 11225,14436C11255,14465 11260,14478 11260,14516C11260,14574 11242,14608 11183,14660C11121,14714 11038,14763 10930,14807C10672,14914 10563,14990 10291,15250C9939,15588 9862,15672 9747,15845C9695,15925 9630,16040 9630,16055C9630,16058 9648,16060 9670,16060C9727,16060 9770,16100 9777,16161C9785,16234 9712,16386 9589,16550C9551,16600 9552,16600 9679,16508Z" style="fill-rule:nonzero;"/></g></g><g id="converted-82.svg1" serif:id="converted 82.svg"></g></g></svg>