<?xml version="1.0" encoding="UTF-8" standalone="no"?><!DOCTYPE svg PUBLIC "-//W3C//DTD SVG 1.1//EN" "http://www.w3.org/Graphics/SVG/1.1/DTD/svg11.dtd"><svg width="3000px" height="3000px" version="1.1" xmlns="http://www.w3.org/2000/svg" xmlns:xlink="http://www.w3.org/1999/xlink" xml:space="preserve" xmlns:serif="http://www.serif.com/" style="fill-rule:evenodd;clip-rule:evenodd;stroke-linejoin:round;stroke-miterlimit:2;"><g transform="matrix(0.7415,0,0,0.7415,1483,1483)"><g id="converted-16.svg" serif:id="converted 16.svg" transform="matrix(1,0,0,1,-2000,-2000)"><g transform="matrix(0.1,0,0,-0.1,0,4000)"><path d="M20936,36214C20868,36198 20727,36129 20641,36071C20609,36049 20559,36005 20531,35973C20470,35904 20380,35729 20350,35621C20330,35546 20306,35362 20292,35170L20285,35065L20262,35130C20172,35391 19997,35529 19818,35480C19773,35467 19688,35392 19655,35335C19614,35265 19586,35138 19593,35050C19604,34912 19685,34726 19772,34639C19854,34557 20027,34490 20156,34490C20197,34490 20197,34494 20165,34337C20136,34196 20111,34110 20099,34110C20094,34110 20058,34154 20018,34208C19916,34345 19820,34438 19734,34482C19653,34524 19430,34592 19314,34610C19271,34617 19165,34623 19080,34624C18931,34625 18923,34624 18867,34598C18796,34564 18717,34490 18651,34395C18541,34236 18504,34114 18513,33941C18520,33806 18540,33730 18600,33605C18643,33516 18664,33487 18795,33342C18946,33174 19128,33002 19235,32925C19268,32902 19384,32834 19492,32775L19689,32667L19730,32551C19787,32392 19816,32289 19830,32198C19840,32129 19839,32115 19821,32057C19804,32000 19785,31894 19777,31805C19775,31777 19758,31792 19465,32080C19048,32491 18989,32536 18765,32620C18557,32699 18398,32719 18265,32685C18194,32666 18163,32648 18063,32564C17971,32487 17893,32448 17711,32386C17543,32328 17491,32300 17416,32224C17308,32116 17253,31996 17224,31808C17205,31686 17210,31575 17241,31433C17309,31116 17419,30911 17694,30587C17760,30509 17849,30399 17891,30345C18166,29985 18415,29809 18690,29779C18856,29761 19003,29791 19178,29879C19220,29900 19340,29975 19444,30044C19635,30172 19649,30178 19650,30127C19650,30118 19620,30060 19584,29999C19457,29788 19430,29678 19430,29373C19430,29266 19427,29180 19423,29182C19418,29184 19291,29247 19140,29322C18846,29468 18704,29527 18514,29585C18314,29646 17958,29697 17807,29687C17665,29678 17473,29630 17320,29566C17211,29520 16938,29364 16819,29280C16690,29190 16545,29047 16469,28939C16333,28744 16198,28568 16112,28471C15928,28266 15880,28161 15880,27962C15880,27766 15945,27593 16110,27345C16247,27140 16394,27003 16640,26850C16687,26821 16781,26756 16850,26705C16919,26655 17007,26592 17045,26565C17084,26538 17164,26478 17223,26432C17364,26322 17533,26209 17617,26166C17810,26069 18178,26011 18425,26039C18543,26053 18726,26092 18829,26126C18973,26174 19079,26233 19312,26392C19380,26439 19461,26465 19503,26455C19520,26450 19531,26433 19547,26387C19559,26352 19605,26244 19649,26147C19694,26049 19730,25965 19730,25960C19730,25956 19695,25949 19653,25945C19518,25934 19342,25901 19250,25871C18973,25778 18597,25551 18394,25354C18081,25049 17825,24522 17724,23970C17700,23840 17700,23562 17724,23430C17744,23318 17796,23158 17841,23068C17936,22878 18084,22743 18355,22599L18455,22545L18300,22528C18215,22519 18098,22502 18040,22490C17763,22434 17479,22301 17213,22102C17080,22002 16765,21727 16702,21655C16577,21513 16555,21329 16650,21231C16723,21156 16837,21120 17046,21104C17225,21091 17494,21143 17731,21235C18090,21375 18243,21410 18660,21445C18959,21471 19047,21493 19488,21649C19567,21677 19722,21722 19833,21750C19944,21777 20062,21808 20094,21820C20127,21831 20155,21838 20157,21836C20159,21834 20156,21813 20150,21789C20144,21765 20137,21637 20133,21505C20122,21048 20162,20655 20271,20153C20292,20052 20310,19966 20310,19960C20310,19954 20284,19963 20253,19978C20141,20034 20035,20057 19758,20085C19561,20105 19437,20133 19222,20208C18352,20509 18158,20558 17770,20576C17655,20581 17604,20579 17525,20565C17203,20510 17024,20396 16620,19990C16396,19765 16328,19711 16105,19580C15918,19471 15844,19402 15783,19283C15748,19213 15745,19200 15745,19126C15746,19026 15775,18934 15834,18847C15909,18735 16027,18659 16325,18532C16590,18419 16848,18367 17325,18330C17612,18307 17651,18302 17855,18260C18270,18175 18468,18166 18860,18214C19119,18246 19211,18246 19411,18209L19537,18186L19536,18060C19535,17957 19539,17923 19557,17865C19621,17664 19803,17446 19965,17377L20005,17359L20002,17262C20000,17199 20004,17134 20016,17077C20025,17029 20031,16988 20029,16985C20027,16983 19939,16943 19835,16897C19730,16850 19609,16796 19565,16775C19521,16755 19447,16723 19400,16704C19185,16615 18917,16454 18813,16352C18713,16254 18643,16134 18610,16006L18592,15935L18474,15929C18290,15920 18152,15875 17845,15725C17630,15619 17515,15544 17260,15340C16965,15105 16804,14934 16620,14660C16482,14455 16284,14044 16201,13790C16166,13683 16092,13378 16062,13220C15983,12806 15986,12468 16070,12210C16164,11922 16308,11701 16575,11435C16733,11276 16961,11076 17070,10998C17211,10898 17360,10840 17588,10796C17741,10766 17857,10763 17986,10785C18157,10815 18270,10862 18603,11039C18804,11146 18954,11191 19260,11235C19615,11287 19729,11326 19969,11479L19992,11494L19985,11409C19980,11363 19974,11285 19971,11235L19965,11145L19870,11095C19727,11019 19655,10966 19550,10860C19404,10713 19226,10445 19145,10251C19088,10114 19066,10020 19065,9903C19065,9846 19063,9801 19060,9803C19057,9804 19007,9829 18950,9857C18826,9920 18741,9942 18523,9970C18412,9984 18323,10002 18243,10026C18081,10076 17927,10115 17785,10142C17684,10161 17632,10165 17450,10165C17094,10165 16983,10131 16610,9912C15988,9547 15657,9306 15508,9110C15445,9027 15377,8888 15349,8785C15313,8654 15312,8391 15344,8070C15358,7930 15372,7766 15375,7705C15391,7415 15418,7258 15477,7105C15567,6870 15747,6625 15909,6517C16042,6427 16263,6330 16583,6218C16856,6123 16944,6087 17182,5974C17478,5833 17642,5762 17757,5724C17918,5671 18166,5630 18327,5630C18421,5630 18508,5612 18720,5551C18816,5523 18933,5493 18979,5485C19026,5477 19065,5468 19067,5466C19069,5465 19055,5437 19035,5405C18985,5322 18961,5251 18943,5136C18922,4998 18931,4886 18980,4650C19088,4138 19117,3939 19127,3655C19143,3128 19024,2624 18756,2093C18679,1941 18668,1902 18695,1880C18733,1848 18794,1895 18899,2037C19117,2330 19276,2749 19336,3190C19362,3379 19360,3728 19332,3933C19300,4160 19275,4277 19153,4785C19091,5045 19122,5248 19246,5380C19312,5450 19389,5499 19521,5555C19689,5625 19824,5696 19910,5761C20006,5833 20154,5989 20198,6063C20347,6312 20393,6619 20330,6931C20318,6987 20311,7034 20313,7036C20315,7038 20359,7020 20411,6996C20670,6874 21046,6826 21445,6864C21539,6873 21681,6887 21761,6895C21926,6911 22027,6934 22152,6984C22405,7086 22576,7203 22699,7360C22723,7390 22788,7491 22843,7585C22962,7785 22983,7816 23110,7975C23347,8270 23645,8704 23742,8895C23962,9329 24010,9624 23907,9925C23831,10145 23760,10250 23441,10616C23334,10739 23229,10878 23080,11095C23023,11178 22951,11277 22920,11315C22800,11462 22616,11612 22448,11700C22164,11849 21917,11866 21525,11765C21357,11721 21204,11665 20950,11552C20837,11502 20666,11434 20570,11400C20474,11367 20342,11316 20277,11289C20212,11261 20157,11240 20156,11241C20154,11243 20156,11295 20160,11356C20176,11587 20214,11623 20631,11804C20896,11918 21011,11990 21131,12116C21255,12247 21352,12436 21400,12637C21414,12700 21406,12697 21625,12704C21739,12707 21793,12713 21848,12729C22111,12806 22480,13096 22770,13455C22832,13532 22998,13712 23140,13855C23281,13998 23412,14138 23432,14165C23452,14193 23507,14280 23555,14359C23665,14542 23703,14595 23878,14810C24043,15012 24115,15117 24182,15250C24256,15398 24281,15499 24287,15665C24298,15969 24222,16100 23903,16330C23627,16528 23395,16623 23154,16637L23043,16643L23079,16674C23099,16690 23167,16752 23230,16810C23384,16951 23461,17017 23610,17136C23889,17359 23952,17399 24177,17495C24472,17621 24542,17663 24805,17875C25082,18097 25262,18323 25440,18671C25530,18848 25562,18951 25568,19085C25576,19299 25520,19436 25326,19668C25229,19784 25165,19833 24915,19982C24314,20339 24015,20470 23705,20511C23504,20537 23206,20510 22989,20445C22745,20372 22375,20201 22081,20026C21991,19972 21877,19907 21827,19880C21665,19794 21229,19614 20981,19531C20849,19487 20711,19437 20675,19421L20610,19391L20610,19446C20610,19476 20588,19598 20560,19718C20494,20008 20458,20204 20411,20537C20351,20954 20345,21028 20345,21412L20345,21758L20370,21785C20408,21826 20436,21837 20618,21885C20914,21963 21049,22027 21410,22260C21629,22402 21908,22562 22002,22600C22099,22638 22195,22661 22455,22705C22571,22725 22726,22758 22800,22780C22874,22801 23018,22837 23120,22860C23619,22972 23737,23015 23864,23131C23947,23207 23983,23287 23988,23406C23992,23488 23990,23504 23967,23553C23933,23627 23862,23693 23765,23740C23650,23797 23549,23814 23380,23807C23203,23800 23099,23781 22540,23651C22422,23624 22246,23585 22150,23565C21949,23523 21729,23453 21586,23386C21531,23361 21485,23342 21483,23344C21481,23346 21575,23441 21692,23555C21961,23817 21996,23857 22197,24124C22531,24569 22654,24841 22736,25315C22784,25592 22772,25904 22706,26098C22656,26244 22595,26344 22504,26431C22393,26535 22301,26585 22151,26622C22021,26655 21808,26652 21639,26617C21408,26568 21251,26504 20775,26261C20627,26185 20456,26104 20395,26080C20262,26029 20081,25981 19985,25974L19915,25968L19892,26046C19879,26090 19846,26178 19818,26243L19767,26361L19803,26395C19823,26414 19869,26469 19906,26517C20059,26715 20253,26914 20545,27170C20650,27262 20818,27418 20920,27516C21180,27766 21361,27933 21460,28013C21628,28148 22011,28390 22335,28565C22445,28624 22596,28708 22670,28750C22744,28793 22886,28871 22985,28925C23209,29047 23288,29100 23366,29181C23439,29258 23470,29314 23477,29386C23485,29462 23465,29522 23413,29580C23352,29648 23291,29669 23140,29677C22995,29684 22890,29670 22756,29623C22665,29592 22185,29401 21830,29256C21756,29226 21619,29178 21525,29150C21221,29059 20994,28959 20730,28799C20554,28692 20454,28617 20275,28456C20184,28376 20105,28307 20097,28305C20088,28301 20081,28321 20072,28384C20055,28503 20026,28589 19967,28703C19904,28825 19835,28902 19701,29000C19636,29048 19597,29084 19593,29099C19590,29112 19590,29180 19593,29249C19597,29356 19603,29388 19629,29459C19686,29616 19755,29704 19848,29742C19900,29763 19920,29765 20075,29764L20245,29763L20445,29712C20710,29644 20996,29587 21205,29559C21452,29526 21810,29526 21995,29559C22321,29616 22668,29783 22921,30003C23012,30083 23070,30158 23070,30197C23070,30234 23043,30278 23010,30295C22966,30318 22895,30313 22753,30279C22549,30228 22520,30231 22180,30324C21745,30444 21748,30443 21470,30436C21235,30429 21235,30429 21055,30462C20887,30492 20860,30494 20644,30494L20413,30495L20446,30536C20525,30632 20541,30734 20501,30890C20444,31111 20331,31268 20056,31508L19958,31594L19964,31675C19976,31811 19999,31938 20022,31986C20043,32032 20111,32094 20173,32127C20272,32178 20407,32206 20641,32225C20982,32253 21152,32308 21342,32450C21623,32662 21738,32959 21643,33232C21581,33410 21475,33552 21346,33629C21315,33647 21236,33684 21169,33711C21030,33766 20985,33791 20822,33898C20655,34009 20533,34052 20347,34066C20299,34070 20260,34075 20260,34077C20260,34079 20275,34131 20294,34193C20313,34254 20336,34340 20345,34383C20354,34425 20363,34460 20365,34460C20366,34460 20388,34449 20412,34435C20445,34417 20482,34408 20554,34400C20608,34395 20687,34381 20730,34370C20774,34359 20841,34350 20882,34350C21045,34350 21295,34439 21494,34567C21580,34623 21750,34787 21781,34844C21802,34884 21803,34892 21791,34929C21781,34965 21765,34981 21672,35050C21613,35093 21540,35142 21510,35159C21384,35227 21178,35257 21048,35226C20936,35200 20812,35131 20641,34999C20599,34967 20564,34942 20563,34944C20561,34945 20583,34996 20611,35056L20662,35165L20930,35430C21222,35719 21316,35825 21356,35907C21387,35970 21392,36048 21367,36097C21310,36206 21118,36258 20936,36214ZM21153,36001C21160,35994 21156,35980 21138,35955C21086,35882 20927,35710 20746,35533C20645,35433 20542,35327 20519,35298L20477,35245L20484,35325C20505,35555 20575,35734 20690,35849C20740,35899 20905,35992 20977,36010C21024,36021 21138,36016 21153,36001ZM19951,35273C20013,35221 20058,35134 20112,34965C20140,34877 20176,34779 20191,34748L20220,34690L20196,34690C20148,34690 20021,34719 19982,34739C19823,34820 19735,35166 19845,35276C19877,35307 19911,35306 19951,35273ZM21255,35025C21348,35008 21420,34976 21494,34920L21550,34878L21516,34838C21423,34730 21224,34621 21027,34570C20888,34535 20867,34534 20735,34559C20680,34569 20605,34581 20568,34585C20524,34589 20492,34598 20475,34611C20428,34649 20447,34673 20557,34718C20643,34753 20686,34779 20810,34870C20947,34971 21071,35030 21167,35039C21173,35040 21213,35033 21255,35025ZM19180,34405C19397,34381 19614,34313 19717,34238C19734,34225 19785,34172 19830,34120C19875,34068 19926,34013 19943,33998C19960,33983 19972,33969 19969,33967C19967,33965 19942,33947 19913,33926C19820,33860 19726,33749 19676,33647C19553,33396 19528,33215 19586,32987C19595,32950 19600,32917 19598,32915C19595,32912 19541,32941 19478,32980C19331,33069 19183,33202 18992,33416C18774,33661 18750,33704 18728,33883C18709,34040 18743,34163 18844,34304C18897,34378 18908,34388 18957,34406C19005,34423 19018,34423 19180,34405ZM20498,33835C20561,33815 20612,33788 20713,33721C20875,33612 20948,33572 21075,33520C21198,33470 21244,33443 21298,33389C21352,33334 21391,33266 21425,33165C21460,33061 21457,32985 21412,32887C21357,32767 21209,32636 21037,32554C20921,32500 20891,32494 20479,32445C20335,32428 20207,32394 20102,32345C20062,32326 20026,32310 20022,32310C20018,32309 20011,32328 20007,32352C19994,32419 19953,32552 19898,32700C19832,32880 19781,33058 19770,33149C19754,33270 19786,33411 19868,33579C19931,33709 20057,33815 20197,33856C20267,33876 20397,33867 20498,33835ZM18591,32459C18714,32423 18844,32364 18903,32318C18988,32253 19113,32134 19460,31790C19655,31596 19873,31388 19944,31327C20168,31135 20264,31006 20311,30834C20337,30740 20331,30701 20287,30664C20236,30621 20179,30601 20003,30564C19823,30526 19753,30500 19698,30451L19662,30420L19597,30537C19562,30602 19469,30780 19390,30934C19160,31384 19089,31499 18950,31641C18852,31741 18741,31817 18578,31895C18444,31959 18263,32021 18201,32023C18146,32025 18127,32004 18150,31962C18162,31941 18223,31906 18426,31805C18575,31730 18712,31655 18747,31628C18886,31520 18969,31402 19170,31030C19354,30689 19429,30557 19494,30456C19525,30409 19550,30367 19550,30365C19550,30362 19517,30344 19478,30324C19438,30304 19380,30271 19350,30250C19233,30172 19070,30079 18998,30051C18889,30007 18829,29996 18728,30004C18508,30019 18317,30152 18089,30450C18036,30519 17932,30648 17857,30737C17636,31000 17549,31145 17486,31352C17449,31477 17420,31628 17420,31699C17421,31830 17473,31987 17540,32063C17588,32118 17641,32145 17808,32199C17995,32260 18092,32310 18200,32401C18246,32440 18293,32476 18304,32480C18354,32500 18484,32491 18591,32459ZM19860,30323C19846,30314 19825,30298 19813,30287C19800,30276 19790,30270 19790,30274C19790,30287 19854,30340 19869,30340C19879,30340 19875,30334 19860,30323ZM20970,30276C21017,30268 21096,30255 21145,30245C21220,30232 21272,30230 21455,30236C21719,30244 21722,30243 22126,30144C22291,30103 22453,30067 22486,30064C22526,30060 22577,30065 22645,30078C22700,30089 22746,30097 22748,30095C22754,30089 22624,30002 22534,29952C22351,29849 22163,29782 21962,29749C21788,29720 21474,29720 21233,29750C21039,29774 20739,29833 20495,29895C20269,29953 20187,29964 20022,29958C19919,29954 19870,29948 19825,29932C19792,29921 19764,29913 19762,29915C19756,29921 19834,30030 19880,30083C19934,30144 19994,30185 20072,30214C20138,30239 20308,30276 20419,30290C20515,30302 20871,30293 20970,30276ZM18135,29450C18424,29406 18605,29345 19000,29156C19488,28923 19673,28796 19768,28631C19820,28542 19845,28471 19870,28346C19881,28291 19902,28226 19915,28202L19940,28157L19872,28086C19760,27970 19686,27837 19605,27607L19564,27489L19517,27562C19416,27721 19230,27906 19056,28021C18955,28088 18609,28265 18458,28328C18191,28439 17905,28501 17515,28531C17330,28545 17235,28538 17060,28499C16824,28445 16800,28437 16779,28398C16760,28363 16804,28361 16990,28387C17144,28409 17189,28411 17360,28406C17694,28397 18050,28334 18285,28243C18382,28205 18731,28033 18845,27967C19097,27821 19302,27630 19457,27397L19522,27299L19498,27177C19479,27075 19475,27021 19475,26854L19475,26652L19423,26646C19340,26636 19248,26596 19131,26521C19005,26438 18842,26359 18739,26330C18575,26285 18414,26260 18284,26260C18085,26260 17852,26303 17737,26361C17663,26398 17539,26484 17393,26597C17192,26753 16912,26949 16659,27110C16466,27233 16299,27423 16184,27652C16130,27758 16097,27898 16102,27991C16108,28094 16139,28153 16254,28281C16398,28442 16444,28502 16576,28701C16681,28859 16716,28903 16799,28982C16910,29087 17007,29156 17196,29260C17406,29376 17503,29414 17720,29461C17823,29484 17930,29481 18135,29450ZM23169,29471C23304,29455 23311,29410 23196,29295C23144,29244 23095,29208 23010,29161C22947,29126 22789,29038 22660,28965C22531,28892 22332,28782 22217,28721C22001,28605 21875,28531 21655,28390C21326,28181 21230,28101 20780,27665C20672,27560 20505,27404 20409,27319C20147,27084 19889,26814 19770,26650C19741,26612 19715,26580 19711,26580C19688,26580 19673,26883 19689,27016C19739,27417 19848,27739 19992,27907C20021,27941 20099,28017 20165,28076C20231,28136 20348,28243 20424,28314C20589,28466 20680,28536 20850,28637C21112,28794 21303,28875 21618,28964C21705,28989 21831,29032 21900,29060C21969,29088 22063,29126 22110,29145C22157,29163 22303,29223 22435,29278C22924,29481 22972,29493 23169,29471ZM22142,26411C22229,26383 22350,26301 22402,26236C22507,26105 22552,25938 22553,25675C22554,25490 22544,25420 22485,25175C22444,25005 22405,24892 22336,24745C22262,24589 22216,24512 22061,24290C21876,24023 21822,23953 21705,23826C21507,23611 21385,23473 21286,23350C21231,23281 21111,23149 21021,23055C20840,22868 20782,22799 20668,22635C20562,22481 20487,22395 20396,22323C20353,22288 20314,22260 20310,22260C20305,22260 20323,22306 20350,22363C20464,22607 20583,23065 20649,23525C20699,23866 20722,24366 20701,24610C20682,24826 20635,25036 20553,25265C20503,25406 20456,25505 20362,25663C20317,25738 20280,25803 20280,25807C20280,25812 20320,25828 20367,25843C20488,25882 20642,25950 20795,26033C21043,26167 21379,26327 21487,26363C21675,26425 21765,26440 21930,26436C22044,26433 22089,26428 22142,26411ZM20233,25761C20235,25740 20272,25651 20313,25563C20404,25369 20438,25276 20484,25089C20556,24796 20573,24556 20546,24195C20506,23669 20463,23426 20279,22702C20228,22504 20208,22402 20203,22334C20199,22273 20193,22240 20185,22240C20179,22240 20137,22254 20091,22270C20046,22287 19934,22319 19842,22341C19418,22444 19269,22479 19190,22495C19027,22528 18902,22570 18710,22655C18411,22787 18260,22878 18145,22994C17996,23145 17910,23401 17910,23695C17910,24058 18073,24561 18308,24920C18494,25205 18703,25381 19074,25566C19329,25693 19433,25719 19755,25740C19951,25752 20070,25766 20155,25785C20188,25792 20218,25798 20221,25799C20225,25800 20230,25783 20233,25761ZM23610,23594C23731,23566 23809,23502 23817,23426C23825,23362 23799,23301 23744,23250C23668,23180 23598,23155 23319,23095C22961,23020 22855,22995 22738,22961C22681,22944 22532,22913 22405,22890C22065,22830 21984,22807 21820,22726C21694,22663 21478,22537 21274,22405C21128,22311 20907,22192 20799,22150C20737,22125 20499,22058 20493,22064C20491,22066 20536,22127 20594,22199C20652,22271 20737,22383 20784,22448C20888,22594 21056,22787 21182,22905C21460,23168 21756,23301 22280,23400C22371,23417 22576,23461 22735,23496C22895,23532 23086,23572 23160,23585C23323,23613 23512,23617 23610,23594ZM19004,22315C19086,22301 19237,22270 19339,22245C19441,22221 19626,22178 19750,22151C19874,22124 20013,22088 20060,22072L20145,22042L20099,22021C20051,21999 20000,21986 19727,21920C19635,21898 19489,21854 19402,21824C18992,21678 18925,21662 18595,21635C18218,21603 18054,21566 17705,21433C17508,21357 17403,21329 17232,21305C17125,21290 17092,21289 16992,21299C16872,21311 16798,21336 16776,21371C16762,21395 16792,21468 16838,21524C16880,21575 17194,21852 17309,21940C17523,22102 17771,22223 18015,22284C18283,22351 18715,22364 19004,22315ZM17837,20369C17907,20364 18006,20352 18055,20344C18257,20311 18652,20193 19005,20062C19347,19935 19491,19901 19835,19865C19923,19856 20024,19842 20059,19834C20149,19814 20235,19765 20305,19695C20409,19591 20445,19495 20434,19357L20427,19285L20379,19251C20297,19195 20245,19144 20026,18910C19814,18682 19710,18554 19650,18445C19631,18412 19616,18384 19615,18382C19614,18381 19573,18389 19525,18401C19288,18457 19100,18465 18824,18430C18470,18385 18323,18392 17915,18470C17692,18513 17592,18525 17315,18540C17211,18546 17087,18555 17040,18561C16930,18573 16614,18636 16532,18662C16439,18690 16157,18814 16099,18851C16024,18899 15973,18963 15950,19038C15924,19121 15925,19140 15954,19199C15990,19269 16068,19333 16241,19437C16469,19572 16543,19632 16775,19864C17132,20223 17275,20318 17532,20364C17625,20382 17679,20382 17837,20369ZM23737,20304C23955,20267 24277,20117 24775,19822C25018,19678 25070,19642 25139,19563C25299,19381 25370,19240 25370,19104C25370,18980 25297,18798 25158,18580C24978,18296 24886,18193 24623,17983C24438,17835 24373,17796 24123,17685C23916,17593 23815,17538 23716,17463C23522,17316 23309,17131 23120,16944C22910,16737 22838,16679 22713,16616C22642,16581 22564,16564 22382,16545C22218,16528 22057,16533 21758,16564C21619,16579 21521,16575 21377,16549C21345,16544 21288,16539 21251,16538C21098,16537 21048,16565 20825,16780C20776,16828 20710,16886 20679,16908C20617,16953 20619,16945 20603,17133L20598,17201L20645,17273C20749,17430 20932,17659 21021,17745C21107,17827 21504,18147 21708,18298C21862,18412 22067,18529 22534,18770C22867,18942 23013,19000 23425,19125C23665,19197 23808,19229 24070,19265C24172,19280 24302,19302 24360,19315C24418,19328 24535,19351 24620,19365C24705,19379 24789,19395 24806,19401C24845,19413 24874,19444 24867,19464C24854,19496 24793,19500 24510,19489C23970,19468 23682,19419 23175,19262C22852,19162 22678,19086 22274,18867C21718,18568 21708,18561 21245,18179C20939,17927 20812,17798 20697,17623C20650,17553 20599,17471 20584,17443C20552,17386 20544,17380 20535,17409C20527,17436 20455,17499 20411,17517C20388,17527 20324,17535 20230,17539C20113,17545 20076,17550 20037,17567C19940,17611 19810,17766 19759,17898C19726,17984 19728,18110 19765,18210C19829,18382 19899,18485 20096,18690C20167,18765 20270,18875 20326,18936C20510,19135 20654,19218 21045,19348C21449,19483 21888,19676 22145,19832C22316,19936 22436,19999 22620,20083C22946,20231 23107,20285 23297,20309C23345,20315 23399,20322 23415,20324C23465,20331 23650,20319 23737,20304ZM20343,17318C20362,17303 20385,17201 20393,17097C20398,17031 20397,17028 20376,17034C20365,17037 20332,17040 20304,17040C20258,17040 20251,17043 20246,17063C20234,17113 20220,17270 20226,17299C20232,17328 20235,17330 20279,17330C20305,17330 20334,17324 20343,17318ZM20445,16779C20526,16749 20601,16695 20740,16564C20873,16440 20915,16408 20995,16368C21106,16312 21244,16302 21445,16335C21563,16354 21664,16353 21965,16329C22224,16309 22481,16328 22805,16390C22866,16402 22976,16414 23050,16417C23209,16423 23303,16405 23455,16340C23575,16289 23646,16247 23810,16131C23968,16018 24010,15978 24047,15902C24074,15847 24075,15839 24075,15700C24074,15581 24070,15541 24052,15477C24006,15315 23918,15176 23716,14946C23568,14777 23488,14669 23376,14485C23273,14316 23168,14187 23039,14069C22911,13952 22762,13787 22623,13608C22345,13247 21995,12961 21757,12901C21715,12890 21642,12878 21593,12875C21545,12871 21488,12864 21468,12860C21426,12851 21429,12846 21415,12968C21406,13047 21364,13183 21320,13274C21298,13318 21240,13418 21189,13495C21137,13576 21058,13716 21005,13826C20954,13932 20893,14046 20869,14081C20785,14205 20688,14286 20505,14385C20224,14536 20032,14733 19690,15225C19551,15424 19449,15535 19305,15643C19216,15709 19002,15825 18885,15870C18852,15883 18822,15896 18818,15899C18806,15909 18895,16080 18944,16142C19040,16262 19213,16367 19570,16518C19622,16541 19748,16595 19850,16640C20203,16795 20255,16813 20337,16805C20366,16802 20414,16791 20445,16779ZM18724,15680C18819,15656 19049,15547 19135,15485C19268,15390 19359,15292 19525,15060C19613,14937 19721,14793 19766,14740C19810,14687 19850,14639 19853,14633C19858,14626 19832,14616 19782,14605C19687,14584 19578,14543 19390,14455C18833,14197 18430,13873 18109,13425C17992,13263 17726,12858 17656,12736C17577,12599 17501,12445 17447,12314C17422,12252 17380,12160 17355,12110C17305,12011 17305,11987 17356,12012C17404,12034 17587,12306 17730,12565C17824,12737 18138,13216 18273,13394C18382,13538 18624,13785 18768,13898C18950,14042 19115,14144 19432,14309C19646,14421 19746,14462 19866,14491L19958,14513L20036,14441C20146,14341 20269,14256 20413,14180C20514,14126 20549,14101 20616,14035C20694,13958 20701,13947 20805,13740C20864,13622 20950,13467 20995,13395C21130,13182 21177,13072 21200,12916C21228,12728 21137,12442 20993,12266C20915,12170 20784,12084 20505,11945C20334,11861 20230,11802 20176,11761C20118,11716 20076,11694 20016,11674C19972,11659 19874,11619 19800,11585C19599,11491 19540,11476 19155,11420C18861,11378 18717,11330 18405,11170C18035,10981 17879,10949 17601,11005C17286,11069 17169,11144 16772,11535C16505,11797 16392,11949 16309,12155C16222,12372 16198,12562 16224,12815C16246,13028 16271,13169 16330,13423C16409,13758 16456,13884 16631,14231C16836,14639 17048,14900 17389,15164C17654,15370 17755,15431 18032,15553C18304,15674 18388,15698 18546,15699C18616,15700 18670,15694 18724,15680ZM22175,11610C22273,11580 22395,11513 22503,11431C22674,11303 22748,11219 22945,10930C23103,10697 23239,10521 23396,10343C23712,9987 23806,9721 23730,9400C23680,9187 23561,8954 23334,8620C23187,8404 23104,8289 22877,7991C22845,7949 22766,7829 22703,7723C22565,7495 22523,7440 22428,7361C22311,7264 22078,7152 21915,7115C21882,7107 21729,7086 21575,7068C21124,7016 20891,7023 20635,7096C20516,7130 20443,7161 20335,7225C20226,7289 20214,7302 20160,7410C20136,7457 20059,7587 19988,7699C19849,7916 19790,8030 19763,8132L19747,8195L19799,8296C19853,8401 19959,8560 20069,8699C20145,8797 20349,9005 20480,9120C20532,9166 20653,9276 20749,9364C21049,9642 21097,9676 21710,10047C22174,10328 22317,10399 22679,10529C22872,10598 22903,10618 22865,10646C22837,10667 22789,10659 22490,10583C22221,10515 22083,10467 21960,10396C21727,10264 21162,9929 21076,9872C20945,9786 20811,9677 20669,9543C20606,9484 20483,9369 20395,9289C20073,8995 19908,8797 19765,8531L19715,8438L19707,8507C19675,8802 19654,8910 19594,9095C19547,9242 19475,9387 19402,9485C19348,9556 19338,9578 19306,9688C19263,9835 19260,9907 19291,10031C19365,10324 19644,10731 19865,10868C19970,10933 20241,11077 20360,11130C20418,11156 20540,11203 20630,11235C20721,11267 20896,11335 21020,11387C21493,11586 21708,11643 21965,11636C22074,11633 22120,11628 22175,11610ZM17700,9966C17854,9942 17985,9913 18166,9861C18284,9827 18389,9804 18515,9786C18614,9772 18720,9752 18750,9742C18886,9695 19020,9610 19141,9493C19291,9349 19366,9216 19443,8960C19484,8825 19503,8721 19530,8475C19541,8376 19555,8269 19561,8236C19567,8204 19569,8176 19566,8173C19563,8170 19503,8193 19433,8223C19112,8363 18791,8453 18473,8495C18340,8513 18213,8514 18034,8500C17755,8478 17576,8444 17331,8365C17240,8336 17086,8291 16990,8265C16705,8189 16599,8154 16432,8076C16254,7994 16193,7957 16170,7918C16145,7872 16167,7866 16241,7899C16412,7976 16591,8027 17005,8120C17132,8149 17305,8192 17390,8217C17475,8241 17585,8270 17635,8280C17844,8323 18201,8355 18355,8345C18640,8326 19036,8229 19470,8071C19574,8034 19608,8017 19617,7999C19624,7986 19650,7933 19675,7882C19700,7831 19758,7729 19804,7656C19850,7583 19905,7490 19925,7449C19946,7408 19984,7341 20011,7300C20090,7176 20153,6992 20181,6801C20211,6594 20157,6330 20048,6145C19999,6063 19886,5949 19792,5886C19737,5850 19514,5740 19496,5740C19493,5740 19442,5719 19383,5694C19285,5651 19268,5647 19195,5647C19093,5647 18986,5669 18785,5732C18551,5804 18482,5818 18310,5830C17944,5854 17816,5894 17258,6161C17010,6279 16895,6326 16630,6420C16341,6522 16131,6614 16019,6690C15943,6742 15862,6832 15797,6938C15644,7185 15611,7303 15585,7695C15577,7827 15560,8009 15549,8100C15509,8428 15508,8663 15545,8790C15586,8925 15684,9062 15826,9181C15988,9317 16311,9532 16702,9764C16927,9897 17027,9942 17147,9964C17253,9983 17577,9984 17700,9966Z" style="fill-rule:nonzero;"/></g></g><g id="converted-16.svg1" serif:id="converted 16.svg"></g></g></svg>