<?xml version="1.0" encoding="UTF-8" standalone="no"?><!DOCTYPE svg PUBLIC "-//W3C//DTD SVG 1.1//EN" "http://www.w3.org/Graphics/SVG/1.1/DTD/svg11.dtd"><svg width="3000px" height="3000px" version="1.1" xmlns="http://www.w3.org/2000/svg" xmlns:xlink="http://www.w3.org/1999/xlink" xml:space="preserve" xmlns:serif="http://www.serif.com/" style="fill-rule:evenodd;clip-rule:evenodd;stroke-linejoin:round;stroke-miterlimit:2;"><g transform="matrix(0.72575,0,0,0.72575,1548.5,1500)"><g id="converted-16.svg" serif:id="converted 16.svg" transform="matrix(1,0,0,1,-2000,-2000)"><g transform="matrix(0.1,0,0,-0.1,0,4000)"><path d="M20740,37236C20566,37200 20387,36993 20286,36710C20249,36608 20194,36395 20175,36280C20154,36150 20154,36151 20122,36193C20040,36299 19922,36305 19834,36208C19724,36086 19704,35889 19775,35617C19789,35564 19800,35518 19800,35515C19800,35512 19784,35510 19765,35510C19678,35510 19611,35435 19589,35314C19581,35270 19582,35241 19595,35176C19626,35020 19794,34643 19889,34516C19917,34478 19943,34437 19946,34426C19954,34394 19907,34274 19889,34279C19881,34281 19843,34285 19804,34288C19721,34293 19672,34276 19602,34217C19501,34132 19436,34024 19397,33874L19374,33789L19329,33857C19305,33894 19267,33938 19244,33953C19169,34005 19074,34002 19011,33944C18942,33883 18910,33771 18910,33593L18910,33501L18875,33494C18820,33484 18754,33434 18712,33370C18625,33240 18618,33093 18688,32884C18732,32753 18810,32588 18870,32500C18953,32379 19176,32154 19275,32092C19297,32079 19316,32066 19318,32065C19320,32063 19287,31892 19245,31684C19178,31352 19137,31190 19120,31190C19117,31190 19104,31215 19091,31246C19043,31356 18942,31412 18854,31375C18779,31344 18742,31290 18714,31173C18701,31118 18699,31073 18704,30941L18710,30777L18657,30827C18520,30957 18367,30964 18291,30845C18250,30780 18236,30700 18243,30567C18253,30384 18307,30222 18410,30070C18499,29939 18702,29770 18835,29715C18893,29692 18895,29690 18892,29658C18890,29640 18871,29491 18851,29327L18813,29029L18773,28987C18669,28880 18598,28716 18553,28480L18545,28435L18510,28485C18421,28615 18330,28680 18238,28680C18155,28680 18098,28644 18057,28565C18016,28485 18023,28258 18071,28106C18104,28005 18185,27851 18257,27755C18340,27644 18491,27493 18593,27420L18669,27365L18670,27315C18670,27288 18665,27179 18659,27074L18647,26883L18574,26872C18533,26865 18479,26850 18453,26838C18355,26793 18271,26681 18234,26549C18214,26479 18205,26264 18218,26175C18223,26137 18227,26104 18225,26102C18224,26101 18203,26119 18179,26141C18123,26194 18047,26230 17992,26230C17874,26230 17785,26120 17787,25975C17788,25850 17888,25609 18011,25435C18102,25307 18375,25036 18464,24985L18533,24946L18527,24810C18523,24736 18517,24579 18514,24461L18507,24247L18477,24231C18415,24199 18352,24129 18311,24050C18230,23896 18160,23632 18160,23485L18160,23409L18083,23488C17983,23590 17920,23624 17830,23624C17760,23624 17703,23602 17663,23558C17585,23475 17590,23293 17674,23114C17766,22920 17853,22829 18143,22624C18192,22590 18293,22507 18369,22440L18507,22318L18514,22177C18554,21353 18628,20418 18761,19060C18794,18722 18820,18437 18818,18425C18815,18404 18621,19045 18550,19310C18527,19395 18480,19562 18445,19680C18337,20044 18307,20191 18280,20495C18261,20703 18253,20741 18225,20769C18206,20788 18190,20795 18159,20795C18107,20795 18074,20760 18066,20698C18048,20557 18029,20365 18019,20230C17982,19732 18097,18847 18272,18275C18376,17933 18581,17430 18767,17054C18856,16875 18942,16687 18963,16625C18998,16523 19002,16500 19015,16320C19047,15880 19078,15145 19089,14596C19097,14194 19085,13246 19071,13180C19065,13150 19062,13160 19046,13255C19014,13449 18961,13700 18911,13890C18828,14209 18721,14598 18663,14790C18426,15578 18402,15686 18380,16025C18374,16113 18365,16203 18360,16224C18342,16305 18285,16350 18226,16330C18175,16314 18160,16280 18139,16147C18094,15855 18085,15709 18085,15310C18085,14721 18116,14443 18231,13986C18290,13750 18346,13583 18528,13105C18590,12940 18717,12541 18769,12345C18864,11990 18908,11736 18936,11385C18956,11134 18957,11165 18880,10290C18745,8758 18649,7894 18500,6860C18467,6631 18440,6441 18440,6437C18440,6433 18436,6430 18430,6430C18425,6430 18420,6446 18420,6465C18420,6525 18370,6897 18330,7136C18308,7264 18248,7581 18195,7841C18082,8407 18057,8575 17986,9255C17871,10339 17866,10482 17906,11205C17914,11348 17923,11520 17927,11587L17933,11709L17896,11746C17863,11779 17856,11782 17817,11777C17767,11770 17731,11734 17707,11669C17652,11516 17521,11083 17475,10899C17385,10538 17343,10273 17319,9911C17306,9704 17312,9070 17329,8855C17361,8459 17397,8179 17471,7735C17543,7300 17576,7144 17719,6560C17916,5758 18008,5373 18024,5285C18042,5186 18061,5040 18100,4708L18130,4452L18090,4226C17949,3431 17755,2670 17585,2240C17506,2041 17400,1716 17400,1674C17400,1642 17425,1594 17445,1586C17454,1583 17478,1580 17497,1580C17548,1580 17582,1621 17667,1786C17934,2304 18207,3295 18384,4380C18403,4498 18437,4708 18459,4845C18482,4983 18522,5237 18550,5410C18610,5794 18624,5864 18701,6153C18857,6746 19045,7221 19522,8230C19880,8986 20066,9407 20261,9907C20728,11100 20881,11717 20956,12700C20973,12930 20970,12969 20930,13005C20900,13032 20846,13029 20816,13001C20784,12971 20778,12951 20740,12765C20654,12352 20488,11757 20353,11385C20154,10836 20027,10563 19580,9725C19327,9250 19210,9010 19088,8720C19002,8515 18972,8453 18984,8510C18987,8524 19005,8695 19025,8890C19125,9905 19241,11346 19290,12195C19302,12403 19299,12384 19351,12650C19485,13335 19664,13877 20002,14620C20550,15823 20709,16243 20815,16765C20866,17018 20889,17258 20906,17705L20913,17885L20886,17917C20853,17956 20820,17964 20775,17946C20733,17928 20730,17922 20645,17677C20556,17422 20408,17053 20255,16710C19958,16042 19814,15677 19655,15193C19537,14831 19509,14730 19424,14340L19355,14025L19348,14285C19344,14428 19336,14723 19330,14940C19309,15686 19272,16368 19220,16954C19193,17253 19193,17270 19235,17400C19336,17710 19477,17991 19699,18320C20073,18876 20153,18999 20230,19130C20649,19854 20906,20418 21014,20855C21113,21257 21173,21711 21141,21826C21120,21904 21046,21940 20984,21901C20943,21876 20925,21836 20805,21511C20547,20810 20345,20412 19885,19700C19448,19023 19272,18676 19145,18240C19127,18177 19109,18132 19107,18140C19104,18148 19086,18322 19066,18525C19046,18729 19017,19026 19000,19185C18873,20424 18764,21909 18757,22488L18755,22682L18827,22720C18875,22745 18943,22797 19029,22874C19305,23122 19477,23332 19570,23533C19638,23681 19645,23770 19593,23838C19537,23912 19444,23918 19315,23857C19273,23837 19236,23820 19234,23820C19232,23820 19247,23857 19266,23902C19341,24076 19359,24204 19320,24280C19281,24357 19194,24374 19094,24325C19021,24289 18873,24144 18810,24046L18766,23978L18756,24006C18747,24034 18763,24746 18777,24950L18783,25035L18856,25059C18982,25099 19118,25202 19358,25438C19538,25615 19693,25792 19731,25863C19821,26032 19713,26173 19532,26121C19515,26116 19500,26115 19500,26119C19500,26124 19515,26160 19534,26201C19635,26419 19617,26589 19486,26657C19442,26680 19343,26670 19285,26636C19227,26602 19125,26506 19069,26434L19026,26378L19009,26478C18992,26583 18953,26681 18905,26745L18878,26780L18895,27077L18911,27375L18937,27395C18952,27406 18994,27438 19031,27465C19346,27699 19592,28005 19671,28260C19705,28370 19704,28497 19669,28565C19615,28672 19484,28707 19358,28648C19327,28634 19299,28624 19296,28628C19293,28631 19290,28654 19290,28680C19290,28813 19200,28975 19095,29031C19070,29044 19050,29061 19050,29069C19050,29093 19110,29564 19116,29582C19119,29591 19140,29610 19164,29624C19187,29638 19242,29681 19286,29721C19329,29761 19435,29852 19520,29924C19700,30076 19902,30275 19978,30375C20082,30513 20144,30672 20144,30805C20145,30875 20141,30891 20118,30932C20079,30997 20032,31024 19955,31024C19878,31024 19809,30992 19728,30920C19696,30891 19670,30872 19670,30877C19670,30881 19677,30921 19686,30965C19707,31069 19710,31295 19691,31370C19674,31438 19639,31508 19608,31537C19581,31563 19520,31590 19490,31590C19479,31590 19470,31597 19470,31605C19470,31641 19554,32016 19564,32026C19570,32032 19605,32045 19641,32054C19779,32090 20073,32254 20293,32418C20593,32641 20777,32921 20756,33123C20745,33230 20674,33320 20601,33320C20590,33320 20579,33323 20577,33328C20574,33332 20581,33369 20592,33410C20617,33507 20613,33626 20583,33685C20508,33829 20349,33837 20194,33705C20165,33680 20140,33660 20137,33660C20135,33660 20130,33717 20127,33788C20124,33858 20117,33940 20110,33970C20099,34022 20101,34030 20132,34114L20165,34204L20275,34236C20493,34299 20669,34383 20797,34485C20934,34595 20974,34659 20975,34766C20975,34831 20972,34842 20942,34883C20916,34920 20912,34930 20924,34937C20967,34962 21100,35085 21152,35150C21225,35239 21249,35290 21250,35348C21250,35423 21197,35491 21126,35504C21106,35508 21090,35513 21090,35516C21090,35519 21108,35551 21129,35587C21199,35702 21233,35795 21238,35886C21243,35978 21225,36027 21170,36073C21112,36122 21038,36131 20940,36101C20900,36088 20880,36086 20883,36093C20990,36342 21054,36521 21081,36645C21088,36678 21094,36761 21094,36830C21095,36997 21072,37074 21000,37154C20928,37232 20847,37258 20740,37236ZM20818,36965C20856,36854 20795,36539 20629,35992C20594,35874 20583,35850 20530,35780C20464,35690 20390,35561 20340,35450C20321,35409 20303,35371 20300,35367C20287,35352 20280,35705 20290,35841C20304,36030 20355,36303 20416,36514C20471,36701 20543,36840 20629,36927C20689,36987 20733,37011 20775,37008C20800,37005 20807,36999 20818,36965ZM19995,36045C20048,35933 20090,35678 20097,35430C20104,35157 20098,35150 20028,35348C19954,35557 19932,35646 19921,35780C19911,35903 19919,36000 19944,36048C19965,36089 19974,36088 19995,36045ZM21020,35915C21020,35887 20969,35765 20933,35705C20855,35578 20718,35401 20634,35319C20535,35224 20338,35072 20332,35088C20328,35102 20388,35247 20451,35373C20585,35640 20742,35820 20912,35900C20981,35933 21020,35938 21020,35915ZM19817,35368C19828,35355 19850,35326 19864,35302C19899,35246 20012,34991 20051,34882L20081,34797L20059,34723C20038,34653 20020,34621 20020,34654C20020,34663 19977,34752 19925,34854C19828,35042 19758,35206 19746,35272C19742,35293 19744,35328 19750,35350C19763,35396 19785,35402 19817,35368ZM21020,35320C21020,35302 20939,35221 20855,35153C20734,35055 20564,34945 20475,34905L20395,34869L20450,34925C20480,34956 20550,35014 20605,35053C20660,35092 20747,35160 20799,35204C20900,35289 21020,35352 21020,35320ZM20738,34774C20750,34770 20760,34761 20760,34754C20760,34716 20612,34592 20499,34535C20391,34480 20238,34419 20242,34433C20245,34439 20257,34475 20269,34512L20291,34578L20363,34614C20403,34633 20490,34679 20557,34715C20680,34780 20695,34785 20738,34774ZM19818,34104C19873,34066 19910,33936 19910,33781C19910,33651 19878,33425 19835,33255C19805,33133 19690,32822 19597,32610L19556,32516L19541,32550C19524,32590 19517,32689 19500,33149C19479,33697 19509,33910 19628,34042C19696,34117 19766,34141 19818,34104ZM19180,33712C19213,33643 19248,33471 19261,33325C19267,33254 19280,33119 19291,33026C19302,32934 19309,32856 19307,32854C19301,32848 19204,33028 19175,33098C19161,33133 19137,33209 19122,33268C19098,33365 19096,33393 19095,33560C19095,33696 19099,33751 19108,33768C19121,33790 19123,33791 19140,33775C19150,33766 19168,33737 19180,33712ZM20395,33543C20381,33431 20337,33337 20224,33173C20126,33032 19884,32743 19873,32753C19871,32755 19893,32811 19921,32876C19949,32941 19996,33069 20026,33159C20087,33343 20123,33404 20232,33505C20296,33565 20376,33614 20393,33603C20398,33600 20399,33573 20395,33543ZM18924,33338C18955,33169 18994,33047 19058,32916C19127,32775 19246,32586 19340,32468C19368,32435 19390,32402 19390,32396C19390,32372 19365,32270 19360,32270C19356,32270 19297,32325 19229,32393C19048,32571 18935,32751 18857,32987C18805,33143 18810,33240 18877,33328C18905,33366 18918,33368 18924,33338ZM20565,33153C20622,33097 20485,32861 20287,32674C20144,32538 19642,32224 19614,32252C19611,32255 19638,32276 19674,32299C19823,32393 19975,32530 20164,32740C20305,32898 20340,32940 20420,33059C20480,33146 20498,33163 20542,33169C20546,33170 20556,33162 20565,33153ZM19484,31384C19498,31347 19502,31228 19491,31145C19465,30951 19378,30620 19290,30385C19234,30235 19191,30136 19185,30142C19183,30144 19185,30213 19190,30295C19197,30393 19196,30514 19190,30643C19180,30827 19181,30845 19200,30919C19251,31120 19315,31261 19393,31347C19443,31401 19473,31413 19484,31384ZM18940,31126C18960,31036 18979,30888 18986,30771C18993,30654 18973,30313 18959,30327C18953,30335 18916,30521 18883,30715C18873,30779 18866,30875 18866,30980C18865,31123 18867,31150 18884,31179C18901,31211 18903,31212 18916,31196C18923,31186 18934,31155 18940,31126ZM19959,30841C19980,30802 19919,30636 19841,30522C19772,30420 19528,30170 19415,30086C19382,30062 19354,30043 19353,30044C19351,30046 19374,30099 19404,30162C19434,30226 19480,30327 19505,30388C19581,30568 19753,30780 19873,30839C19925,30865 19946,30865 19959,30841ZM18511,30668C18590,30587 18774,30167 18806,29995L18813,29956L18769,29990C18534,30177 18431,30366 18430,30611C18430,30728 18443,30737 18511,30668ZM19002,28850C19016,28840 19038,28807 19051,28778C19072,28731 19075,28711 19075,28595C19075,28406 19059,28352 18919,28046C18854,27903 18797,27783 18792,27778C18786,27772 18767,27831 18745,27920C18707,28071 18707,28074 18714,28209C18722,28361 18742,28517 18766,28600C18788,28675 18844,28780 18889,28829C18932,28875 18963,28881 19002,28850ZM18322,28379C18426,28243 18522,28035 18546,27895C18554,27851 18567,27784 18576,27747C18585,27710 18590,27677 18587,27674C18581,27668 18498,27764 18436,27849C18371,27938 18284,28119 18260,28214C18237,28306 18232,28464 18253,28458C18259,28455 18291,28420 18322,28379ZM19465,28450C19468,28445 19464,28411 19455,28375C19418,28214 19326,28055 19173,27885C19096,27799 18990,27700 18990,27713C18990,27715 19017,27774 19051,27845C19084,27915 19134,28027 19161,28094C19220,28237 19243,28277 19306,28349C19381,28434 19448,28477 19465,28450ZM18687,26653C18753,26622 18791,26529 18805,26360C18818,26214 18770,25842 18710,25620C18689,25540 18668,25458 18664,25438C18661,25417 18655,25400 18651,25400C18647,25400 18638,25424 18631,25453C18624,25481 18589,25582 18555,25675C18431,26012 18407,26114 18406,26310C18405,26487 18427,26567 18495,26629C18536,26667 18544,26670 18596,26670C18627,26670 18667,26663 18687,26653ZM19380,26437C19380,26369 19296,26197 19155,25975C19058,25822 18930,25637 18925,25642C18918,25649 18971,25888 18991,25939C19027,26029 19110,26191 19150,26250C19202,26325 19344,26460 19371,26460C19376,26460 19380,26449 19380,26437ZM18075,25996C18129,25938 18218,25800 18302,25644C18356,25543 18452,25319 18444,25311C18435,25302 18181,25570 18139,25635C18043,25780 17973,25953 17985,26018C17994,26064 18016,26059 18075,25996ZM19540,25933C19540,25897 18963,25304 18945,25322C18940,25327 19249,25732 19293,25778C19334,25821 19405,25874 19473,25911C19527,25941 19540,25945 19540,25933ZM19080,23993C19050,23916 18861,23546 18828,23499C18811,23475 18811,23475 18811,23528C18810,23626 18905,23859 18994,23977C19046,24046 19102,24098 19108,24082C19109,24077 19097,24037 19080,23993ZM18569,24041C18579,24031 18597,23994 18608,23959C18654,23818 18660,23696 18627,23525C18606,23415 18580,23045 18589,22990C18593,22965 18602,22935 18608,22923C18618,22905 18618,22894 18607,22868C18594,22837 18553,22792 18547,22801C18528,22828 18433,23096 18410,23187C18364,23367 18354,23464 18368,23573C18383,23686 18420,23835 18460,23938C18507,24060 18529,24081 18569,24041ZM19410,23688C19410,23665 19323,23513 19268,23438C19200,23347 19041,23173 18875,23010C18750,22888 18748,22886 18753,22921C18758,22958 18847,23130 18941,23285C19037,23445 19189,23591 19345,23674C19401,23703 19410,23705 19410,23688ZM17947,23420C18022,23363 18088,23270 18170,23105C18208,23028 18265,22921 18296,22867C18327,22813 18350,22767 18348,22764C18341,22758 18197,22860 18095,22942C17994,23025 17919,23112 17865,23212C17808,23319 17784,23430 17813,23459C17833,23480 17888,23464 17947,23420ZM20849,20994C20779,20664 20533,20100 20199,19500C19982,19110 19977,19102 19538,18449C19447,18314 19349,18160 19320,18106C19291,18053 19266,18011 19263,18014C19254,18023 19352,18325 19412,18475C19481,18647 19535,18757 19628,18920C19709,19062 19899,19366 20053,19603C20394,20123 20713,20713 20850,21074C20871,21129 20871,21092 20849,20994ZM18253,19650C18284,19548 18332,19380 18360,19275C18388,19171 18453,18943 18505,18770C18691,18145 18714,18057 18779,17709C18802,17590 18833,17436 18850,17367C18886,17214 18887,17200 18853,17265C18781,17403 18641,17752 18505,18135C18380,18488 18294,18870 18226,19380C18206,19528 18180,19792 18180,19844C18180,19877 18204,19813 18253,19650ZM20644,17029C20589,16687 20473,16289 20295,15830C20201,15589 20098,15348 19843,14775C19755,14577 19656,14350 19624,14272C19592,14193 19564,14132 19563,14137C19558,14152 19745,14805 19825,15050C19967,15482 20072,15754 20375,16470C20484,16726 20588,16976 20607,17025C20661,17164 20666,17165 20644,17029ZM18334,15235C18366,15125 18420,14941 18455,14825C18490,14710 18537,14543 18560,14455C18583,14367 18626,14210 18655,14105C18803,13577 18891,13090 18915,12670C18918,12612 18923,12536 18926,12500C18929,12464 18929,12438 18925,12441C18922,12445 18896,12526 18869,12621C18775,12947 18737,13065 18650,13300C18372,14048 18298,14403 18270,15136C18260,15379 18261,15453 18274,15439C18276,15437 18303,15345 18334,15235ZM20536,11333C20507,11216 20372,10803 20286,10573C20017,9854 19809,9365 19420,8535C19179,8020 19013,7653 18924,7437C18886,7344 18854,7275 18852,7283C18849,7298 18904,7557 18946,7723C18987,7886 19027,8018 19105,8239C19288,8760 19432,9068 19865,9875C20084,10283 20179,10472 20273,10690C20349,10869 20530,11332 20530,11350C20530,11356 20533,11360 20536,11360C20539,11360 20539,11348 20536,11333ZM17677,10588C17677,10421 17683,10213 17689,10125C17713,9797 17752,9404 17796,9030C17864,8446 17891,8275 17985,7828C18073,7410 18157,6906 18194,6580C18227,6284 18270,5639 18270,5440C18269,5325 18261,5238 18238,5112L18226,5045L18218,5105C18191,5301 18163,5453 18128,5595C18107,5683 18064,5863 18035,5995C18005,6127 17938,6411 17885,6625C17736,7234 17700,7416 17626,7940C17527,8638 17505,8906 17505,9450C17505,9962 17521,10167 17586,10505C17612,10640 17670,10890 17674,10890C17676,10890 17677,10754 17677,10588Z" style="fill-rule:nonzero;"/></g></g><g id="converted-16.svg1" serif:id="converted 16.svg"></g></g></svg>