<?xml version="1.0" encoding="UTF-8" standalone="no"?><!DOCTYPE svg PUBLIC "-//W3C//DTD SVG 1.1//EN" "http://www.w3.org/Graphics/SVG/1.1/DTD/svg11.dtd"><svg width="3000px" height="3000px" version="1.1" xmlns="http://www.w3.org/2000/svg" xmlns:xlink="http://www.w3.org/1999/xlink" xml:space="preserve" xmlns:serif="http://www.serif.com/" style="fill-rule:evenodd;clip-rule:evenodd;stroke-linejoin:round;stroke-miterlimit:2;"><g transform="matrix(0.74025,0,0,0.74025,1399.5,1519.5)"><g id="converted-12.svg" serif:id="converted 12.svg" transform="matrix(1,0,0,1,-2000,-2000)"><g transform="matrix(0.1,0,0,-0.1,0,4000)"><path d="M23968,37805C23902,37781 23772,37688 23370,37376C22985,37077 22779,36863 22455,36426C22108,35958 21928,35539 21700,34670C21604,34303 21522,34019 21463,33845C21363,33552 21170,33079 21030,32785C20869,32445 20779,32236 20756,32151C20742,32100 20709,32002 20681,31932C20654,31862 20573,31641 20502,31440C20293,30854 20001,30069 19968,30006C19955,29982 19954,30005 19958,30204C19967,30665 19917,31194 19819,31665C19798,31770 19742,32004 19695,32185C19521,32858 19501,32939 19460,33130C19409,33368 19357,33677 19336,33865C19298,34205 19292,34798 19321,35365C19333,35598 19329,35636 19283,35691C19214,35772 19094,35766 19026,35678C18923,35542 18672,34754 18576,34265C18466,33702 18463,33300 18566,32700C18624,32360 18637,32303 19149,30195C19354,29352 19377,29241 19391,29015C19403,28831 19395,28528 19375,28390C19367,28338 19330,28180 19291,28040C18998,26964 18874,26390 18659,25105C18626,24908 18597,24744 18595,24742C18589,24736 18584,24754 18570,24830C18535,25027 18428,25420 18326,25725C18227,26019 18153,26198 17941,26653C17837,26876 17560,27502 17370,27945C17189,28366 17118,28599 17055,28975C16983,29408 16965,29683 16981,30095C16994,30429 16991,30455 16938,30516C16889,30572 16838,30593 16765,30588C16689,30583 16642,30555 16601,30490C16568,30439 16439,30035 16385,29815C16252,29273 16212,28683 16275,28195C16364,27504 16561,26920 16935,26230C16969,26167 17064,25987 17145,25830C17226,25673 17354,25435 17428,25300C17503,25165 17607,24965 17661,24855C17762,24648 17988,24115 18065,23905C18169,23617 18263,23118 18286,22735C18291,22646 18286,22572 18261,22355C18234,22118 18205,21806 18170,21380C18164,21311 18148,21077 18135,20860C18121,20643 18103,20362 18095,20235C18087,20109 18074,19857 18066,19675C18057,19494 18046,19253 18040,19140C18020,18754 18010,18343 18010,17942C18010,17721 18007,17540 18002,17540C17998,17540 17984,17570 17971,17608C17913,17776 17781,18092 17696,18266C17596,18470 17526,18599 17285,19020C17202,19166 17066,19416 16983,19575C16900,19735 16786,19948 16730,20050C16674,20152 16589,20316 16541,20415C16416,20670 16386,20744 16108,21485C15844,22186 15716,22662 15635,23230C15621,23332 15605,23443 15600,23478C15589,23557 15565,23599 15514,23627C15419,23681 15316,23633 15283,23520C15269,23472 15267,23386 15266,22860C15265,22427 15269,22217 15278,22120C15360,21286 15643,20266 16043,19370C16217,18980 16304,18814 16580,18350C16683,18177 16814,17956 16870,17860C16927,17764 17043,17573 17129,17435C17329,17111 17374,17030 17536,16701C17723,16323 17848,16018 17975,15630C18095,15264 18087,15305 18120,14890C18137,14684 18171,14274 18195,13980C18220,13686 18244,13364 18250,13265C18261,13059 18260,13071 18300,12765C18316,12639 18341,12420 18355,12280C18398,11857 18469,11205 18490,11041C18501,10956 18508,10885 18506,10883C18503,10880 18470,10949 18380,11150C18300,11326 18093,11732 17970,11954C17783,12290 17596,12592 17255,13110C16963,13554 16559,14216 16208,14825C15632,15824 15373,16445 15146,17366C15088,17605 15077,17634 15030,17674C14945,17745 14827,17725 14763,17628C14736,17587 14735,17584 14737,17451C14739,17256 14791,16706 14831,16450C14979,15496 15290,14679 16026,13308C16366,12676 16752,12035 17415,11000C18129,9886 18512,9220 18836,8532C18935,8323 18942,8301 18970,8167C19163,7214 19593,5517 19900,4496C20121,3759 20263,3318 20408,2915C20493,2678 20533,2558 20580,2393C20619,2257 20701,2186 20816,2187C20948,2188 21011,2261 21018,2421C21024,2547 20989,2677 20826,3140C20729,3412 20319,4718 20196,5145C20058,5627 19824,6499 19646,7202C19549,7582 19550,7580 19570,7905C19595,8295 19630,8575 19701,8929C19817,9517 19937,9881 20435,11145C20757,11964 20937,12508 21029,12945C21085,13208 21180,13825 21180,13923C21180,14033 21096,14121 20991,14120C20954,14119 20884,14086 20854,14053C20805,14000 20738,13840 20585,13405C20550,13306 20503,13182 20482,13130C20276,12633 20082,12176 19927,11825C19479,10806 19298,10278 19186,9667C19167,9563 19149,9476 19147,9473C19139,9466 19133,9491 19091,9735C18932,10643 18857,11158 18769,11945L18747,12145L18789,12460C18856,12956 18931,13328 19027,13640C19221,14273 19622,15105 20353,16390C20479,16613 20611,16845 20645,16905C20777,17137 20887,17343 20995,17562C21251,18078 21339,18373 21504,19281C21575,19666 21575,19706 21512,19774C21444,19846 21329,19850 21257,19782C21208,19736 21184,19683 21105,19445C20948,18978 20864,18776 20614,18280C20311,17677 20208,17510 19484,16435C19070,15821 18765,15270 18560,14762C18541,14717 18523,14683 18519,14687C18513,14695 18476,15180 18445,15655C18385,16580 18362,17853 18390,18640C18402,18985 18401,18978 18486,19270C18624,19743 18644,19796 18785,20075C19148,20792 19587,21491 19994,21999C20252,22322 20442,22520 20980,23027C21311,23339 21484,23516 21941,24010C22321,24421 22591,24762 22950,25280C23040,25409 23158,25576 23213,25650C23268,25724 23323,25808 23336,25835C23401,25974 23330,26110 23191,26112C23103,26112 23088,26102 22660,25735C22277,25407 22268,25400 21330,24688C20879,24345 20713,24199 20438,23904C19966,23396 19701,23030 19390,22455C19084,21891 18848,21346 18590,20605C18535,20447 18483,20324 18475,20332C18470,20337 18521,21160 18545,21455C18616,22321 18698,23014 18871,24175C18956,24748 19151,25876 19186,26000C19276,26314 19925,27042 20474,27445C20952,27797 21100,27920 21370,28190C21466,28286 21652,28485 21783,28631C22235,29137 22370,29311 22845,29995C23074,30325 23174,30460 23336,30655C23539,30900 24024,31359 24218,31491C24328,31565 24360,31607 24360,31680C24360,31788 24258,31865 24148,31841C24090,31828 24066,31817 23770,31678C23285,31449 23136,31370 22830,31177C22343,30871 22143,30720 21695,30325C21385,30051 21247,29908 20959,29565C20460,28969 20272,28681 19830,27835C19547,27293 19420,27061 19420,27083C19420,27096 19497,27401 19560,27635C19734,28286 19920,28841 20252,29710C20547,30480 20685,30854 20890,31440C21026,31829 21125,32097 21170,32196C21224,32316 21397,32549 21783,33024C22417,33802 22537,33962 22716,34271C22806,34427 22994,34810 23078,35010C23147,35175 23180,35262 23390,35825C23659,36547 23788,36836 24033,37265C24178,37519 24187,37535 24205,37582C24251,37704 24177,37821 24056,37819C24028,37819 23988,37812 23968,37805Z" style="fill-rule:nonzero;"/></g></g><g id="converted-12.svg1" serif:id="converted 12.svg"></g></g></svg>