<?xml version="1.0" encoding="UTF-8" standalone="no"?><!DOCTYPE svg PUBLIC "-//W3C//DTD SVG 1.1//EN" "http://www.w3.org/Graphics/SVG/1.1/DTD/svg11.dtd"><svg width="3000px" height="3000px" version="1.1" xmlns="http://www.w3.org/2000/svg" xmlns:xlink="http://www.w3.org/1999/xlink" xml:space="preserve" xmlns:serif="http://www.serif.com/" style="fill-rule:evenodd;clip-rule:evenodd;stroke-linejoin:round;stroke-miterlimit:2;"><g transform="matrix(0.80475,0,0,0.80475,1500,1438.5)"><g id="converted-39.svg" serif:id="converted 39.svg" transform="matrix(1,0,0,1,-2000,-2000)"><g transform="matrix(0.1,0,0,-0.1,0,4000)"><path fill="#F5F5FA" d="M15265,33604C15199,33570 15184,33542 15096,33293C15023,33086 14892,32774 14813,32617C14713,32417 14621,32283 14413,32035C14237,31825 14153,31718 13978,31485C13715,31134 13602,30957 13511,30752C13442,30599 13435,30564 13436,30385C13438,30090 13497,29898 13764,29338C13799,29262 13828,29200 13826,29200C13824,29200 13764,29269 13693,29353C13621,29437 13499,29567 13422,29642C13305,29755 13269,29784 13204,29817C13130,29853 13121,29855 13030,29855C12943,29855 12929,29852 12869,29823C12789,29783 12698,29695 12625,29585C12596,29541 12457,29278 12317,29000C12177,28722 12025,28421 11978,28330C11739,27861 11519,27316 11466,27058C11443,26947 11445,26776 11470,26670C11518,26471 11679,26252 12053,25877C12245,25684 12320,25619 12569,25425C12789,25254 12863,25186 13294,24757C13673,24380 13790,24250 13973,24005C14229,23662 14392,23375 14480,23113C14623,22684 14547,22436 14245,22344C14157,22317 13955,22319 13837,22348C13616,22403 13268,22531 13067,22631C12921,22705 12443,22983 12335,23058C12155,23182 12007,23311 11780,23540C11470,23853 11287,23996 11151,24037C11073,24059 10968,24051 10897,24017C10716,23928 10578,23640 10366,22910C10265,22561 10212,22339 10095,21775C10064,21627 10012,21388 9980,21245C9872,20767 9840,20571 9840,20369C9840,20213 9856,20111 9901,19982C9940,19871 10014,19722 10076,19628C10169,19487 10372,19306 10660,19108C10822,18996 10943,18929 11310,18744C11863,18465 11892,18452 12331,18257C12727,18081 12846,18032 13400,17814C13839,17642 14108,17497 14241,17359C14382,17214 14457,16991 14401,16882C14347,16776 14116,16632 13870,16550C13654,16479 13387,16422 13135,16396C12496,16328 12252,16336 11735,16441C11327,16524 11019,16611 10744,16721C10396,16859 10140,16983 9745,17203C9383,17405 8937,17629 8820,17668C8550,17756 8314,17721 8190,17573C8141,17513 8072,17364 8045,17258C7969,16956 7962,16584 8020,16047C8044,15833 8066,15699 8126,15412C8291,14622 8317,14379 8286,13935C8229,13121 8243,12815 8352,12470C8454,12146 8722,11787 9005,11594C9417,11312 9913,11208 10760,11223C11181,11231 11284,11244 11773,11351C12262,11459 12372,11489 12985,11690C13429,11835 13549,11871 14005,11989C14398,12091 14522,12115 14721,12131C14993,12152 15150,12108 15282,11973C15390,11862 15411,11740 15351,11580C15323,11505 15254,11404 15140,11269C14962,11060 14816,10939 14585,10813C14033,10511 14037,10513 13645,10350C13110,10129 12965,10093 12550,10083C12315,10078 12116,10089 11730,10131C11451,10161 11286,10191 10886,10284C9942,10505 9610,10566 9300,10577C9090,10584 9030,10572 8969,10511C8832,10374 8938,10153 9379,9654C9534,9478 9660,9308 9840,9030C10127,8586 10224,8453 10567,8032C11091,7390 11227,7260 11560,7083C11908,6898 12180,6811 12551,6765C12823,6732 12996,6755 13291,6866C13599,6982 13790,7096 14125,7365C14362,7555 14525,7703 14776,7954C15114,8294 15269,8473 15590,8900C15911,9326 16236,9717 16429,9911C16675,10156 17006,10332 17225,10334C17316,10335 17349,10321 17375,10270C17397,10228 17412,10106 17405,10030C17380,9768 17214,9359 17011,9056C16859,8831 16773,8731 16411,8369C16079,8038 15949,7920 15775,7793C15608,7672 15149,7386 14890,7243C14810,7199 14673,7123 14585,7074C14497,7026 14356,6940 14272,6883C14088,6760 13828,6559 13797,6516C13782,6495 13774,6467 13772,6424C13768,6367 13770,6361 13801,6325C13867,6250 13926,6243 14270,6264C14886,6303 14808,6296 15490,6375C15979,6432 16454,6502 16695,6555C17036,6628 17691,6836 18000,6967C18272,7083 18483,7201 18775,7398C19347,7784 19555,7970 19822,8330C19994,8562 20191,8883 20321,9143C20528,9554 20576,9789 20630,10635C20641,10811 20655,11011 20660,11080C20665,11149 20672,11259 20675,11325C20683,11480 20688,11507 20705,11489C20712,11481 20762,11354 20815,11205C21000,10688 21038,10608 21219,10360C21361,10164 21681,9796 21835,9652C22040,9461 22599,9058 22899,8886C23069,8788 23333,8655 23486,8591C23795,8462 24440,8284 24870,8210C25282,8140 25585,8117 26135,8116C26522,8116 26687,8124 27030,8161C27448,8207 27666,8259 28194,8442C28767,8640 29461,8948 29765,9140C29985,9278 30421,9595 30660,9790C31042,10103 31414,10542 31710,11030C32371,12121 32715,13132 32974,14750C33037,15144 33088,15557 33114,15895C33143,16264 33170,16847 33170,17119L33170,17272L33131,17311C33082,17360 33024,17366 32964,17329C32927,17306 32913,17280 32861,17128C32795,16939 32717,16763 32507,16335C32164,15633 32117,15556 31770,15140C31398,14693 31182,14479 30725,14105C30543,13955 30349,13814 30095,13645C29813,13458 29655,13363 29345,13190C29213,13116 28997,12994 28865,12917C28551,12734 28381,12644 28109,12514C27215,12088 26596,11891 25855,11793C25739,11778 25647,11775 25310,11775C24850,11776 24701,11789 24449,11854C24079,11949 23508,12209 23250,12400C23032,12562 22830,12871 22830,13042C22830,13099 22865,13171 22929,13248C23053,13396 23211,13489 23503,13585C23858,13701 24139,13756 24675,13815C25095,13861 25243,13883 25784,13981C26570,14123 26952,14215 27460,14382C28170,14616 29054,14997 29565,15291C29998,15539 30688,15995 30965,16214C31290,16472 31828,17003 32062,17297C32268,17555 32402,17826 32462,18104C32491,18239 32493,18527 32466,18700C32386,19216 32213,19809 32031,20194C31971,20322 31530,21183 31437,21355C31333,21547 31078,21978 30991,22110C30834,22347 30604,22612 30475,22702C30348,22791 30218,22812 30105,22759C30040,22729 29925,22615 29825,22480C29756,22387 29521,22036 29049,21317C28799,20937 28277,20252 28039,19990C27365,19251 26921,18862 26000,18206C25416,17790 25340,17741 24835,17452C24400,17203 24196,17095 23919,16964C23170,16610 22737,16449 22351,16379C22208,16353 21963,16344 21830,16359C21458,16402 21105,16553 21029,16701C20994,16770 20985,16873 21003,16981C21032,17154 21109,17345 21205,17485C21360,17711 21649,17983 21955,18189C22280,18408 22976,18832 23612,19199C23776,19293 24022,19439 24158,19524C24294,19608 24520,19747 24660,19832C25161,20136 25349,20259 25700,20515C26372,21003 26685,21266 27175,21755C27544,22124 27749,22355 27974,22655C28363,23175 28611,23676 28712,24146C28743,24291 28746,24587 28717,24690C28690,24785 28620,24925 28552,25016C28423,25190 28142,25470 27953,25614C27870,25677 26970,26275 26744,26418C26645,26479 26462,26598 26335,26681C26209,26764 25984,26904 25835,26992C25499,27193 25444,27230 25140,27455C24525,27912 24220,28078 23938,28109C23740,28131 23598,28089 23434,27959C23231,27798 22973,27432 22655,26855C22468,26514 22429,26450 22012,25780C21476,24919 20980,24184 20539,23595C20190,23128 19599,22512 19195,22194C18993,22035 18866,21967 18765,21966C18690,21965 18658,21983 18620,22051C18597,22092 18595,22104 18595,22225C18596,22334 18600,22372 18623,22458C18664,22612 18696,22708 18767,22895C18882,23195 19002,23427 19275,23876C19345,23991 19486,24222 19588,24390C19802,24743 19890,24881 20120,25225C20750,26170 21091,26868 21264,27572C21347,27907 21354,27970 21355,28335C21355,28674 21347,28783 21305,28995C21251,29265 21149,29484 20960,29734C20769,29988 20391,30345 20050,30593C19981,30643 19822,30761 19695,30855C19371,31097 19311,31130 19201,31130C19122,31130 19052,31095 18976,31017C18848,30885 18789,30776 18597,30305C18440,29923 18381,29759 18270,29403C17889,28189 17777,27913 17457,27400C17165,26932 16985,26732 16765,26628C16719,26607 16680,26596 16649,26596C16608,26595 16596,26600 16566,26629C16390,26799 16313,27368 16376,28030C16415,28440 16487,28813 16644,29412C16829,30123 16938,30644 16976,31006C16997,31203 17000,31589 16982,31715C16964,31841 16924,32001 16887,32090C16813,32271 16713,32389 16400,32670C16303,32757 16161,32894 16085,32975C15886,33184 15466,33578 15416,33601C15366,33624 15305,33625 15265,33604ZM15652,33067C15992,32714 16156,32551 16325,32400C16555,32192 16627,32095 16683,31915C16824,31464 16748,30796 16400,29413C16250,28817 16185,28443 16139,27925C16122,27730 16124,27292 16143,27134C16194,26715 16333,26445 16531,26375C16720,26308 17037,26458 17274,26725C17498,26980 17815,27467 17981,27815C18120,28107 18262,28503 18484,29225C18625,29682 18685,29856 18834,30240C18978,30610 19030,30721 19097,30804C19159,30880 19191,30904 19222,30897C19257,30888 19393,30795 19528,30687C19592,30636 19726,30533 19825,30458C20034,30300 20118,30230 20347,30017C20743,29650 20956,29347 21034,29038C21080,28860 21110,28577 21110,28335C21110,27806 20926,27179 20555,26445C20377,26093 20220,25830 19823,25222C19524,24765 18982,23866 18787,23505C18671,23289 18560,23028 18464,22746C18356,22423 18326,22208 18369,22040C18381,21992 18405,21931 18424,21900C18544,21704 18788,21663 19052,21796C19289,21915 19700,22266 20134,22718C20558,23160 20699,23338 21236,24105C21585,24602 21748,24853 22138,25487C22227,25631 22366,25856 22448,25987C22625,26271 22707,26411 22870,26710C23169,27256 23420,27626 23586,27764C23660,27825 23749,27867 23821,27876C23935,27889 24112,27835 24303,27729C24455,27644 24723,27460 24930,27299C25274,27032 25301,27013 25680,26780C25826,26690 26091,26519 26270,26401C26449,26282 26705,26114 26840,26027C27156,25823 27705,25451 27817,25364C27921,25283 28183,25021 28281,24901C28360,24802 28413,24703 28436,24610C28460,24516 28450,24310 28416,24175C28339,23868 28157,23469 27942,23135C27670,22713 27279,22257 26791,21792C26444,21463 26189,21249 25755,20925C25287,20575 25063,20424 24566,20121C24401,20020 24154,19867 24016,19780C23878,19694 23619,19537 23440,19433C22590,18936 21958,18540 21665,18320C21430,18144 21175,17893 21020,17685C20901,17524 20793,17279 20749,17066C20732,16984 20729,16942 20733,16840C20738,16715 20752,16655 20795,16569C20906,16350 21253,16166 21710,16083C21845,16059 22194,16059 22346,16083C22650,16131 23020,16248 23450,16433C24010,16673 24346,16844 25010,17223C25458,17479 25605,17575 26145,17961C26612,18294 27040,18630 27395,18941C27625,19142 28178,19710 28399,19973C28511,20106 28624,20253 28863,20577C29085,20877 29212,21062 29392,21350C29580,21649 29945,22210 30028,22328C30116,22451 30187,22527 30224,22536C30285,22551 30387,22473 30532,22301C30689,22113 30796,21949 31051,21504C31183,21272 31762,20116 31833,19940C32064,19372 32227,18627 32192,18302C32159,18000 32038,17740 31796,17450C31608,17225 31166,16786 30899,16559C30518,16234 29702,15693 29162,15406C28581,15098 27634,14718 27001,14541C26583,14423 26345,14370 25723,14256C25189,14158 25037,14134 24620,14085C24099,14023 23865,13977 23505,13864C23083,13732 22887,13616 22708,13392C22528,13165 22519,12963 22675,12662C22774,12472 22917,12299 23072,12185C23244,12057 23551,11889 23845,11762C24366,11536 24682,11476 25335,11476C25762,11477 26057,11510 26467,11606C27207,11778 28103,12153 28990,12662C29119,12736 29324,12851 29445,12917C30172,13315 30694,13678 31245,14171C31649,14532 32206,15190 32420,15560C32464,15635 32801,16307 32846,16409C32859,16439 32873,16461 32875,16458C32881,16453 32858,16086 32839,15880C32796,15395 32675,14575 32580,14115C32536,13904 32416,13396 32369,13221C32286,12916 32107,12415 31968,12100C31876,11890 31722,11598 31544,11293C31205,10712 30827,10268 30390,9936C30094,9711 29709,9443 29536,9341C29342,9227 28908,9029 28473,8856C28228,8758 27726,8591 27530,8541C27136,8441 26611,8393 26010,8403C25197,8417 24798,8479 24000,8717C23760,8788 23623,8842 23385,8960C23030,9136 22862,9243 22475,9541C22091,9837 22042,9882 21795,10165C21421,10595 21316,10754 21143,11154C21107,11237 21067,11326 21054,11353C21040,11379 21033,11400 21036,11400C21040,11400 21093,11371 21154,11336C21393,11199 21609,11101 22130,10892C22555,10722 22758,10656 23194,10545C23690,10419 24362,10302 24800,10266C25209,10231 25342,10227 25889,10233C26189,10236 26491,10243 26560,10250C26737,10265 27337,10337 27450,10356C27692,10396 27992,10493 28352,10644C28909,10879 29001,10931 28972,10995C28964,11013 28952,11020 28932,11020C28916,11020 28800,10981 28674,10934C28078,10712 27664,10588 27370,10546C27243,10528 26745,10474 26565,10460C26355,10443 25423,10435 25220,10449C24537,10494 23920,10591 23292,10751C22861,10860 22637,10933 22235,11095C21703,11310 21466,11417 21225,11556C21017,11675 20859,11809 20801,11915C20760,11989 20649,12145 20516,12315C20422,12435 20271,12662 20203,12785C20176,12835 20090,13008 20011,13170C19868,13465 19691,13809 19522,14120C19472,14211 19433,14286 19434,14287C19435,14288 19472,14282 19515,14274C19647,14249 20157,14244 20415,14264C21203,14328 21780,14397 22240,14486C22657,14565 23344,14725 23645,14811C24396,15027 24849,15193 25465,15477C25612,15545 26167,15835 26345,15938C26569,16067 27059,16377 27220,16492C27510,16699 27915,17007 28080,17145C28772,17726 29013,17964 29295,18345C29372,18448 29708,18954 29798,19102C29889,19250 29920,19336 29889,19355C29856,19376 29828,19343 29603,19028C29068,18278 28828,18012 28230,17510C27847,17188 27639,17028 27170,16693C26907,16505 26360,16166 26035,15990C25215,15546 24599,15291 23730,15035C23150,14864 22294,14668 21830,14601C20909,14467 20055,14399 19655,14429C19501,14440 19341,14474 19315,14501C19308,14509 19244,14625 19174,14760C18983,15129 18900,15277 18635,15720C18390,16131 18290,16308 18204,16481L18157,16578L18216,16660C18295,16771 18416,16905 18538,17017C18593,17068 18698,17167 18772,17236C19091,17539 19684,18008 20225,18385C21048,18960 21697,19444 21946,19671C22194,19898 22483,20175 22586,20287C22774,20490 23192,20957 23291,21076C23481,21303 23941,21939 24164,22283C24500,22801 24719,23274 24961,24003C25172,24637 25189,24715 25117,24696C25085,24688 25080,24678 24934,24285C24442,22959 24327,22728 23745,21905C23570,21657 23280,21268 23185,21155C23149,21111 22975,20916 22800,20720C22442,20321 22172,20048 21829,19739C21580,19516 20935,19036 20225,18545C19981,18376 19543,18056 19399,17940C19125,17721 18797,17425 18551,17177C18288,16912 18224,16840 18154,16731C18133,16697 18113,16670 18110,16670C18107,16670 18073,16734 18033,16813C17994,16891 17871,17124 17760,17330C17517,17782 17386,18047 17121,18618L16920,19052L16920,19123C16920,19287 16962,19781 16996,20025C17095,20739 17272,21452 17678,22775C17766,23061 17884,23450 17940,23640C18170,24420 18590,25799 18687,26095C18764,26329 18883,26662 19005,26985C19140,27342 19360,27968 19360,27995C19360,28029 19346,28033 19323,28007C19294,27976 19273,27932 19182,27710C19138,27603 19071,27443 19032,27355C18847,26934 18648,26391 18472,25825C18320,25340 18000,24283 17851,23780C17774,23519 17636,23062 17545,22765C17258,21834 17101,21260 16994,20753C16891,20264 16852,19950 16824,19410L16817,19275L16769,19375C16695,19528 16548,19875 16475,20070C16278,20592 15948,21557 15856,21876C15763,22203 15554,23114 15402,23860L15315,24285L15316,24450C15317,24660 15355,24933 15426,25245C15463,25407 15597,25904 15716,26319C15820,26680 15834,26755 15801,26755C15775,26755 15741,26666 15595,26224C15411,25668 15319,25307 15260,24906C15249,24835 15239,24775 15237,24773C15231,24768 15184,25069 15156,25290C15071,25957 15020,26783 15020,27478L15020,27811L15056,27953C15186,28473 15338,28920 15542,29384C15788,29943 15839,30101 15970,30715C16102,31333 16117,31431 16083,31465C16067,31481 16065,31481 16049,31461C16039,31449 16011,31353 15985,31247C15738,30229 15676,30025 15445,29495C15289,29137 15185,28847 15075,28465C15050,28377 15027,28301 15025,28295C15018,28281 15028,28806 15040,29115C15066,29763 15121,30411 15210,31098C15230,31248 15236,31403 15224,31434C15214,31460 15190,31452 15175,31418C15150,31355 15061,30913 15021,30645C14913,29927 14874,29366 14850,28210C14844,27921 14838,27651 14837,27610C14835,27544 14830,27567 14797,27805C14707,28432 14633,28826 14510,29325C14392,29806 14373,29924 14340,30405C14329,30570 14315,30720 14309,30738C14297,30775 14276,30780 14259,30748C14238,30708 14266,29943 14296,29735C14304,29680 14343,29498 14384,29330C14520,28769 14577,28465 14675,27770C14723,27434 14783,27078 14820,26917C14844,26811 14852,26749 14860,26581C14892,25928 14958,25245 15030,24821C15041,24758 15048,24705 15047,24703C15045,24702 15018,24751 14986,24813C14905,24969 14823,25106 14732,25235C14612,25405 14149,26025 14001,26215C13849,26410 13713,26610 13610,26790C13471,27034 13266,27460 13162,27722C13061,27974 12950,28289 12950,28322C12950,28348 12931,28354 12908,28333C12890,28317 12888,28307 12893,28250C12909,28074 13162,27385 13350,27010C13530,26649 13645,26465 13861,26190C13928,26105 14089,25893 14219,25720C14350,25547 14498,25351 14549,25286C14674,25125 14773,24974 14870,24795C14916,24713 14988,24581 15031,24502L15110,24360L15170,24037C15263,23548 15420,22804 15541,22280C15658,21779 15754,21465 16063,20590C16281,19968 16405,19650 16575,19275C16617,19182 16654,19098 16658,19090C16661,19082 16631,19106 16591,19143C16417,19306 16118,19496 15725,19692C15513,19798 15356,19867 15036,19992C14498,20202 14314,20264 13395,20540C12567,20789 12395,20848 12068,21001C11824,21114 11464,21304 11285,21414C11253,21434 11221,21449 11215,21447C11178,21434 11216,21351 11283,21298C11397,21209 11934,20914 12225,20781C12433,20687 12659,20611 13215,20449C14152,20176 14510,20057 15125,19815C15455,19685 15722,19561 16015,19402C16370,19210 16708,18934 16790,18770C16808,18734 16828,18698 16835,18690C16842,18682 16896,18569 16953,18440C17176,17941 17300,17684 17563,17179C17681,16951 17815,16690 17861,16599L17943,16433L17910,16384C17830,16267 17637,16029 17569,15965C17384,15790 16991,15484 16745,15324C16650,15263 16400,15122 16205,15020C16128,14980 15937,14878 15780,14794C15623,14710 15429,14614 15348,14580L15201,14519L15148,14554C15081,14598 15016,14619 14814,14664C14499,14734 14247,14773 14105,14774C13958,14774 13896,14761 13770,14702C13710,14675 13679,14651 13617,14586C13474,14439 13385,14279 13358,14121C13343,14035 13361,13939 13413,13828C13506,13630 13661,13503 13840,13481C14154,13441 14740,13687 15028,13979C15149,14101 15246,14260 15258,14356L15265,14411L15370,14451C15503,14500 15622,14558 15825,14669C15913,14718 16086,14810 16210,14875C16688,15125 16867,15234 17165,15457C17338,15586 17565,15784 17671,15897C17736,15966 17831,16087 17943,16243L17999,16322L18036,16248C18096,16128 18256,15844 18448,15517C18667,15145 18741,15009 18901,14689L19023,14443L18990,14359C18906,14150 18775,13935 18550,13635C18441,13490 18165,13180 17895,12900C17797,12798 17676,12668 17627,12611C17549,12520 17204,12090 16879,11679C16769,11540 16627,11375 16408,11134C16234,10941 15992,10718 15754,10528C15258,10134 15058,9972 14875,9815C14673,9642 14378,9404 14220,9288C14083,9188 13788,9010 13599,8915C13340,8784 13257,8749 13005,8663C12884,8622 12780,8584 12773,8578C12754,8562 12757,8532 12780,8520C12796,8511 12832,8515 12933,8535C13208,8589 13289,8618 13621,8777C14053,8985 14422,9242 14945,9700C15145,9875 15560,10212 15770,10370C16000,10543 16273,10785 16436,10961C16625,11164 16879,11464 17050,11685C17223,11908 17651,12439 17735,12535C17773,12579 17899,12712 18015,12830C18600,13427 18899,13816 19060,14187C19097,14273 19106,14286 19116,14272C19173,14188 19578,13392 19765,12995C19835,12847 19917,12678 19948,12621C19998,12526 20004,12509 20008,12440C20024,12165 19871,11595 19629,11022C19547,10830 19321,10377 19231,10227C19091,9993 18874,9683 18566,9280C18312,8946 18243,8866 18058,8684C17932,8561 17828,8466 17361,8050C17303,7998 17210,7919 17155,7876C17100,7832 16956,7717 16835,7620C16629,7455 16461,7331 16192,7146C16130,7103 16072,7057 16063,7043C16047,7019 16047,7017 16065,7004C16089,6987 16098,6987 16148,7004C16265,7045 16728,7339 17000,7544C17295,7766 17389,7842 17604,8035C17703,8123 17867,8268 17969,8356C18278,8625 18412,8771 18771,9230C19196,9774 19377,10048 19606,10495C19789,10853 19904,11122 20014,11453C20101,11712 20180,12050 20180,12158C20180,12212 20193,12191 20254,12034C20346,11795 20366,11713 20390,11469C20400,11369 20399,11313 20381,11074C20370,10920 20353,10689 20345,10560C20293,9751 20238,9560 19887,8975C19595,8489 19363,8202 19085,7985C18971,7895 18506,7571 18378,7490C18264,7419 18020,7295 17865,7230C17560,7101 16937,6906 16605,6836C16407,6795 15974,6730 15590,6685C15472,6671 15251,6644 15100,6625C14798,6587 14367,6547 14312,6552C14279,6555 14282,6558 14416,6646C14581,6754 14634,6785 14886,6918C15335,7154 15831,7467 16100,7685C16237,7795 16798,8337 16931,8487C17271,8869 17495,9257 17625,9684C17676,9855 17693,9958 17693,10100C17693,10353 17613,10513 17445,10592C17375,10625 17374,10625 17230,10624C17102,10624 17074,10620 16995,10596C16809,10540 16547,10393 16371,10246C16164,10073 15796,9639 15329,9015C15083,8686 14988,8569 14789,8353C14530,8072 14250,7812 13940,7563C13669,7345 13468,7224 13229,7136C12920,7022 12781,7009 12459,7065C12208,7109 12004,7179 11744,7311C11408,7482 11316,7569 10786,8215C10487,8578 10349,8763 10190,9008C9846,9539 9786,9623 9605,9828C9424,10034 9401,10062 9341,10140C9309,10181 9271,10235 9255,10259L9228,10303L9336,10297C9544,10285 10030,10191 10645,10045C11271,9896 11388,9875 11835,9831C12532,9762 12960,9791 13358,9934C13523,9994 14003,10195 14155,10269C14329,10353 14768,10594 14875,10664C14997,10744 15096,10828 15218,10954C15440,11186 15564,11362 15622,11531C15651,11616 15654,11636 15654,11745C15655,11837 15651,11878 15636,11920C15601,12025 15557,12093 15470,12181C15277,12376 15063,12444 14716,12420C14494,12405 14332,12375 14062,12299C13965,12272 13795,12224 13685,12194C13575,12163 13246,12060 12954,11965C12253,11735 12211,11723 11680,11610C11193,11506 10977,11484 10495,11493C10102,11501 9923,11521 9661,11590C9243,11700 8960,11909 8727,12283C8560,12548 8499,12878 8521,13385C8526,13501 8539,13717 8551,13865C8592,14391 8569,14643 8404,15434C8285,16004 8257,16235 8256,16635C8256,16843 8260,16929 8273,17009C8308,17222 8362,17363 8427,17406C8491,17449 8621,17444 8750,17393C8856,17351 9266,17142 9540,16990C9897,16791 10007,16734 10230,16632C10698,16417 10983,16323 11524,16205C12153,16068 12387,16055 13050,16116C13578,16164 14035,16287 14320,16456C14612,16630 14727,16815 14691,17051C14675,17151 14632,17274 14580,17365C14414,17654 14127,17831 13290,18159C12686,18395 12106,18653 11480,18963C10976,19213 10847,19287 10616,19459C10386,19630 10293,19734 10199,19924C10043,20243 10048,20436 10231,21220C10264,21360 10334,21669 10386,21905C10523,22523 10592,22791 10717,23175C10801,23435 10910,23677 10976,23750C11008,23785 11018,23790 11055,23790C11140,23790 11280,23678 11615,23344C11969,22990 12122,22873 12605,22583C12941,22381 13102,22301 13390,22195C13665,22094 13863,22050 14040,22050C14433,22050 14702,22225 14799,22545C14832,22655 14833,22856 14801,23010C14711,23443 14421,23937 13911,24525C13688,24783 13028,25418 12798,25595C12422,25885 12192,26093 11982,26332C11664,26695 11639,26820 11794,27280C11881,27540 12001,27809 12273,28350C12393,28589 12539,28886 12597,29010C12762,29365 12828,29477 12925,29569C12972,29613 12984,29620 13020,29620C13042,29620 13076,29613 13096,29605C13149,29583 13352,29379 13549,29150C13912,28727 14030,28639 14153,28699C14216,28729 14244,28784 14237,28860C14232,28919 14194,29006 13887,29660C13702,30055 13655,30218 13663,30435C13668,30575 13691,30650 13784,30826C13902,31048 14182,31426 14525,31825C14808,32153 14875,32243 14980,32429C15072,32591 15225,32950 15315,33212L15362,33350L15391,33329C15406,33318 15524,33200 15652,33067ZM14170,14495C14211,14488 14335,14465 14445,14445C14864,14369 14925,14357 14935,14349C14940,14344 14954,14340 14965,14340C14977,14340 14990,14337 14993,14334C15003,14324 14945,14221 14896,14161C14743,13975 14348,13766 14050,13714C13931,13694 13855,13700 13788,13737C13730,13769 13649,13855 13618,13918C13598,13961 13598,13964 13613,14044C13625,14104 13648,14162 13700,14268C13740,14346 13781,14420 13793,14430C13816,14452 13904,14487 13965,14500C14026,14512 14087,14511 14170,14495Z" style="fill-rule:nonzero;"/><path fill="#F5F5FA" d="M17165,25227C17042,25195 16942,25130 16788,24981C16622,24822 16551,24702 16531,24545C16511,24385 16507,24064 16524,23950C16557,23731 16659,23622 16797,23659C16875,23680 16921,23738 17245,24221C17566,24699 17632,25111 17403,25212C17349,25236 17229,25243 17165,25227ZM17287,24973C17305,24928 17235,24698 17155,24540C17072,24375 16772,23920 16760,23941C16732,23991 16703,24410 16721,24506C16739,24605 16785,24677 16900,24790C17043,24930 17142,24989 17238,24990C17269,24990 17282,24985 17287,24973Z" style="fill-rule:nonzero;"/></g></g><g id="converted-39.svg1" serif:id="converted 39.svg"></g></g></svg>