<?xml version="1.0" encoding="UTF-8" standalone="no"?><!DOCTYPE svg PUBLIC "-//W3C//DTD SVG 1.1//EN" "http://www.w3.org/Graphics/SVG/1.1/DTD/svg11.dtd"><svg width="3000px" height="3000px" version="1.1" xmlns="http://www.w3.org/2000/svg" xmlns:xlink="http://www.w3.org/1999/xlink" xml:space="preserve" xmlns:serif="http://www.serif.com/" style="fill-rule:evenodd;clip-rule:evenodd;stroke-linejoin:round;stroke-miterlimit:2;"><g transform="matrix(0.7315,0,0,0.7315,1500,1463)"><g id="converted-85.svg" serif:id="converted 85.svg" transform="matrix(1,0,0,1,-2000,-2000)"><g transform="matrix(0.1,0,0,-0.1,0,4000)"><path fill="#F5F5FA" d="M19082,37423C19013,37389 18973,37299 18985,37207C18989,37180 19012,37083 19036,36991C19202,36363 19227,36244 19255,35955C19298,35516 19282,35156 19200,34670C19117,34178 18932,33324 18730,32495C18467,31419 18323,30558 18290,29870C18277,29603 18277,28877 18290,28635C18333,27819 18478,26969 18687,26301C18734,26149 18837,25867 18943,25600C19093,25219 19186,25007 19400,24555C19656,24014 19723,23827 19830,23345C19878,23127 19926,22829 19976,22441C20083,21596 20144,21239 20345,20295C20621,18999 20663,18691 20755,17300C20785,16844 20810,16534 20850,16120C20866,15952 20886,15734 20895,15635C20904,15536 20928,15271 20950,15045C20972,14820 20999,14509 21010,14355C21021,14201 21044,13902 21060,13690C21076,13478 21097,13186 21105,13040C21114,12894 21127,12706 21135,12621C21159,12365 21167,12337 20990,13160C20919,13493 20831,13898 20795,14060C20552,15151 20435,15789 20373,16375C20345,16636 20348,17226 20378,17580C20458,18515 20406,19100 20178,19800C20110,20009 20060,20132 19870,20561C19659,21036 19591,21210 19420,21710C19174,22431 19085,22650 18920,22951C18735,23286 18624,23420 18167,23854C17903,24104 17743,24295 17513,24631C17213,25070 17056,25350 16805,25900C16452,26673 16169,27151 15520,28075C15149,28604 15038,28779 14678,29409C14458,29793 14365,29944 14267,30075C14060,30352 13832,30595 13519,30873C13409,30971 13241,31138 13073,31317C12691,31724 12582,31854 12335,32200C12233,32342 12180,32400 12121,32429C12036,32473 11934,32446 11889,32366C11860,32317 11859,32258 11885,32070C11897,31973 11903,31810 11910,31350C11920,30631 11927,30522 12001,29895C12045,29523 12078,29287 12116,29081C12206,28591 12415,27917 12776,26954C12937,26524 13049,26277 13197,26028C13398,25689 13520,25521 14353,24447C14683,24020 14929,23562 15160,22940C15198,22838 15277,22627 15335,22470C15514,21989 15663,21659 15934,21140C16369,20311 16505,20113 17029,19557C17258,19313 17301,19264 17505,19005C17686,18774 17732,18718 18020,18380C18508,17807 18593,17691 18917,17161C19172,16745 19260,16610 19435,16370C19651,16074 19742,15934 19848,15734C20009,15430 20126,15158 20245,14810C20324,14579 20386,14311 20745,12655C20786,12463 20832,12253 20846,12190C20980,11585 21057,11179 21144,10610C21207,10201 21256,9669 21310,8800C21321,8621 21337,8376 21345,8255C21353,8134 21366,7896 21375,7725C21383,7555 21399,7248 21411,7043C21429,6727 21431,6566 21415,6582C21413,6584 21404,6709 21395,6860C21332,7960 21232,8688 21024,9555C20901,10067 20717,10767 20625,11075C20446,11674 20307,12019 19939,12775C19618,13433 19435,13774 19170,14205C18881,14674 18712,14970 18355,15635C18252,15828 18090,16129 17995,16305C17759,16743 17620,17011 17445,17370C17065,18149 16963,18336 16603,18908C16222,19515 16060,19750 15860,19986C15745,20121 14981,20886 14845,21001C14566,21239 14168,21538 13840,21757C13528,21965 13239,22126 12670,22409C12148,22669 11976,22751 11490,22970C11443,22991 11306,23053 11185,23108C10828,23270 10440,23429 9980,23603C9360,23837 8815,23938 8325,23911C8226,23905 7848,23891 7485,23881C6732,23858 6646,23854 6579,23834C6462,23799 6408,23694 6459,23600C6491,23539 6554,23507 6793,23429C7039,23348 7097,23327 7445,23185C7925,22990 8039,22937 8270,22798C8588,22606 8827,22435 9240,22105C9536,21868 9664,21773 9786,21699C10027,21554 10311,21468 10789,21395C11152,21340 11310,21278 11489,21121C11525,21090 11685,20946 11844,20801C12195,20482 12285,20406 12412,20323C12624,20184 12817,20112 13156,20045C13420,19993 13532,19964 13683,19909C14038,19778 14403,19547 14615,19317C14757,19164 14851,19021 15071,18620C15208,18369 15300,18220 15466,17980C15890,17364 16112,17014 16239,16760C16320,16597 16353,16519 16505,16125C16633,15793 16731,15595 16977,15171C17046,15052 17154,14861 17217,14745C17456,14309 17618,14061 17920,13665C17978,13588 18132,13377 18260,13195C18592,12725 18677,12620 19011,12260C19429,11809 19591,11590 19828,11155C19965,10903 20080,10644 20233,10245C20556,9404 20589,9300 20744,8623C20846,8181 20898,7909 20920,7710C20939,7530 21010,6968 21021,6905C21026,6872 21045,6800 21061,6745C21092,6643 21100,6568 21115,6280C21119,6206 21120,6147 21117,6150C21115,6153 21080,6265 21041,6400C20958,6684 20429,8282 20336,8528C20184,8933 20062,9187 19850,9550C19777,9674 19628,9933 19517,10125C19184,10708 19147,10767 18788,11310C18670,11489 18507,11741 18425,11870C18130,12338 18025,12485 17661,12935C17306,13374 17183,13537 16830,14035C16729,14178 16598,14363 16540,14445C16371,14683 16227,14903 16035,15215C15780,15630 15654,15812 15420,16105C15367,16171 15232,16342 15120,16485C14737,16973 14600,17129 14259,17466C13557,18159 13135,18501 12498,18893C12120,19125 11853,19257 11280,19493C10431,19842 9855,20007 8875,20180C8716,20208 8439,20260 8260,20295C7875,20371 7620,20416 7260,20469C6633,20563 6531,20569 5395,20581C3919,20597 3025,20585 2505,20540C2351,20527 2292,20501 2259,20434C2221,20355 2250,20271 2328,20231C2349,20221 2410,20202 2465,20190C2520,20178 2657,20139 2770,20103C2883,20068 3085,20010 3220,19974C3354,19938 3590,19870 3745,19824C3899,19778 4147,19711 4295,19674C4621,19595 4857,19530 5090,19455C5186,19424 5416,19352 5600,19295C5999,19171 6061,19150 6515,18985C6949,18828 7120,18759 7325,18661C7614,18522 7785,18415 8116,18165C8558,17831 8820,17617 9115,17350C9376,17113 9769,16780 10174,16452C10495,16192 10971,15964 11522,15806C11675,15762 11961,15695 12228,15640C12832,15515 13129,15416 13563,15198C13890,15033 14131,14866 14546,14516C14650,14429 14956,14192 15226,13989C15496,13786 15800,13551 15901,13467C16002,13382 16250,13191 16452,13042C16868,12735 16933,12684 17185,12470C17680,12049 18049,11677 18301,11344C18434,11167 18788,10632 18953,10358C19141,10046 19558,9320 19665,9120C19849,8772 19947,8527 20195,7790C20279,7540 20404,7175 20473,6980C20680,6391 20858,5834 20960,5455C21038,5165 21092,4975 21136,4836C21155,4776 21168,4725 21166,4723C21164,4720 21149,4740 21134,4767C21012,4982 20893,5160 20624,5532C20526,5667 20386,5863 20313,5967C19974,6450 19809,6634 18906,7535C18225,8214 18228,8211 17871,8695C17507,9188 17394,9324 17089,9629C16735,9983 16484,10190 16205,10360C15667,10689 15198,10869 14675,10947C14503,10972 14044,10972 13880,10947C13238,10845 12755,10645 12397,10332C12209,10167 12075,9996 11744,9500C11404,8988 11346,8914 10980,8530C10734,8272 10635,8158 10504,7983C10274,7677 10122,7388 10005,7035C9825,6493 9828,5924 10015,5460C10142,5145 10500,4539 10748,4221C10842,4101 11001,3914 11115,3790C11277,3615 11560,3331 11603,3302C11696,3238 11774,3237 11841,3297C11914,3363 11916,3429 11849,3562C11748,3763 11666,4110 11624,4520C11603,4732 11594,5335 11609,5566C11638,6002 11719,6412 11836,6713C11989,7106 12305,7620 12608,7972C12807,8202 13069,8400 13387,8563C13636,8689 13787,8735 14034,8759C14173,8773 14447,8773 14581,8760C15017,8717 15491,8575 15965,8346C16162,8250 16235,8210 16580,8005C17269,7596 17688,7383 18160,7204C18530,7064 19076,6799 19228,6685C19358,6587 19735,6163 19961,5860C20140,5620 20418,5250 20540,5090C20677,4912 20815,4706 20909,4540C20999,4382 21326,3744 21346,3688C21354,3664 21388,3499 21420,3320C21486,2960 21500,2899 21535,2823C21581,2722 21642,2719 21690,2815C21714,2863 21715,2873 21718,3095C21720,3233 21715,3415 21706,3550C21682,3906 21677,4124 21690,4220C21737,4567 21941,5266 22167,5855C22290,6175 22470,6597 22629,6940C22862,7442 23272,8117 23565,8483C23772,8741 24056,8983 24293,9102C24414,9162 24734,9286 24846,9315C25173,9400 25544,9423 25740,9371C25982,9307 26261,9180 26773,8904C27334,8600 27693,8449 28107,8345C28385,8276 28701,8250 29052,8268C29341,8283 29442,8302 29915,8424C30299,8523 30536,8560 30790,8560C31130,8560 31468,8490 31725,8365C31924,8269 32271,8025 32431,7869C32624,7681 32753,7445 32855,7096C32926,6850 32961,6628 32980,6300C32993,6056 33006,5926 33020,5877C33034,5830 33094,5762 33137,5743C33222,5708 33326,5740 33389,5820C33455,5903 33572,6149 33710,6495C33923,7027 34004,7346 34030,7746C34056,8164 33978,8485 33789,8741C33630,8954 33470,9064 33078,9226C32737,9367 32594,9440 32205,9669C31977,9804 31582,10003 31375,10087C30945,10262 30762,10293 30158,10292C29737,10291 29518,10280 29125,10242C28889,10220 28796,10216 28530,10216C28198,10216 28027,10231 27780,10281C27508,10337 27402,10375 26990,10565C26537,10774 26306,10863 26085,10912C25948,10942 25649,10945 25520,10917C25212,10850 24895,10691 24610,10462C24425,10313 24087,9960 23839,9655C23552,9304 23209,8769 22850,8116C22556,7578 22124,6637 21876,5990C21796,5782 21787,5765 21795,5840C21805,5934 21877,6357 21914,6538C22017,7043 22270,7881 22577,8730C22830,9430 22965,9675 23465,10345C23917,10949 24063,11108 24705,11686C25293,12216 25395,12333 25887,13040C26019,13230 26239,13554 26377,13760C26663,14188 26891,14516 27058,14740C27272,15028 27381,15156 27815,15630C27958,15787 28152,16001 28247,16105C28595,16491 28901,16771 29463,17218C29837,17515 30107,17689 30444,17850C30615,17932 31080,18123 31244,18179C31453,18251 31853,18342 32125,18379C32668,18454 32971,18449 33715,18350C33887,18327 34015,18325 34074,18342C34130,18359 34195,18426 34210,18482C34226,18540 34216,18607 34182,18655C34144,18711 34070,18746 33935,18771C33875,18782 33724,18815 33600,18845C33476,18875 33296,18913 33200,18930C33104,18947 32908,18983 32765,19010C32384,19081 32219,19105 31775,19155C30540,19292 29686,19283 29000,19125C28491,19008 27724,18714 27295,18472C26957,18282 26341,17807 25926,17417C25585,17096 25189,16627 24863,16155C24625,15811 24222,15184 24033,14865C23755,14394 23508,13948 23132,13240C22813,12640 22680,12373 22587,12155C22233,11322 22140,10972 21920,9655C21753,8652 21653,8070 21648,8065C21645,8062 21640,8153 21636,8267C21626,8594 21601,9168 21589,9365C21575,9612 21588,9832 21695,11135C21755,11859 21776,12041 21841,12420C21926,12916 22045,13298 22230,13675C22382,13985 22851,14736 23087,15047C23251,15265 23387,15419 23758,15809C24019,16083 24123,16201 24437,16579C24733,16933 24784,16992 25299,17565C26034,18382 26042,18390 26625,18830C26752,18926 26943,19073 27050,19158C27250,19315 27460,19467 27845,19731C28248,20008 28456,20173 28777,20472C29272,20932 29651,21405 30102,22125C30323,22478 30417,22648 30670,23145C30923,23643 31067,23905 31228,24160C31534,24646 31894,25055 32218,25287C32397,25415 32573,25507 32940,25665C33571,25936 33982,26075 34435,26169C34736,26232 34761,26238 34797,26262C34899,26333 34896,26486 34789,26552C34722,26594 34393,26662 34163,26681C33971,26697 33190,26687 33012,26666C32572,26615 32188,26546 31755,26440C31073,26274 30620,26066 29890,25585C29382,25251 29063,24972 28694,24542C28392,24189 28193,23908 27556,22933C27201,22391 26934,22011 26775,21825C26549,21559 25976,21021 25305,20445C24698,19923 24407,19627 24103,19223C23837,18870 23540,18389 23341,17990C23234,17774 23174,17637 22950,17100C22764,16653 22685,16476 22469,16018C22285,15628 22207,15451 22129,15242C21911,14661 21759,14055 21596,13125L21582,13045L21581,13135C21579,13376 21657,14855 21705,15485C21755,16129 21773,16299 21831,16670C21910,17178 22091,17928 22265,18470C22431,18988 22569,19307 22966,20085C23778,21677 24115,22397 24518,23400C24828,24173 25087,24980 25265,25728C25444,26480 25544,27416 25526,28155C25519,28409 25512,28544 25471,29115C25445,29471 25431,29826 25424,30355C25415,30913 25426,31167 25495,32080C25549,32783 25560,32986 25560,33245C25560,33553 25535,33891 25479,34325C25441,34625 25310,35465 25295,35506C25286,35528 25266,35560 25249,35576C25222,35602 25212,35605 25155,35605C25096,35605 25089,35602 25056,35571C25015,35531 25003,35497 24959,35305C24899,35038 24738,34527 24635,34277C24517,33988 24398,33745 24106,33191C24005,33001 23843,32690 23745,32500C23525,32074 23465,31961 23232,31545C22746,30679 22497,30187 22314,29733C21967,28876 21749,28019 21606,26950C21577,26732 21547,26440 21485,25750C21397,24775 21364,24503 21226,23620C21067,22608 21016,22048 21039,21577C21055,21260 21085,20907 21120,20650C21231,19823 21251,19693 21340,19205C21480,18433 21530,17959 21537,17339L21542,16922L21511,16724C21440,16263 21404,15875 21355,15005C21337,14692 21301,13713 21299,13500C21298,13420 21295,13324 21291,13285C21286,13226 21284,13244 21277,13395C21265,13681 21211,14768 21205,14845C21179,15175 21066,16863 21050,17155C20990,18250 20954,18661 20875,19188C20858,19299 20850,19393 20850,19484C20850,19558 20843,19811 20834,20047C20825,20291 20817,20733 20817,21075C20816,21622 20818,21695 20838,21905C20953,23111 20987,23533 21032,24290C21049,24578 21049,25493 21032,25710C21010,26001 20980,26280 20954,26455C20801,27482 20775,27750 20763,28430C20757,28805 20766,29126 20805,29890C20872,31195 20866,31805 20779,32745C20725,33330 20624,33890 20454,34550C20338,34999 20253,35276 20123,35630C20082,35743 19999,35970 19940,36135C19790,36554 19731,36699 19635,36895C19503,37164 19369,37352 19266,37410C19207,37445 19135,37450 19082,37423ZM19599,36209C19925,35313 20041,34944 20180,34361C20391,33474 20488,32714 20522,31675C20534,31310 20523,30606 20500,30200C20494,30109 20481,29884 20470,29700C20430,29028 20422,28592 20440,28140C20458,27692 20499,27272 20565,26850C20644,26347 20685,26023 20712,25695C20729,25483 20729,24547 20712,24220C20683,23664 20630,22936 20580,22415C20533,21922 20528,21845 20521,21470L20515,21115L20482,21297C20442,21516 20391,21853 20355,22130C20276,22744 20255,22893 20225,23075C20162,23455 20067,23846 19980,24090C19918,24262 19841,24445 19705,24740C19492,25203 19318,25629 19117,26185C18864,26883 18695,27791 18650,28689C18629,29117 18641,29860 18675,30189C18746,30873 18853,31446 19129,32610C19328,33451 19500,34307 19564,34777C19589,34957 19610,35250 19610,35413C19610,35678 19571,36134 19534,36313C19506,36451 19519,36428 19599,36209ZM25139,34599C25166,34418 25227,33797 25241,33569C25259,33278 25246,32959 25195,32435C25113,31596 25082,31153 25070,30683C25061,30286 25071,29455 25090,29170C25096,29079 25110,28875 25121,28716C25160,28137 25157,27724 25109,27205C25041,26456 24932,25885 24709,25106C24454,24215 24167,23440 23692,22355C23476,21861 23370,21640 22808,20515C22322,19542 22259,19405 22110,19010C22012,18751 21862,18286 21835,18163C21822,18101 21813,18121 21806,18223C21785,18525 21754,18763 21660,19330C21617,19591 21567,19918 21550,20055C21533,20193 21501,20436 21480,20595C21439,20897 21409,21201 21389,21500C21375,21715 21383,22184 21405,22400C21448,22832 21534,23497 21610,23985C21704,24593 21740,24918 21845,26105C21945,27233 22125,28156 22412,28998C22675,29774 22833,30108 23625,31570C23831,31951 24670,33603 24765,33815C24865,34041 24946,34248 25024,34485C25066,34612 25103,34721 25106,34729C25114,34754 25119,34735 25139,34599ZM12394,31565C12530,31391 12581,31331 12840,31050C13071,30800 13135,30736 13360,30539C13664,30272 13943,29958 14112,29695C14137,29656 14257,29452 14380,29240C14729,28638 14869,28413 15145,28015C15882,26948 16140,26512 16504,25717C16737,25210 16895,24926 17192,24483C17467,24073 17579,23938 17965,23555C18344,23178 18434,23067 18588,22785C18725,22535 18817,22307 19027,21690C19211,21150 19211,21152 19268,21005C19346,20804 19386,20711 19545,20360C19626,20181 19712,19988 19735,19930C19871,19598 19971,19222 20021,18856C20037,18736 20043,18631 20047,18350C20051,18026 20049,17966 20025,17660C19980,17099 19980,16673 20025,16256C20033,16184 20038,16125 20036,16123C20034,16121 20009,16156 19980,16202C19950,16248 19849,16393 19755,16525C19525,16847 19533,16834 19279,17255C18907,17875 18801,18020 18300,18605C18102,18836 17986,18978 17758,19270C17618,19449 17473,19613 17245,19850C16749,20365 16599,20592 16127,21535C15901,21988 15824,22168 15595,22785C15310,23553 15152,23899 14912,24285C14805,24457 14729,24562 14435,24945C13482,26186 13422,26287 13035,27325C12820,27900 12709,28231 12595,28625C12484,29014 12435,29254 12366,29760C12275,30421 12255,30698 12246,31395L12241,31765L12263,31735C12275,31719 12334,31642 12394,31565ZM33820,26383C33820,26378 33765,26356 33697,26334C33283,26193 32545,25884 32285,25743C32036,25607 31869,25479 31644,25256C31204,24817 30888,24338 30367,23323C30080,22765 29916,22480 29635,22055C29488,21834 29341,21629 29217,21476C28925,21115 28502,20688 28125,20375C27949,20228 27825,20137 27405,19845C27200,19703 27057,19596 26805,19395C26701,19312 26512,19165 26385,19068C25819,18636 25746,18565 24979,17705C24707,17400 24473,17125 24195,16785C24069,16631 23911,16442 23844,16365C23725,16228 23665,16163 23390,15869C22972,15423 22746,15115 22278,14351C22186,14200 22110,14082 22110,14089C22110,14135 22271,14703 22346,14921C22467,15276 22536,15432 22822,16005C23093,16546 23123,16611 23372,17190C23650,17837 23781,18094 24070,18555C24480,19211 24783,19550 25545,20210C26217,20792 26813,21355 27031,21615C27233,21856 27606,22390 27995,22995C28509,23794 28768,24152 29094,24517C29386,24844 29626,25048 30055,25337C30623,25718 31015,25914 31500,26058C32056,26224 32840,26363 33330,26383C33498,26390 33820,26389 33820,26383ZM8721,23580C9032,23549 9406,23460 9746,23337C10128,23198 10654,22981 11055,22798C11187,22737 11376,22650 11475,22605C11885,22417 12752,21991 13064,21823C13539,21568 14164,21137 14605,20759C14751,20634 15498,19890 15602,19765C15780,19552 15949,19307 16230,18855C16615,18237 16749,17989 17190,17076C17333,16780 17465,16524 17685,16115C17747,16000 17857,15790 17930,15650C18311,14917 18523,14540 18905,13915C19102,13593 19230,13358 19490,12840C19833,12155 19951,11901 20077,11570C20143,11398 20303,10919 20296,10913C20294,10911 20281,10933 20267,10962C19933,11665 19758,11926 19245,12490C18953,12812 18853,12937 18545,13375C18452,13507 18293,13725 18191,13859C17873,14282 17735,14490 17525,14865C17461,14981 17341,15188 17260,15325C16960,15833 16901,15958 16685,16545C16550,16908 16389,17198 15990,17795C15861,17988 15721,18197 15679,18260C15591,18393 15472,18596 15305,18899C15103,19266 15012,19398 14846,19569C14670,19750 14503,19877 14260,20017C13922,20212 13674,20303 13261,20386C12934,20452 12803,20498 12625,20614C12524,20680 12469,20725 12185,20980C11594,21509 11564,21531 11343,21622C11214,21674 11094,21702 10815,21744C10316,21819 10100,21890 9850,22061C9803,22093 9657,22203 9525,22306C9194,22565 9071,22655 8880,22783C8412,23097 8172,23217 7505,23471L7285,23555L7350,23561C7386,23565 7534,23569 7680,23570C7826,23571 8008,23576 8085,23579C8308,23591 8609,23591 8721,23580ZM4625,20245C6133,20226 6341,20219 6760,20175C7076,20141 7752,20027 8215,19930C8369,19897 8594,19853 8715,19830C9713,19644 10234,19501 10960,19210C11760,18890 12080,18728 12630,18365C13041,18094 13356,17830 13891,17314C14266,16952 14461,16734 14780,16325C14848,16237 14974,16078 15058,15972C15369,15580 15467,15440 15750,14980C15955,14647 16081,14458 16333,14105C16793,13462 16969,13226 17208,12927C17282,12835 17341,12757 17339,12755C17337,12753 17288,12792 17230,12842C17126,12931 16949,13070 16530,13391C16412,13481 16236,13623 16139,13707C15933,13884 15585,14164 15315,14369C15026,14589 14871,14712 14746,14819C14562,14977 14494,15031 14302,15169C14078,15329 13953,15404 13700,15531C13236,15762 12940,15858 12230,16005C11627,16130 11198,16273 10803,16480C10593,16590 10545,16626 10050,17034C9727,17300 9636,17378 9325,17655C9012,17934 8796,18109 8350,18447C8011,18703 7862,18799 7586,18937C7321,19070 7143,19142 6625,19325C6444,19389 6273,19449 6245,19459C6185,19481 6061,19519 5085,19812C4927,19859 4636,19932 4360,19994C4247,20020 4072,20063 3970,20090C3868,20118 3696,20163 3588,20192C3479,20220 3393,20246 3395,20251C3400,20258 3646,20257 4625,20245ZM30760,18940C31157,18923 32010,18841 32010,18820C32010,18816 31989,18809 31963,18805C31745,18774 31296,18672 31104,18609C30904,18544 30445,18358 30232,18254C29767,18029 29470,17819 28800,17245C28404,16906 28232,16738 27900,16370C27798,16258 27614,16057 27490,15925C26849,15239 26686,15033 25895,13905C24992,12617 24993,12618 24395,12065C24067,11762 23729,11426 23608,11285C23300,10922 22858,10330 22625,9965C22481,9740 22346,9473 22245,9212C22230,9173 22215,9142 22213,9144C22209,9147 22299,9703 22366,10090C22517,10966 22640,11391 22957,12135C23071,12402 23232,12716 23618,13425C23763,13692 24271,14579 24417,14820C24639,15187 25074,15856 25253,16105C25472,16409 25670,16649 25940,16939C26334,17364 27123,17998 27535,18222C27909,18425 28614,18701 29030,18805C29498,18923 30092,18969 30760,18940ZM14625,10616C14961,10566 15260,10469 15605,10300C16085,10065 16343,9877 16771,9450C17082,9139 17235,8959 17541,8542C17938,7999 17982,7945 18277,7653C18405,7525 18510,7418 18510,7415C18510,7413 18484,7422 18453,7436C18421,7450 18316,7493 18220,7533C17994,7625 17569,7836 17315,7982C17205,8045 16937,8204 16720,8335C16453,8497 16258,8606 16115,8676C15287,9080 14499,9220 13797,9089C13401,9016 12897,8734 12526,8380C12245,8110 11893,7601 11660,7125C11467,6730 11375,6400 11304,5840C11283,5672 11273,5003 11289,4761C11304,4543 11325,4344 11351,4177C11362,4107 11370,4044 11368,4038C11364,4026 11169,4247 11044,4406C10801,4715 10442,5314 10326,5603C10189,5945 10174,6373 10286,6808C10330,6979 10415,7201 10499,7365C10673,7702 10839,7917 11255,8350C11592,8701 11674,8805 12010,9310C12133,9494 12277,9704 12331,9777C12597,10131 12878,10331 13331,10484C13535,10553 13823,10615 14030,10634C14126,10642 14529,10630 14625,10616ZM26060,10562C26240,10514 26416,10444 26805,10265C27308,10034 27474,9978 27855,9916C28114,9873 28220,9865 28535,9866C28795,9866 28880,9870 29170,9898C29824,9960 30439,9967 30740,9915C30917,9885 31069,9832 31355,9698C31570,9598 31797,9476 32020,9340C32405,9105 32557,9028 32925,8881C33210,8767 33297,8720 33401,8622C33597,8438 33670,8214 33657,7832C33648,7551 33607,7323 33514,7037C33459,6868 33331,6519 33320,6506C33310,6496 33305,6525 33290,6680C33245,7126 33089,7600 32889,7900C32669,8229 32060,8679 31660,8809C31345,8911 31014,8958 30690,8947C30413,8937 30131,8887 29695,8770C29299,8664 29146,8645 28748,8653C28403,8659 28258,8684 27916,8796C27592,8903 27374,8999 26985,9210C26103,9686 25779,9795 25342,9762C25106,9744 24857,9697 24685,9638C24545,9590 24179,9427 24084,9370C24037,9342 23996,9321 23994,9323C23978,9339 24369,9787 24571,9985C24921,10327 25217,10503 25574,10580C25712,10610 25906,10603 26060,10562Z" style="fill-rule:nonzero;"/></g></g><g id="converted-85.svg1" serif:id="converted 85.svg"></g></g></svg>