<?xml version="1.0" encoding="UTF-8" standalone="no"?><!DOCTYPE svg PUBLIC "-//W3C//DTD SVG 1.1//EN" "http://www.w3.org/Graphics/SVG/1.1/DTD/svg11.dtd"><svg width="3000px" height="3000px" version="1.1" xmlns="http://www.w3.org/2000/svg" xmlns:xlink="http://www.w3.org/1999/xlink" xml:space="preserve" xmlns:serif="http://www.serif.com/" style="fill-rule:evenodd;clip-rule:evenodd;stroke-linejoin:round;stroke-miterlimit:2;"><g transform="matrix(0.81675,0,0,0.81675,1556.5,1500)"><g id="converted-78.svg" serif:id="converted 78.svg" transform="matrix(1,0,0,1,-2000,-2000)"><g transform="matrix(0.1,0,0,-0.1,0,4000)"><path fill="#65656A" d="M20482,34129C20208,34094 19936,33870 19704,33489C19544,33227 19426,32929 19214,32257C19142,32026 18984,31617 18913,31476C18894,31438 18827,31330 18765,31236C18415,30706 18121,30085 17673,28930C17531,28565 17198,27646 17081,27298C17034,27156 16993,27040 16990,27040C16987,27040 16973,27127 16958,27233C16925,27463 16890,27603 16806,27850C16722,28093 16513,28660 16448,28817L16397,28942L16409,29058C16415,29122 16425,29236 16430,29311C16444,29495 16445,29499 16576,30030C16746,30713 16771,30838 16777,31040C16781,31178 16778,31221 16762,31305C16722,31505 16649,31650 16524,31777C16461,31841 16426,31867 16369,31894C16159,31993 15942,31948 15752,31767C15536,31560 15430,31238 15459,30877C15508,30285 15658,29772 16080,28755C16155,28575 16217,28409 16229,28360C16254,28250 16266,28221 16295,28190C16321,28163 16439,27861 16513,27635C16610,27336 16649,27076 16681,26505C16687,26395 16698,26237 16705,26153C16712,26070 16715,25989 16713,25973C16710,25958 16691,25853 16669,25741C16424,24467 16280,22980 16280,21723C16280,21523 16277,21360 16273,21360C16268,21361 16235,21409 16198,21468C16062,21688 15641,22261 15361,22609C15130,22896 14933,23147 14887,23215C14865,23247 14831,23312 14813,23359C14778,23449 14651,23869 14626,23980C14596,24113 14589,24249 14580,24845C14575,25181 14566,25500 14561,25555C14544,25706 14513,25860 14479,25958C14366,26280 14136,26437 13891,26361C13808,26335 13744,26292 13667,26210C13447,25978 13371,25586 13461,25147C13510,24906 13627,24561 13754,24281C13976,23796 14380,23211 15014,22462C15319,22100 15665,21675 15808,21485C16071,21134 16180,20949 16255,20725L16292,20615L16311,20225C16338,19678 16383,19156 16446,18665C16506,18196 16614,17486 16701,16981C16727,16833 16731,16782 16717,16801C16715,16803 16690,16839 16660,16880C16573,17002 16442,17163 16104,17565C15771,17960 15405,18408 15363,18472C15338,18510 15335,18524 15300,18785C15259,19093 15250,19180 15240,19365C15218,19766 15209,19899 15194,20044C15145,20527 15024,20809 14818,20921C14757,20954 14751,20955 14645,20955C14539,20955 14533,20954 14472,20921C14348,20854 14258,20723 14208,20540C14176,20418 14175,20148 14208,19978C14311,19434 14662,18779 15215,18100C15271,18031 15342,17941 15372,17900C15402,17859 15438,17816 15450,17805C15463,17794 15564,17677 15675,17545C15786,17413 15968,17199 16079,17070C16427,16666 16510,16548 16814,16028C16901,15879 16916,15839 16955,15650C17192,14507 17434,13717 18045,12087C18131,11856 18199,11666 18197,11663C18194,11660 18150,11693 18098,11736C17974,11839 17901,11893 17654,12061C17410,12227 17255,12339 17000,12534C16768,12712 16712,12763 16676,12835C16637,12912 16549,13195 16494,13420C16426,13699 16390,13817 16268,14165C16109,14623 16023,14791 15870,14941C15813,14998 15772,15028 15714,15056C15638,15094 15632,15095 15530,15095C15440,15095 15418,15092 15377,15072C15137,14953 15088,14598 15247,14135C15361,13804 15624,13368 15929,13005C16038,12875 16246,12669 16386,12553C16647,12337 17086,12021 17447,11790C17588,11699 17747,11594 17800,11556C18002,11410 18265,11185 18405,11039C18476,10965 18491,10942 18534,10845C18706,10456 19069,9717 19361,9163C19901,8138 20123,7738 20399,7301C20439,7239 20469,7186 20467,7184C20465,7182 20435,7194 20399,7211C20306,7256 20198,7300 19900,7415C19571,7543 19128,7726 18993,7790C18869,7849 18809,7906 18746,8030C18721,8077 18670,8173 18632,8243C18593,8314 18502,8503 18429,8663C18286,8979 18238,9070 18121,9255C17888,9624 17648,9845 17406,9915C17233,9965 17052,9878 16971,9707C16835,9419 16930,9074 17256,8665C17610,8221 18267,7678 18733,7444C18956,7331 19468,7121 19843,6989C19996,6935 20179,6868 20248,6840C20493,6744 20823,6569 20917,6487C20960,6450 21061,6299 21410,5755C21922,4957 22134,4660 22495,4240C22647,4064 22687,4024 22850,3888C22908,3840 22996,3765 23046,3723C23096,3680 23158,3635 23182,3622C23305,3561 23437,3631 23427,3752C23424,3793 23408,3820 23303,3967C23237,4059 23149,4194 23106,4265C23064,4337 22973,4467 22904,4555C22492,5080 22262,5408 21880,6010C21812,6117 21577,6476 21358,6807C21139,7138 20949,7433 20936,7462C20856,7643 20751,8070 20656,8595C20550,9179 20483,9645 20435,10126C20398,10500 20399,10526 20444,10633C20515,10804 20590,10941 20668,11044C20693,11076 20777,11170 20855,11254C21025,11434 21080,11500 21147,11600C21286,11807 21370,12056 21389,12314C21399,12443 21388,12602 21365,12680C21323,12819 21235,12925 21113,12983C21049,13013 21038,13015 20935,13015C20830,13015 20821,13013 20756,12981C20671,12940 20552,12828 20486,12730C20266,12403 20111,11888 20069,11350C20054,11157 20054,10711 20069,10485C20105,9939 20210,9164 20325,8586C20339,8515 20349,8455 20346,8453C20339,8446 20326,8468 20067,8955C19325,10350 18843,11357 18811,11580C18775,11832 18747,12348 18755,12620C18777,13369 18854,14540 18891,14683C18903,14730 19094,15076 19172,15192C19266,15332 19367,15448 19644,15730C20015,16107 20131,16268 20254,16577C20353,16827 20361,17090 20274,17261C20192,17423 19988,17517 19800,17478C19694,17456 19622,17426 19537,17370C19301,17217 19107,16935 18916,16468C18695,15928 18576,15348 18505,14460C18497,14353 18486,14213 18480,14150C18461,13908 18429,13231 18422,12905L18415,12565L18351,12735C18127,13333 17873,14093 17746,14545C17620,14992 17393,16005 17403,16075C17405,16092 17425,16193 17448,16300C17471,16407 17532,16700 17584,16950C17669,17360 17682,17413 17719,17490C17741,17537 17768,17616 17779,17665C17865,18057 17954,18430 18007,18615C18035,18713 18156,18989 18251,19170C18400,19453 18585,19690 18948,20064C19158,20279 19268,20410 19369,20565C19608,20934 19644,21262 19462,21432C19399,21491 19322,21520 19226,21520C19047,21520 18863,21415 18645,21189C18318,20850 18117,20465 17910,19785C17855,19603 17603,18704 17542,18470C17458,18150 17347,17633 17270,17200C17253,17104 17236,17016 17231,17005C17220,16978 17213,17013 17130,17505C16915,18786 16813,19761 16784,20806L16777,21046L16809,21109C16861,21212 17145,21661 17701,22520C18130,23182 18255,23354 18415,23494C18460,23533 18536,23601 18586,23645C18689,23738 18837,23847 18995,23947C19115,24024 19187,24061 19355,24136C19548,24221 19708,24322 19927,24496C20043,24589 20247,24790 20314,24878C20442,25046 20500,25181 20508,25331C20514,25447 20501,25509 20452,25603C20352,25796 20128,25887 19881,25835C19502,25756 19063,25408 18752,24942C18619,24744 18541,24606 18265,24090C17995,23586 17949,23506 17673,23072C17577,22922 17434,22693 17354,22564C17274,22434 17156,22244 17091,22141C17027,22039 16930,21882 16876,21793C16823,21703 16774,21630 16768,21630C16755,21630 16763,22317 16780,22740C16816,23613 16901,24469 17036,25310C17078,25572 17087,25606 17155,25742C17257,25947 17422,26175 17701,26495C17813,26623 17845,26653 17960,26735C18180,26892 18462,27145 18588,27295C18763,27508 19035,27761 19175,27843C19294,27913 19588,28046 19750,28103C20391,28331 20708,28467 20908,28600C21018,28673 21178,28823 21265,28935C21434,29153 21497,29326 21488,29543C21481,29685 21457,29745 21371,29831C21297,29905 21238,29933 21114,29952C20941,29979 20698,29911 20464,29769C20129,29567 19751,29209 19355,28720C18916,28178 18660,27903 18315,27605C18078,27399 17959,27288 17847,27167C17720,27032 17500,26775 17382,26627C17329,26561 17294,26524 17292,26533C17284,26574 17461,27172 17641,27715C18057,28967 18385,29817 18691,30430C18882,30812 19201,31358 19273,31424C19296,31446 19362,31507 19420,31561C19566,31697 19574,31702 19865,31894C20588,32372 20856,32637 21072,33088C21206,33366 21220,33600 21115,33799C20994,34027 20736,34162 20482,34129ZM20586,33641C20645,33614 20674,33553 20661,33484C20635,33346 20497,33093 20349,32915C20258,32805 20050,32610 19823,32423L19718,32337L19684,32355L19651,32373L19674,32434C19806,32784 19992,33161 20128,33355C20236,33508 20364,33618 20469,33646C20531,33663 20538,33663 20586,33641ZM16176,31485C16210,31451 16255,31351 16280,31256C16325,31080 16301,30877 16171,30310C16149,30214 16119,30072 16105,29995C16090,29918 16076,29848 16073,29840C16054,29785 15912,30290 15853,30622C15818,30820 15813,31107 15843,31205C15912,31428 16086,31575 16176,31485ZM21000,29453C20999,29401 20962,29315 20905,29233C20837,29138 20679,28981 20593,28926C20496,28863 20252,28731 20155,28688C19850,28552 19661,28476 19652,28484C19640,28496 19964,28853 20102,28981C20393,29249 20681,29427 20905,29475C20999,29496 21000,29495 21000,29453ZM14013,25903C14087,25756 14111,25551 14130,24880C14136,24679 14143,24484 14146,24445L14151,24375L14119,24435C14041,24582 13915,24936 13860,25165C13780,25494 13809,25744 13943,25897C13978,25937 13995,25939 14013,25903ZM20030,25415C20056,25401 20060,25394 20060,25357C20060,25265 19969,25127 19796,24955C19593,24753 19413,24617 19218,24519C19036,24428 18835,24304 18710,24206C18685,24186 18873,24515 18973,24665C19209,25017 19549,25305 19840,25398C19948,25433 19989,25436 20030,25415ZM19175,21025C19130,20851 18996,20661 18715,20369C18632,20283 18517,20156 18460,20086C18402,20017 18354,19964 18352,19969C18347,19985 18460,20270 18512,20372C18603,20550 18718,20706 18878,20867C19006,20996 19163,21111 19182,21092C19187,21087 19183,21057 19175,21025ZM14680,20478C14743,20368 14787,20162 14820,19815C14839,19618 14860,19289 14855,19282C14849,19274 14814,19343 14760,19470C14604,19835 14540,20126 14570,20339C14583,20437 14615,20530 14636,20530C14643,20530 14663,20506 14680,20478ZM19894,17015C19917,16916 19859,16692 19764,16512C19666,16325 19632,16282 19354,15975C19254,15865 19144,15740 19110,15697C19076,15654 19046,15620 19044,15623C19038,15629 19106,15889 19152,16030C19270,16397 19464,16765 19625,16926C19705,17006 19804,17062 19860,17057C19880,17055 19886,17047 19894,17015ZM15628,14523C15692,14413 15737,14319 15815,14127C15894,13931 16033,13540 16026,13533C16020,13527 15904,13705 15836,13824C15722,14022 15646,14193 15605,14345C15577,14446 15560,14608 15577,14597C15583,14593 15606,14560 15628,14523ZM20939,12621C20967,12593 20974,12544 20967,12426C20957,12243 20886,12037 20779,11879C20756,11844 20666,11726 20581,11616C20437,11433 20425,11420 20422,11448C20418,11483 20461,11737 20491,11854C20576,12195 20743,12533 20869,12617C20910,12645 20915,12645 20939,12621ZM17415,9380C17488,9324 17634,9171 17706,9075C17835,8903 18089,8462 18078,8429C18073,8414 17771,8707 17671,8824C17546,8970 17463,9088 17409,9195C17351,9313 17326,9420 17357,9420C17360,9420 17387,9402 17415,9380Z" style="fill-rule:nonzero;"/></g></g><g id="converted-78.svg1" serif:id="converted 78.svg"></g></g></svg>