<?xml version="1.0" encoding="UTF-8" standalone="no"?><!DOCTYPE svg PUBLIC "-//W3C//DTD SVG 1.1//EN" "http://www.w3.org/Graphics/SVG/1.1/DTD/svg11.dtd"><svg width="3000px" height="3000px" version="1.1" xmlns="http://www.w3.org/2000/svg" xmlns:xlink="http://www.w3.org/1999/xlink" xml:space="preserve" xmlns:serif="http://www.serif.com/" style="fill-rule:evenodd;clip-rule:evenodd;stroke-linejoin:round;stroke-miterlimit:2;"><g transform="matrix(0.724,0,0,0.724,1552,1448)"><g id="converted-89.svg" serif:id="converted 89.svg" transform="matrix(1,0,0,1,-2000,-2000)"><g transform="matrix(0.1,0,0,-0.1,0,4000)"><path fill="#F5F5FA" d="M21340,37315C21332,37313 21291,37306 21250,37300C21209,37293 21126,37272 21067,37254C20940,37214 20926,37214 20697,37239C20603,37250 20486,37261 20438,37265C20200,37283 19990,37193 19792,36986C19427,36604 19371,36147 19627,35636C19682,35527 19731,35376 19759,35236C19780,35134 19780,35129 19763,35097C19748,35070 19745,35040 19746,34900C19747,34712 19737,34752 19895,34293C19997,33994 20023,33875 20024,33700C20024,33547 20009,33423 19960,33174C19925,32998 19916,32970 19850,32820C19767,32630 19687,32403 19659,32275C19648,32226 19637,32184 19636,32182C19634,32181 19550,32221 19449,32273C19236,32381 19140,32410 18970,32418C18780,32426 18677,32389 18510,32255C18458,32212 18394,32167 18368,32154C18343,32141 18239,32110 18139,32085C18028,32057 17928,32026 17885,32005C17777,31952 17672,31864 17592,31758C17554,31707 17489,31629 17448,31584C17268,31389 17194,31211 17220,31030C17239,30898 17303,30786 17428,30668C17506,30595 17571,30553 17723,30482C17779,30455 17870,30407 17925,30373C18032,30309 18148,30247 18193,30231C18215,30222 18220,30214 18220,30188C18220,30139 18242,30065 18282,29979C18314,29910 18346,29859 18476,29670C18578,29523 18651,29361 18684,29210C18700,29138 18700,29133 18681,29070C18670,29034 18651,28957 18640,28900C18629,28842 18599,28723 18574,28635C18519,28441 18488,28329 18461,28230C18431,28121 18336,27737 18300,27580C18233,27290 18077,26675 18005,26420C17992,26373 17963,26268 17940,26185C17817,25742 17565,24940 17548,24940C17544,24940 17540,24955 17540,24973C17540,25086 17480,25428 17415,25683C17282,26211 17139,26510 16859,26846C16617,27137 16414,27314 16108,27499C15951,27594 15407,27900 15245,27985C14725,28256 14648,28302 14495,28425C14380,28518 14251,28652 14215,28716C14199,28743 14143,28839 14090,28930C13985,29110 13957,29175 13935,29293C13905,29449 13921,29578 13989,29724C14027,29807 14053,29854 14193,30097C14252,30200 14292,30295 14319,30395C14327,30425 14359,30466 14446,30559C14645,30773 14741,30905 14830,31092C14952,31348 14999,31673 14945,31886C14908,32031 14815,32161 14707,32218C14661,32242 14644,32245 14565,32245C14492,32244 14467,32240 14434,32222C14388,32199 14339,32154 14299,32101L14274,32067L14227,32143C14144,32275 14031,32358 13881,32396C13833,32408 13783,32411 13681,32408C13548,32405 13541,32403 13390,32353C13305,32324 13186,32287 13125,32269C12926,32212 12804,32137 12740,32031C12717,31994 12712,31991 12685,31998C12669,32002 12624,32005 12587,32004C12441,32002 12279,31882 12166,31692C12108,31594 12070,31474 12070,31385C12070,31310 12100,31158 12131,31075C12192,30912 12305,30781 12495,30653C12680,30529 12732,30495 12776,30467C12813,30444 12818,30436 12824,30393C12855,30178 12937,30035 13169,29795C13293,29666 13421,29511 13592,29285C13690,29155 13699,29138 13728,29045C13837,28694 14143,28315 14512,28076C14559,28045 14712,27959 14852,27883C15155,27720 15193,27699 15188,27695C15186,27694 15158,27696 15125,27701C15092,27705 14982,27718 14880,27730C14324,27794 14130,27845 13685,28045C13589,28088 13495,28123 13470,28126C13356,28139 13279,28027 13333,27925C13353,27885 13482,27737 13586,27634C13834,27387 14060,27245 14362,27146C14636,27055 14780,27026 15235,26970C15690,26913 15857,26882 16090,26808C16274,26749 16363,26697 16659,26471C16909,26280 16920,26269 16975,26143C17115,25824 17249,25288 17281,24925C17301,24686 17286,24509 17194,23945C17128,23536 17105,23423 17034,23153C16842,22421 16780,22141 16596,21180C16508,20719 16485,20588 16451,20360C16440,20286 16420,20151 16406,20060C16392,19969 16374,19830 16365,19750C16356,19670 16342,19553 16334,19490C16325,19427 16312,19326 16304,19265C16296,19205 16274,19040 16255,18900C16204,18519 16080,17508 16080,17469C16080,17460 16037,17392 15984,17319C15534,16696 15315,16283 14838,15165C14500,14372 14213,13540 14044,12862C14029,12800 14013,12753 14010,12757C14006,12762 13998,12824 13991,12895C13979,13031 13949,13233 13881,13635C13802,14100 13785,14288 13793,14614C13796,14758 13805,14900 13815,14965C13833,15082 13830,15136 13803,15176C13753,15253 13618,15245 13577,15163C13549,15108 13438,14738 13386,14530C13268,14053 13241,13691 13281,13155C13299,12912 13322,12758 13429,12150C13554,11442 13614,10931 13625,10480C13635,10054 13650,9675 13660,9565C13704,9100 13743,8864 13830,8555C13851,8478 13889,8314 13915,8190C14086,7346 14410,6353 14685,5823C14847,5511 15268,4854 15537,4492C15665,4321 15759,4210 16064,3873L16112,3819L16100,3722C16094,3669 16064,3468 16035,3275C15990,2979 15968,2827 15924,2502C15921,2479 15918,2417 15918,2364C15918,2287 15921,2266 15935,2250C15972,2209 16035,2232 16069,2299C16093,2344 16143,2550 16215,2889C16320,3385 16357,3550 16363,3556C16366,3559 16426,3517 16498,3463C16570,3409 16716,3311 16822,3245C16928,3179 17050,3098 17095,3066C17313,2905 17396,2860 17481,2860C17565,2860 17592,2901 17551,2963C17514,3020 17200,3295 17010,3437C16903,3518 16770,3620 16715,3665C16607,3754 16450,3910 16450,3929C16450,3935 16459,3980 16470,4030C16599,4609 16683,5365 16711,6209C16729,6751 16698,7903 16645,8640C16637,8753 16628,8883 16625,8930C16612,9110 16578,9461 16534,9860C16482,10334 16481,10404 16525,10669C16568,10930 16619,11105 16731,11375C16790,11519 17103,12146 17328,12570C17578,13042 17675,13256 17782,13570C17877,13850 17953,14196 17982,14480C17999,14651 17999,15098 17982,15172C17951,15307 17857,15369 17756,15321C17689,15288 17669,15237 17625,14995C17572,14707 17539,14562 17473,14350C17369,14011 17254,13789 16908,13262C16718,12972 16634,12823 16550,12620C16489,12475 16382,12155 16350,12025C16312,11868 16311,11869 16280,12255C16232,12855 16215,13326 16224,13820C16246,15057 16284,15875 16360,16760C16392,17132 16421,17393 16432,17415C16465,17477 16793,17879 16971,18075C17241,18373 17954,19008 18336,19292C18614,19498 19310,19939 19550,20060C19637,20104 19939,20199 20135,20244C20326,20287 20626,20324 21000,20350C21215,20365 21569,20362 21848,20344C22023,20332 22160,20330 22320,20334C22538,20340 22548,20339 22637,20315C22753,20284 22796,20263 22962,20151C23126,20041 23208,19958 23285,19825C23317,19771 23362,19705 23385,19680C23408,19655 23460,19586 23500,19525C23677,19259 23956,18964 24152,18834C24255,18767 24393,18703 24490,18679C24561,18661 24594,18658 24705,18662C24817,18667 24844,18671 24903,18695C25042,18752 25127,18870 25117,18994C25114,19027 25109,19064 25106,19075C25100,19092 25107,19098 25146,19114C25244,19154 25363,19307 25429,19480C25499,19659 25507,19839 25460,20117C25397,20482 25360,20573 25239,20650L25189,20683L25209,20704C25241,20738 25270,20812 25270,20860C25270,20955 25200,21046 25022,21179C24861,21300 24755,21329 24591,21296C24418,21261 24275,21204 24148,21119C23984,21010 23740,20830 23678,20772L23642,20738L23523,20733C23390,20729 23306,20717 22975,20661C22849,20639 22698,20616 22640,20609C22501,20591 21979,20591 21695,20608C21389,20627 21090,20612 20616,20555C20506,20541 20414,20532 20412,20534C20410,20537 20419,20545 20432,20553C20460,20571 21008,20878 21335,21060C21630,21223 21941,21405 22120,21518C22360,21669 22465,21743 23275,22333C23615,22581 23798,22697 23929,22747C23976,22765 24038,22790 24065,22801C24208,22862 24217,22864 24315,22847C24462,22821 24580,22766 24800,22619C25127,22403 25296,22340 25523,22353C25605,22358 25638,22356 25658,22346C25704,22323 25859,22292 25995,22279C26179,22262 26661,22262 26780,22278C27168,22333 27421,22435 27571,22598C27665,22699 27695,22790 27666,22891C27631,23020 27537,23103 27403,23125C27379,23129 27360,23133 27360,23135C27360,23137 27395,23174 27438,23217C27593,23374 27669,23598 27626,23770C27572,23988 27388,24230 27064,24512C26841,24706 26796,24739 26685,24793C26530,24869 26472,24884 26340,24883C26236,24881 26096,24857 26020,24826C26007,24821 26005,24832 26004,24898C26003,25072 25904,25216 25740,25281C25699,25297 25656,25304 25569,25308C25425,25314 25328,25292 25190,25223C25026,25141 24916,25012 24860,24835C24840,24773 24837,24734 24830,24485C24820,24133 24785,23892 24736,23832C24723,23817 24658,23722 24590,23621C24470,23441 24382,23326 24288,23221C24238,23166 24219,23156 24045,23100C23828,23030 23511,22859 23250,22671C22337,22014 22056,21826 21575,21550C21396,21447 20790,21110 20784,21110C20782,21110 20805,21158 20834,21218C20899,21348 20948,21482 20995,21658C21074,21957 21152,22110 21392,22441C21451,22522 21522,22630 21551,22681C21595,22759 21629,22801 21755,22930C21935,23114 22045,23250 22185,23460C22421,23813 22490,24055 22425,24299C22388,24438 22307,24534 22201,24564C22153,24577 22137,24578 22089,24566C22057,24559 22011,24541 21985,24526C21959,24511 21937,24500 21936,24502C21935,24503 21921,24536 21905,24574C21884,24625 21860,24660 21816,24705C21670,24851 21468,24900 21010,24900C20778,24900 20714,24889 20586,24826C20479,24774 20395,24702 20344,24620L20308,24562L20259,24586C20106,24663 19899,24590 19775,24416C19498,24025 19657,23554 20183,23209C20280,23145 20296,23133 20363,23074L20409,23033L20395,22985C20376,22923 20376,22817 20395,22754C20414,22690 20469,22606 20554,22510C20674,22375 20732,22224 20760,21974L20773,21865L20737,21715C20686,21505 20658,21423 20590,21285C20516,21136 20433,21025 20282,20873C20152,20742 20205,20775 19610,20450C18848,20032 18262,19647 17835,19281C17163,18705 16824,18379 16527,18021C16512,18003 16497,17990 16493,17993C16487,18000 16508,18185 16605,18980C16630,19186 16669,19502 16690,19681C16768,20334 16814,20653 16841,20725C16867,20796 16996,21019 17100,21176C17218,21354 17359,21540 17563,21789C17833,22119 17976,22316 18240,22725C18584,23258 18707,23497 18829,23872C18899,24087 19129,24961 19149,25090C19176,25259 19151,25342 19063,25371C19035,25380 19020,25379 18985,25365C18916,25339 18907,25323 18695,24835C18527,24450 18423,24263 18199,23945C18032,23707 17902,23538 17710,23311C17435,22985 17346,22868 17260,22723C17237,22683 17216,22650 17213,22650C17206,22650 17214,22686 17291,22992C17420,23513 17604,24140 17857,24920C18032,25459 18070,25583 18150,25860C18273,26290 18283,26327 18361,26635L18434,26925L18521,27096C18666,27382 18769,27535 19024,27840C19292,28162 19401,28321 19531,28581C19648,28815 19731,29035 19810,29320C19847,29452 19846,29499 19806,29539C19774,29570 19709,29575 19669,29548C19655,29539 19615,29485 19582,29428C19511,29309 19473,29258 19179,28893C18984,28650 18888,28525 18806,28402C18790,28379 18775,28362 18773,28364C18771,28366 18780,28417 18794,28477C18807,28536 18837,28671 18859,28775C18894,28940 18906,28978 18950,29065C19014,29193 19094,29313 19290,29575C19524,29888 19601,30010 19669,30171C19690,30221 19723,30341 19735,30405C19739,30429 19799,30544 19883,30690C19960,30824 20052,30992 20088,31063C20165,31220 20198,31254 20305,31297C20400,31334 20641,31394 20759,31409C21066,31449 21368,31379 21614,31211C21726,31135 21783,31109 21850,31103C21919,31096 21983,31116 22020,31155L22042,31179L22129,31148C22241,31109 22300,31076 22438,30974C22555,30888 22651,30836 22755,30804C22845,30776 23039,30779 23140,30809C23248,30842 23321,30884 23390,30953C23504,31067 23562,31237 23546,31410L23540,31477L23586,31509C23722,31608 23823,31839 23805,32015C23776,32298 23661,32640 23507,32898C23377,33117 23228,33233 23050,33255L22995,33262L22995,33348C22995,33428 22992,33440 22961,33497C22899,33612 22765,33722 22641,33760C22399,33835 22071,33677 21844,33375C21774,33282 21532,32885 21474,32768C21429,32677 21426,32674 21361,32638C21221,32561 20981,32340 20783,32105C20686,31990 20588,31890 20470,31785C20440,31759 20376,31699 20328,31653C20280,31607 20238,31570 20233,31570C20229,31570 20224,31615 20223,31669C20222,31724 20216,31797 20210,31831C20177,32011 20061,32131 19904,32147C19874,32150 19850,32156 19850,32159C19850,32166 19995,32524 20060,32675C20137,32857 20278,33134 20342,33230C20415,33340 20536,33470 20630,33541C20705,33597 20892,33692 21030,33743C21367,33869 21587,33985 21721,34108C21760,34143 21798,34167 21846,34185C21884,34199 21956,34226 22006,34245C22185,34311 22369,34400 22601,34532C22876,34688 23099,34887 23218,35081C23267,35161 23313,35292 23330,35401C23343,35483 23333,35602 23305,35697C23286,35760 23230,35851 23155,35941C23079,36032 23033,36066 22964,36080L22910,36091L22910,36155C22910,36351 22834,36529 22652,36756C22515,36927 22386,37029 22206,37107C21879,37250 21487,37344 21340,37315ZM21529,37065C21661,37040 21981,36926 22161,36841C22245,36802 22375,36697 22445,36612C22640,36377 22720,36178 22690,35999C22678,35930 22675,35925 22573,35797C22337,35502 22136,35337 21766,35130C21657,35069 21542,34996 21492,34956L21406,34887L21390,34911C21310,35033 21189,35155 21099,35205L21045,35235L20855,35232C20682,35230 20659,35231 20595,35252C20498,35282 20499,35281 20516,35343C20565,35528 20599,35776 20610,36030C20615,36147 20624,36247 20633,36280C20678,36441 20765,36639 20843,36755C20897,36835 21003,36945 21065,36985C21195,37069 21359,37097 21529,37065ZM20613,37049C20680,37042 20737,37036 20739,37034C20741,37032 20723,37009 20700,36983C20593,36861 20494,36677 20420,36464C20370,36318 20350,36188 20350,36004C20350,35846 20333,35682 20297,35485L20275,35365L20207,35363C20169,35362 20110,35353 20077,35344C20043,35335 20009,35327 20001,35327C19992,35325 19976,35369 19949,35473C19927,35554 19884,35687 19851,35768C19754,36012 19738,36068 19733,36207C19727,36337 19736,36410 19772,36515C19824,36664 19960,36853 20085,36947C20226,37054 20334,37075 20613,37049ZM23051,35695C23118,35559 23101,35376 23008,35223C22934,35101 22718,34901 22535,34784C22308,34639 21814,34359 21807,34371C21806,34373 21796,34392 21786,34413C21757,34469 21704,34526 21641,34569C21584,34608 21510,34682 21510,34700C21510,34705 21523,34716 21538,34724C21553,34732 21598,34763 21636,34793C21675,34824 21753,34874 21811,34906C21868,34937 21956,34985 22005,35013C22291,35171 22587,35414 22758,35630C22800,35682 22856,35751 22883,35783L22933,35841L22977,35798C23001,35774 23035,35728 23051,35695ZM20423,35054C20624,34978 20699,34965 20864,34980C20966,34989 20976,34988 21006,34969C21064,34934 21144,34836 21199,34734C21312,34526 21373,34449 21486,34373C21562,34321 21571,34303 21533,34272C21452,34205 21239,34097 21025,34015C20677,33882 20536,33802 20374,33647L20261,33539L20267,33697C20276,33962 20235,34158 20071,34634C20027,34760 20000,34890 20000,34971C20000,35044 20043,35089 20140,35116C20202,35134 20231,35127 20423,35054ZM22586,33521C22608,33511 22644,33487 22665,33469C22705,33434 22760,33355 22760,33334C22760,33291 22682,33243 22418,33122C22170,33008 21879,32790 21788,32648C21771,32622 21755,32600 21752,32600C21750,32600 21728,32620 21703,32644L21658,32689L21846,32972C22002,33207 22049,33270 22125,33345C22285,33505 22468,33575 22586,33521ZM23082,33017C23179,32969 23262,32857 23376,32616C23434,32493 23516,32242 23536,32125C23556,32010 23551,31892 23523,31829C23496,31770 23439,31706 23381,31672C23340,31648 23325,31645 23245,31645C23166,31645 23142,31650 23050,31683C22728,31801 22660,31820 22534,31831C22401,31842 22254,31832 22178,31805C22155,31797 22134,31792 22132,31794C22130,31796 22134,31827 22140,31861C22160,31969 22131,32117 22069,32226C22043,32272 21956,32367 21905,32404C21886,32418 21886,32419 21914,32459C21973,32544 22196,32731 22400,32867C22489,32926 22512,32938 22650,32995C22787,33051 22777,33049 22910,33047C23014,33045 23031,33042 23082,33017ZM21550,32399C21595,32317 21622,32289 21714,32221C21824,32140 21852,32107 21876,32038C21905,31955 21900,31861 21862,31769C21815,31655 21806,31602 21814,31473C21818,31405 21817,31360 21811,31360C21806,31360 21762,31384 21713,31413C21387,31605 21029,31671 20690,31600C20592,31580 20571,31581 20605,31606C20692,31670 20811,31787 20913,31910C21045,32070 21252,32281 21345,32352C21410,32401 21499,32451 21515,32446C21521,32445 21536,32423 21550,32399ZM19093,32161C19114,32156 19134,32150 19136,32147C19139,32145 19159,32080 19181,32004C19229,31836 19250,31670 19250,31448C19250,31235 19221,31082 19138,30868L19109,30791L19046,30797C18978,30803 18907,30786 18840,30747C18779,30712 18671,30639 18659,30624C18634,30594 18595,30613 18453,30727C18371,30793 18288,30882 18208,30990C18170,31042 18022,31303 17984,31385C17922,31520 17884,31644 17889,31697C17890,31713 17994,31782 18048,31803C18072,31813 18160,31836 18243,31854C18477,31907 18546,31939 18707,32071C18810,32156 18845,32170 18960,32170C19012,32170 19072,32166 19093,32161ZM13871,32115C13938,32092 13992,32041 14033,31963C14091,31852 14104,31792 14104,31650C14104,31540 14098,31497 14057,31300C14008,31068 13969,30915 13953,30899C13947,30893 13908,30906 13854,30932C13772,30970 13757,30974 13668,30978C13544,30983 13496,30969 13373,30888C13323,30855 13276,30831 13271,30835C13265,30838 13260,30851 13260,30863C13260,30902 13225,31000 13135,31215C13042,31440 12966,31657 12949,31745C12931,31844 12968,31918 13056,31960C13082,31972 13162,31997 13234,32016C13306,32035 13412,32067 13470,32087C13528,32106 13595,32126 13620,32131C13684,32142 13817,32134 13871,32115ZM19645,31910C19673,31903 19743,31894 19803,31890C19929,31881 19942,31873 19967,31791C19991,31712 19991,31501 19967,31398C19929,31238 19879,31119 19731,30850C19676,30748 19629,30661 19627,30656C19621,30639 19343,30687 19317,30710C19313,30714 19325,30744 19345,30777C19410,30887 19473,31081 19499,31257C19522,31410 19506,31718 19465,31902C19457,31939 19450,31973 19450,31979C19450,31984 19483,31974 19523,31956C19562,31938 19618,31917 19645,31910ZM14624,31939C14683,31870 14695,31818 14695,31640C14695,31479 14683,31403 14638,31260C14601,31146 14490,30946 14381,30800C14350,30759 14322,30722 14319,30717C14315,30712 14292,30724 14267,30743C14241,30762 14207,30781 14190,30785C14174,30789 14160,30795 14160,30799C14160,30803 14175,30837 14194,30876C14228,30945 14266,31084 14351,31455C14413,31725 14475,31905 14526,31962C14554,31992 14585,31984 14624,31939ZM12656,31762C12662,31758 12671,31728 12674,31695C12683,31623 12766,31363 12825,31225C12849,31170 12910,31038 12962,30932L13056,30740L13006,30710C12978,30693 12948,30675 12939,30669C12926,30659 12915,30666 12874,30706C12847,30734 12752,30811 12663,30878C12455,31036 12402,31106 12364,31279C12342,31376 12349,31450 12389,31533C12444,31649 12518,31727 12599,31756C12642,31772 12642,31772 12656,31762ZM22485,31620C22592,31610 22641,31596 22865,31507C23092,31418 23125,31408 23237,31403L23340,31397L23334,31356C23317,31243 23260,31141 23184,31092C23105,31039 23049,31025 22920,31025C22812,31025 22800,31027 22728,31058C22686,31076 22610,31118 22558,31151C22420,31241 22282,31307 22178,31334L22085,31358L22077,31461C22069,31553 22070,31565 22085,31577C22106,31592 22177,31607 22280,31619C22382,31631 22373,31630 22485,31620ZM17718,31392C17764,31250 17915,30976 18023,30837C18110,30726 18239,30603 18328,30545C18369,30519 18398,30494 18393,30490C18389,30486 18366,30466 18343,30446L18301,30408L18264,30437C18220,30470 18092,30551 17920,30654C17701,30785 17660,30813 17594,30879C17429,31045 17434,31212 17610,31391C17647,31429 17682,31460 17687,31460C17692,31460 17706,31429 17718,31392ZM13853,30631C13938,30587 14025,30548 14045,30544L14082,30537L14076,30494C14067,30423 14015,30302 13935,30165C13830,29985 13724,29770 13699,29688C13687,29650 13674,29620 13670,29622C13665,29624 13621,29679 13572,29745C13523,29811 13437,29915 13381,29975C13195,30176 13104,30315 13093,30414C13088,30452 13091,30459 13118,30482C13135,30496 13209,30528 13286,30554C13363,30580 13449,30616 13478,30633C13507,30651 13548,30675 13568,30687C13636,30729 13678,30720 13853,30631ZM19175,30490C19229,30467 19318,30438 19372,30427C19440,30413 19470,30402 19470,30392C19470,30372 19423,30257 19379,30168C19342,30094 19279,30006 19094,29770C19049,29712 18978,29616 18936,29556L18860,29448L18849,29476C18843,29492 18830,29526 18821,29551C18797,29613 18692,29803 18622,29909C18554,30015 18492,30128 18479,30172C18459,30242 18504,30286 18654,30340C18756,30377 18782,30391 18905,30478C19013,30555 19023,30555 19175,30490ZM19356,28703C19237,28461 19131,28304 18880,28000C18832,27942 18757,27847 18712,27787C18667,27728 18630,27683 18630,27687C18630,27698 18726,27883 18798,28010C18878,28152 19054,28418 19134,28520C19235,28647 19413,28851 19418,28845C19421,28842 19393,28778 19356,28703ZM14200,27580C14359,27543 14594,27507 14877,27475C15358,27421 15654,27338 16021,27155C16103,27114 16258,27021 16266,27009C16269,27004 16240,27012 16203,27027C15965,27117 15688,27180 15302,27230C14760,27301 14466,27372 14205,27494C14113,27537 13980,27619 13980,27632C13980,27636 14001,27632 14028,27624C14054,27616 14131,27596 14200,27580ZM25655,25041C25758,24993 25781,24916 25739,24749C25715,24654 25687,24594 25640,24535C25583,24463 25503,24325 25404,24128C25322,23963 25200,23764 25171,23746C25161,23740 25148,23769 25126,23852C25114,23894 25101,23916 25074,23938L25039,23967L25054,24021C25083,24119 25102,24292 25109,24525C25118,24783 25128,24829 25195,24907C25247,24968 25360,25031 25455,25053C25508,25065 25617,25059 25655,25041ZM21135,24640C21545,24618 21682,24567 21725,24416C21740,24365 21741,24344 21731,24247C21719,24140 21689,23985 21649,23826C21638,23782 21605,23694 21576,23631C21547,23567 21510,23477 21495,23430C21479,23383 21466,23344 21465,23343C21463,23339 21296,23376 21205,23401C21145,23417 21089,23423 20980,23426L20835,23429L20838,23522C20841,23596 20837,23629 20820,23685C20793,23771 20708,23943 20645,24040C20558,24174 20545,24211 20545,24330C20545,24419 20548,24441 20567,24477C20606,24549 20701,24614 20800,24636C20870,24652 20903,24652 21135,24640ZM26475,24603C26564,24575 26652,24515 26800,24379C26986,24209 27036,24157 27132,24037C27220,23927 27265,23859 27311,23768C27338,23715 27343,23694 27343,23640C27340,23404 27140,23246 26732,23155C26547,23115 26401,23091 26225,23075C26132,23066 25997,23050 25925,23038C25854,23027 25781,23015 25763,23013C25726,23007 25725,23009 25710,23140C25684,23363 25599,23502 25445,23571C25404,23590 25370,23610 25370,23616C25370,23621 25384,23639 25401,23656C25445,23697 25598,23902 25646,23985C25669,24024 25725,24123 25771,24205C25840,24329 25868,24368 25931,24430C26049,24547 26154,24601 26302,24619C26373,24628 26403,24625 26475,24603ZM20215,24348C20251,24312 20259,24296 20265,24250C20280,24137 20322,24038 20421,23883C20489,23776 20604,23548 20643,23440L20671,23365L20644,23345C20628,23334 20597,23308 20574,23288C20552,23267 20529,23250 20523,23250C20518,23250 20498,23266 20479,23286C20461,23306 20398,23358 20340,23403C20010,23658 19868,23882 19901,24094C19918,24195 19999,24325 20074,24371C20126,24403 20166,24396 20215,24348ZM22181,24275C22192,24251 22206,24196 22212,24153C22222,24084 22221,24066 22202,23993C22171,23871 22114,23759 21994,23583C21846,23365 21680,23150 21660,23150C21656,23150 21647,23164 21640,23180C21629,23208 21631,23218 21664,23293C21684,23338 21725,23416 21754,23465C21887,23688 21946,23839 21975,24025C21993,24140 22011,24199 22042,24240C22066,24272 22129,24320 22147,24320C22155,24320 22170,24300 22181,24275ZM18537,23914C18425,23589 18339,23425 17987,22860C17712,22418 17648,22328 17355,21965C17221,21799 17077,21613 16987,21490L16969,21465L16973,21505C16982,21583 17096,21850 17285,22235C17472,22616 17534,22709 17831,23055C18111,23383 18281,23605 18486,23913C18529,23979 18566,24028 18568,24022C18569,24017 18555,23968 18537,23914ZM24944,23632C24980,23560 25046,23482 25097,23450C25122,23434 25184,23407 25234,23390C25284,23374 25339,23351 25356,23341C25406,23311 25430,23247 25450,23092C25460,23017 25479,22912 25493,22860C25523,22745 25534,22660 25521,22640C25499,22608 25331,22639 25215,22697C25152,22729 25077,22773 24928,22867C24790,22953 24642,23029 24548,23060C24510,23073 24480,23085 24480,23087C24480,23089 24515,23132 24558,23183C24645,23286 24721,23390 24835,23563C24878,23627 24915,23680 24916,23680C24918,23680 24931,23658 24944,23632ZM21085,23165C21118,23158 21183,23140 21230,23126C21277,23112 21334,23096 21357,23090C21419,23074 21433,23056 21427,23001C21415,22900 21344,22781 21170,22565C21108,22488 21036,22394 21011,22356C20960,22280 20967,22277 20929,22398C20902,22487 20830,22611 20750,22705C20643,22830 20632,22879 20684,22995C20724,23083 20791,23144 20880,23171C20921,23183 21021,23181 21085,23165ZM27385,22846C27448,22819 27427,22767 27323,22693C27203,22608 27036,22557 26769,22526C26622,22509 26122,22498 25920,22507L25778,22513L25786,22544C25790,22561 25795,22620 25796,22675L25798,22775L25836,22789C25863,22799 25960,22805 26160,22811C26477,22820 26893,22838 27033,22850C27197,22863 27347,22861 27385,22846ZM24777,21075C24797,21067 24854,21027 24904,20986C25073,20850 25074,20847 25008,20783C24965,20743 24964,20743 24855,20731C24733,20719 24567,20678 24415,20624C24215,20552 24145,20529 24109,20524C24075,20518 24073,20519 24062,20558C24049,20599 23971,20680 23944,20680C23915,20680 23932,20697 23998,20734C24035,20755 24140,20822 24232,20882C24406,20996 24491,21038 24613,21070C24702,21093 24731,21094 24777,21075ZM23783,20480C23816,20470 23820,20466 23820,20436C23820,20370 23841,20294 23887,20196C23929,20105 23934,20089 23934,20021C23934,19935 23920,19898 23861,19837C23812,19784 23755,19756 23714,19763C23650,19774 23570,19838 23521,19918C23334,20220 23277,20282 23077,20404C23061,20414 23050,20423 23052,20425C23060,20433 23270,20473 23370,20486C23485,20501 23720,20497 23783,20480ZM25061,20479C25133,20455 25160,20412 25179,20295C25232,19965 25245,19720 25215,19605C25191,19515 25125,19385 25075,19333L25031,19287L24954,19292C24886,19297 24866,19303 24757,19358C24612,19430 24392,19574 24296,19660C24258,19694 24210,19733 24189,19747C24167,19761 24150,19778 24150,19784C24150,19790 24159,19824 24170,19858C24206,19973 24189,20155 24131,20268C24120,20290 24114,20310 24117,20314C24121,20317 24139,20320 24157,20320C24208,20320 24329,20347 24475,20390C24605,20429 24783,20475 24830,20483C24884,20492 25029,20489 25061,20479ZM24054,19566C24077,19552 24124,19511 24160,19474C24292,19338 24471,19212 24686,19106C24883,19008 24917,18977 24871,18931C24822,18882 24613,18862 24499,18896C24422,18919 24285,18990 24215,19043C24098,19132 23800,19457 23800,19496C23800,19503 23815,19511 23833,19514C23850,19517 23892,19536 23925,19554C23958,19573 23991,19589 23999,19589C24007,19590 24032,19579 24054,19566ZM15991,16589C15980,16466 15969,16325 15966,16275C15962,16226 15953,16093 15945,15980C15895,15283 15855,13979 15863,13305C15870,12781 15877,12624 15920,12110C15983,11370 15994,11250 16055,10705C16074,10535 16101,10287 16115,10155C16129,10023 16145,9877 16150,9830C16218,9248 16273,8549 16300,7915C16318,7514 16324,6387 16311,6040C16292,5547 16238,4836 16189,4436C16179,4348 16170,4270 16170,4263C16170,4236 16151,4254 16049,4377C15779,4706 15524,5083 15171,5675C14906,6119 14663,6751 14430,7600C14277,8158 14206,8498 14136,9005C14074,9453 14050,9818 14050,10326C14050,10915 14091,11385 14201,12045C14314,12728 14458,13273 14733,14060C15001,14826 15486,15935 15773,16440C15887,16639 16001,16823 16007,16816C16009,16814 16002,16712 15991,16589ZM13555,13870C13564,13812 13589,13673 13610,13560C13700,13085 13727,12896 13740,12642C13751,12426 13753,11886 13743,11814C13737,11770 13733,11786 13699,11985C13679,12106 13642,12327 13616,12475C13538,12938 13509,13226 13506,13560C13505,13787 13517,13998 13530,13983C13534,13979 13545,13928 13555,13870ZM17336,13338C17281,13207 17183,13003 17055,12760C16990,12636 16859,12373 16763,12175C16668,11977 16582,11808 16573,11800C16559,11787 16558,11787 16564,11803C16567,11813 16579,11858 16591,11903C16643,12110 16772,12455 16872,12654C16940,12791 16997,12884 17181,13160C17267,13289 17343,13406 17350,13420C17379,13474 17369,13417 17336,13338Z" style="fill-rule:nonzero;"/></g></g><g id="converted-89.svg1" serif:id="converted 89.svg"></g></g></svg>