<?xml version="1.0" encoding="UTF-8" standalone="no"?><!DOCTYPE svg PUBLIC "-//W3C//DTD SVG 1.1//EN" "http://www.w3.org/Graphics/SVG/1.1/DTD/svg11.dtd"><svg width="3000px" height="3000px" version="1.1" xmlns="http://www.w3.org/2000/svg" xmlns:xlink="http://www.w3.org/1999/xlink" xml:space="preserve" xmlns:serif="http://www.serif.com/" style="fill-rule:evenodd;clip-rule:evenodd;stroke-linejoin:round;stroke-miterlimit:2;"><g transform="matrix(0.77625,0,0,0.77625,1500,1500)"><g id="converted-96.svg" serif:id="converted 96.svg" transform="matrix(1,0,0,1,-2000,-2000)"><g transform="matrix(0.1,0,0,-0.1,0,4000)"><path fill="#F5F5FA" d="M19958,36480C19903,36463 19803,36399 19690,36310C19550,36200 19427,36136 19315,36114C18944,36044 18809,35985 18631,35816C18549,35737 18480,35631 18449,35539C18420,35450 18417,35317 18442,35228C18460,35161 18461,35162 18376,35190C18189,35253 17944,35270 17795,35231C17568,35172 17437,35053 17278,34765C17248,34710 17192,34617 17155,34560C16880,34136 16855,33913 17059,33698C17168,33582 17284,33510 17448,33456C17493,33441 17530,33427 17530,33426C17530,33415 17303,33239 17210,33178C17013,33049 16947,32960 16946,32820C16945,32709 16984,32635 17104,32514C17330,32288 17694,32102 17975,32069C18066,32058 18258,32068 18305,32086C18330,32096 18322,32081 18275,32027C18177,31916 18127,31762 18148,31638C18174,31480 18244,31383 18375,31320C18435,31291 18458,31285 18536,31282C18595,31279 18652,31283 18701,31293C18943,31345 19019,31363 19146,31398C19224,31420 19345,31448 19416,31459C19625,31493 19650,31499 19705,31524C19733,31537 19786,31575 19823,31610C19860,31645 19892,31671 19894,31669C19895,31667 19914,31639 19935,31607C19995,31514 20091,31460 20194,31460C20223,31460 20283,31469 20329,31481C20374,31492 20414,31499 20418,31495C20430,31483 20432,30964 20421,30795C20414,30702 20396,30483 20380,30310C20289,29340 20251,29115 19971,27905C19844,27356 19837,27327 19760,27075C19522,26292 19479,26129 19370,25605C19325,25393 19324,25390 19200,24990C19066,24558 18973,24224 18881,23835C18739,23232 18610,22394 18535,21590C18521,21439 18508,21290 18505,21260C18493,21133 18449,20383 18430,19975C18396,19238 18353,18569 18299,17950C18271,17622 18266,17579 18257,17591C18255,17593 18214,17768 18165,17980C17984,18772 17875,19116 17653,19595C17536,19847 17481,19944 17103,20570C16859,20973 16749,21208 16619,21600C16440,22141 16379,22369 16264,22932C16234,23082 16188,23292 16164,23399C16094,23703 16051,24024 16011,24555C15973,25051 15965,25237 15965,25665C15966,26189 15983,26433 16051,26842C16082,27034 16099,27080 16183,27205C16292,27367 16424,27510 16670,27728C16761,27810 16791,27829 16906,27884C17116,27985 17364,28160 17493,28299C17712,28536 17830,28869 17830,29250C17830,29568 17739,29868 17567,30125C17515,30201 17383,30338 17306,30397C17106,30547 16815,30612 16559,30565C16459,30546 16255,30480 16152,30433C15984,30357 15813,30213 15719,30070C15545,29805 15420,29346 15420,28970C15420,28724 15480,28392 15562,28185C15591,28111 15612,28031 15640,27880C15689,27620 15695,27573 15720,27305C15732,27184 15748,27063 15755,27036C15775,26969 15775,26633 15756,26435C15715,26017 15710,25389 15745,24885C15767,24548 15772,24561 15686,24726C15470,25139 15248,25488 14993,25817C14885,25956 14262,26707 14152,26830C14110,26877 13949,27043 13794,27200C13598,27399 13509,27495 13501,27519C13495,27538 13470,27586 13446,27624C13400,27699 13299,27904 13148,28230C13099,28337 13039,28463 13015,28510C12950,28638 12907,28799 12825,29220C12788,29411 12754,29547 12709,29685C12538,30207 12093,30733 11773,30792C11720,30802 11698,30801 11628,30786C11440,30745 11417,30733 11275,30600C11180,30511 11072,30444 10942,30394C10697,30300 10667,30286 10611,30245C10530,30186 10487,30131 10426,30010C10396,29952 10363,29897 10353,29888C10343,29880 10274,29838 10200,29795C9929,29640 9849,29559 9722,29304C9694,29248 9662,29174 9651,29139C9599,28976 9580,28663 9615,28542C9632,28481 9632,28477 9614,28417C9576,28292 9596,28179 9690,27990C9788,27795 9969,27584 10133,27471C10304,27355 10559,27251 10765,27214C10918,27186 11253,27188 11420,27218C11572,27245 11759,27297 11869,27344L11952,27379L12027,27359C12132,27333 12256,27334 12496,27366C12769,27402 12931,27402 13110,27368C13184,27354 13266,27339 13292,27336C13336,27329 13344,27323 13428,27227C13477,27171 13575,27062 13645,26985C13828,26784 13935,26655 14210,26305C14799,25556 14871,25459 15044,25180C15425,24567 15630,24109 15779,23538C15826,23359 15827,23355 15930,22845C16063,22186 16117,21968 16234,21615C16408,21095 16545,20808 16893,20240C17067,19956 17053,19980 17046,19980C17043,19980 16974,20062 16893,20163C16428,20736 16205,20948 15740,21253C15364,21499 15034,21659 14609,21800C14004,22002 13501,22092 12980,22093C12706,22094 12555,22083 12272,22039C11864,21977 11588,21902 11205,21748C10783,21579 10475,21397 10100,21092C9960,20978 9724,20740 9624,20610C9443,20376 9247,20057 9070,19705C8898,19364 8852,19234 8695,18635C8675,18558 8627,18386 8589,18252C8508,17967 8505,17936 8554,17882C8586,17848 8593,17845 8644,17845C8691,17845 8703,17849 8730,17875C8747,17892 8780,17941 8803,17985C8861,18097 8941,18199 9061,18315C9174,18424 9232,18466 9355,18527C9564,18631 9757,18679 10222,18745C10694,18811 10940,18898 11445,19177C11703,19320 11774,19355 11983,19444C12435,19638 12664,19715 13055,19809C13510,19917 13721,19942 14021,19922C14347,19900 14462,19870 15000,19665C15532,19463 15665,19428 16136,19365C16338,19339 16637,19269 16805,19210C16988,19145 17268,18983 17455,18833C17564,18746 17566,18744 17622,18635C17718,18451 17736,18398 17845,17969C17903,17741 17973,17474 18000,17375C18027,17276 18069,17101 18094,16985C18119,16870 18156,16705 18175,16620C18203,16496 18210,16443 18210,16360C18210,16234 18234,15804 18255,15555C18284,15215 18331,14845 18395,14440C18408,14355 18438,14164 18460,14015C18527,13569 18556,13415 18715,12640C18864,11918 18910,11660 18980,11170C19072,10519 19173,9294 19225,8190C19258,7480 19263,7279 19263,6720C19264,5983 19244,5587 19170,4825C19086,3969 19030,3548 18936,3065C18865,2700 18847,2577 18846,2455C18845,2361 18847,2352 18876,2300C18976,2123 19216,2148 19309,2345C19338,2406 19386,2594 19444,2880C19567,3477 19663,4236 19725,5095C19792,6038 19795,7072 19733,8180C19724,8342 19717,8525 19717,8585C19717,8830 19832,9487 19935,9825C20024,10119 20115,10329 20415,10940C20645,11407 20709,11547 20868,11925C20999,12236 21055,12376 21200,12765C21373,13229 21428,13384 21529,13702C21557,13790 21590,13867 21635,13947C21672,14012 21754,14159 21818,14274C21882,14389 21951,14499 21970,14518C22106,14652 22502,14868 22905,15030C23102,15109 23298,15202 23574,15349C23718,15425 23891,15516 23960,15550C24128,15634 24256,15712 24500,15879C24960,16195 25043,16260 25430,16605C25804,16939 25946,17085 26255,17455C26361,17582 26506,17750 26576,17830C26756,18032 26924,18240 27230,18635C27375,18822 27559,19056 27640,19155C27837,19396 27938,19531 28183,19875C28296,20035 28440,20231 28502,20312C28823,20730 28904,20840 29110,21135C29233,21311 29369,21505 29413,21565C29524,21717 29791,22051 29866,22132C29942,22213 29958,22254 29935,22304C29916,22343 29874,22365 29820,22364C29717,22361 29155,22209 28901,22115C28763,22065 28258,21857 28105,21788C27934,21711 27740,21590 27398,21344C27047,21091 26981,21030 26528,20540C26403,20405 26237,20228 26159,20145C26081,20063 25952,19919 25872,19825C25792,19732 25667,19590 25595,19510C25419,19315 25060,18903 24984,18810C24951,18769 24869,18663 24803,18574C24736,18485 24599,18312 24498,18189C24292,17938 24035,17610 23915,17445C23759,17230 23451,16823 23394,16754C23362,16716 23270,16611 23190,16520C23038,16347 22868,16146 22685,15921C22626,15848 22518,15722 22447,15641C22187,15348 22041,15152 21880,14878C21845,14819 21815,14772 21813,14774C21811,14776 21829,14878 21854,15001C21909,15279 22045,16016 22210,16945C22374,17867 22458,18229 22624,18734C22803,19276 23171,20138 23436,20635C23720,21166 24149,21798 24656,22430C24892,22725 24911,22742 25058,22783C25129,22802 25160,22804 25485,22805C25738,22805 25852,22809 25897,22819C25976,22836 25986,22833 26230,22708C26731,22451 27042,22366 27413,22384C27671,22396 27828,22429 27983,22504C28155,22587 28259,22664 28350,22777C28424,22868 28463,22949 28496,23075C28537,23233 28522,23358 28454,23439C28425,23474 28355,23513 28301,23525L28268,23532L28318,23584C28423,23692 28493,23811 28546,23970C28571,24046 28574,24070 28574,24195C28575,24320 28572,24344 28548,24423C28495,24593 28486,24659 28496,24820C28514,25110 28499,25223 28427,25350C28410,25380 28345,25457 28283,25520C28161,25644 28176,25619 28022,25940C27969,26050 27916,26109 27776,26213C27713,26261 27630,26334 27588,26381C27547,26427 27472,26511 27422,26567C27371,26622 27304,26686 27272,26707C27191,26761 27068,26800 26949,26809L26852,26817L26743,26897C26421,27137 26242,27208 25985,27197C25842,27191 25773,27172 25620,27095C25374,26972 25197,26821 25122,26670C25058,26541 25041,26460 25031,26221C25025,26108 25010,25932 24995,25830C24981,25728 24961,25546 24950,25425C24939,25304 24920,25115 24909,25005C24876,24688 24886,24567 24972,24272L25014,24128L24983,24072C24927,23970 24920,23926 24910,23660C24901,23406 24886,23283 24849,23164C24816,23057 24794,23022 24701,22925C24468,22682 23989,22059 23670,21585C23253,20963 23007,20486 22646,19594C22292,18718 22146,18180 21975,17110C21955,16986 21910,16710 21875,16495C21840,16281 21797,16017 21780,15910C21653,15117 21526,14557 21342,13990L21295,13845L21293,13935C21290,14030 21261,14426 21234,14745C21208,15045 21210,15744 21238,16155C21250,16331 21268,16651 21279,16865C21290,17080 21304,17352 21310,17470C21324,17743 21339,17859 21445,18555C21503,18934 21560,19439 21590,19845C21606,20062 21622,21520 21610,21675C21594,21869 21570,22014 21476,22460C21430,22683 21378,22944 21360,23040C21299,23381 21164,23961 21110,24115C21099,24148 21076,24242 21060,24324C21043,24406 21022,24487 21012,24504C20973,24573 20875,24588 20820,24535C20777,24494 20756,24435 20706,24210C20681,24097 20648,23953 20634,23890C20578,23642 20501,23441 20152,22620C19823,21846 19695,21420 19624,20860C19566,20399 19533,19944 19521,19445C19509,18909 19523,18711 19624,18074C19669,17787 19700,17634 19765,17365C19794,17244 19835,17071 19855,16980C19927,16658 19977,16525 20155,16170C20212,16057 20304,15862 20360,15735C20417,15609 20507,15417 20561,15309C20759,14912 20853,14651 20930,14280C20963,14119 20975,13996 20990,13650C20995,13521 21005,13349 21012,13268L21024,13122L20995,13048C20809,12568 20739,12401 20547,11980C20351,11549 20313,11472 20153,11180C19860,10645 19736,10377 19605,9992C19597,9969 19580,9990 19580,10023C19580,10098 19478,10757 19404,11155C19335,11529 19229,12009 19075,12635C18908,13315 18843,13630 18756,14175C18609,15093 18533,16189 18569,16890C18587,17241 18608,17609 18625,17850C18633,17968 18647,18191 18655,18345C18663,18499 18679,18765 18690,18935C18700,19106 18714,19358 18720,19495C18726,19633 18737,19853 18745,19985C18753,20117 18764,20326 18770,20450C18792,20930 18829,21377 18880,21771C18956,22357 19055,22829 19295,23760C19358,24002 19511,24688 19601,25125C19667,25446 19661,25432 19795,25602C19921,25762 20215,25955 20724,26212C21101,26401 21208,26471 21520,26729C21897,27040 22213,27346 22563,27738C22865,28076 23011,28278 23373,28853C23542,29121 23624,29252 24033,29912C24288,30323 24459,30551 24681,30770C24828,30915 24838,30928 24850,30978C24866,31047 24857,31089 24817,31128C24775,31168 24724,31177 24643,31156C24501,31119 23939,30890 23713,30776C23465,30652 23351,30575 22921,30242C22434,29864 22318,29749 21891,29215C21317,28497 21190,28311 20826,27653C20500,27062 20275,26708 20015,26375C19959,26304 19898,26223 19880,26196C19861,26168 19845,26151 19843,26156C19835,26179 20005,26792 20140,27230C20283,27694 20345,27922 20430,28305C20496,28601 20556,28985 20600,29400C20612,29507 20641,29735 20665,29905C20727,30337 20738,30443 20752,30704C20765,30952 20753,31290 20725,31500C20718,31558 20715,31608 20719,31613C20732,31626 20860,31649 20981,31659C21111,31670 21177,31691 21257,31746C21320,31789 21369,31846 21482,32005C21628,32210 21730,32286 21940,32346C22151,32405 22336,32537 22404,32675C22520,32912 22436,33098 22141,33258C22058,33303 22055,33298 22180,33320C22411,33360 22651,33501 22885,33735C23202,34052 23325,34263 23401,34625C23431,34765 23434,34986 23407,35095C23358,35290 23270,35381 23130,35381C23080,35382 23055,35375 23001,35349C22932,35315 22877,35263 22520,34894C22311,34679 22175,34574 22019,34508C21959,34483 21835,34457 21850,34473C21853,34475 21893,34506 21940,34541C22301,34807 22612,35108 22729,35308C22816,35455 22843,35623 22800,35750C22758,35874 22685,35940 22540,35984C22460,36008 22448,36016 22348,36103C22282,36161 22219,36207 22183,36223C22032,36291 21859,36278 21665,36185C21491,36101 21316,35971 21209,35846C21066,35678 20993,35550 20830,35185C20768,35048 20717,34934 20716,34932C20714,34931 20714,35064 20714,35227C20715,35516 20714,35529 20688,35652C20621,35961 20472,36255 20318,36379C20220,36458 20159,36485 20065,36487C20021,36488 19973,36485 19958,36480ZM20164,36117C20275,36004 20389,35737 20430,35497C20447,35394 20450,35333 20450,35052C20450,34754 20440,34476 20424,34328L20418,34271L20332,34224C20284,34198 20212,34155 20172,34128C20133,34101 20093,34077 20085,34074C20075,34070 20041,34095 19990,34143C19878,34249 19759,34342 19490,34534C19361,34627 19224,34728 19185,34758C18944,34950 18831,35088 18766,35268C18714,35415 18739,35509 18860,35623C18968,35725 19066,35764 19291,35795C19581,35835 19701,35891 19963,36107C20022,36156 20059,36180 20077,36180C20095,36180 20120,36162 20164,36117ZM22042,35914C22059,35905 22103,35870 22139,35836C22252,35730 22330,35685 22444,35659C22510,35645 22525,35626 22517,35569C22510,35517 22462,35417 22413,35353C22260,35150 21948,34843 21735,34685C21617,34597 21408,34470 21365,34460C21242,34430 21164,34404 21071,34359L20966,34310L20921,34324C20896,34332 20858,34342 20838,34346C20817,34349 20800,34356 20800,34360C20800,34378 20891,34561 20992,34747C21052,34858 21146,35043 21200,35159C21345,35465 21411,35571 21536,35692C21635,35788 21757,35867 21870,35906C21947,35934 21999,35936 22042,35914ZM23140,35011C23182,34787 23088,34455 22919,34230C22845,34133 22616,33909 22520,33841C22418,33769 22283,33703 22191,33679C22134,33664 22081,33659 21980,33658C21824,33657 21687,33682 21462,33749C21388,33772 21305,33793 21277,33796C21199,33806 21190,33813 21190,33868C21190,33894 21178,33951 21164,33994L21137,34074L21159,34091C21197,34122 21333,34168 21421,34181C21483,34190 21548,34190 21665,34183C21925,34167 22065,34192 22251,34286C22436,34378 22626,34536 22826,34762C23066,35032 23113,35081 23121,35073C23126,35068 23134,35040 23140,35011ZM18215,34978C18299,34966 18496,34910 18563,34880C18597,34865 18647,34823 18723,34746C18853,34615 18933,34552 19200,34369C19537,34139 19621,34075 19795,33917L19855,33862L19822,33816C19804,33791 19780,33751 19770,33727C19760,33704 19748,33682 19745,33678C19742,33675 19707,33681 19667,33691C19455,33746 19238,33756 18805,33732C18377,33709 17854,33697 17783,33710C17676,33728 17481,33788 17416,33823C17344,33861 17254,33946 17244,33985C17225,34059 17277,34172 17434,34404C17490,34487 17569,34617 17609,34692C17694,34852 17744,34909 17835,34951C17933,34997 18038,35005 18215,34978ZM21151,33394C21368,33275 21469,33226 21640,33155C21742,33113 21866,33057 21917,33030C22019,32977 22117,32905 22126,32877C22135,32849 22104,32812 22032,32766C21957,32719 21943,32712 21815,32675C21569,32601 21421,32492 21258,32264C21110,32054 21076,32027 20950,32016C20767,31999 20659,31970 20460,31882C20326,31823 20224,31792 20209,31807C20191,31825 20178,31944 20185,32035C20194,32164 20227,32391 20251,32490C20276,32591 20350,32824 20392,32932C20420,33007 20423,33010 20463,33020C20553,33042 20647,33086 20734,33144C20826,33205 20964,33335 21010,33403C21024,33423 21042,33440 21051,33440C21059,33440 21104,33419 21151,33394ZM19689,33377L19794,33355L19822,33306C19838,33279 19850,33254 19848,33250C19844,33238 19503,32996 19313,32868C19138,32752 19063,32712 18900,32651C18670,32564 18561,32520 18466,32476C18307,32402 18243,32385 18115,32385C18020,32385 17993,32389 17920,32414C17800,32455 17674,32507 17610,32543C17445,32634 17270,32777 17270,32819C17270,32842 17279,32849 17450,32959C17508,32997 17593,33062 17639,33104C17812,33262 17844,33270 18365,33290C18514,33295 18709,33309 18800,33320C18891,33330 19044,33346 19140,33355C19236,33363 19351,33377 19395,33384C19510,33404 19572,33402 19689,33377ZM20045,32829C19925,32459 19818,32190 19735,32048C19680,31953 19590,31855 19547,31841C19529,31836 19490,31828 19460,31825C19374,31815 19137,31761 19031,31729C18888,31684 18616,31620 18571,31620C18517,31620 18481,31652 18473,31706C18465,31764 18484,31811 18537,31870C18595,31935 18636,31962 18834,32072C19041,32187 19164,32270 19271,32367C19319,32410 19404,32487 19461,32539C19611,32674 20083,33021 20097,33006C20099,33004 20076,32924 20045,32829ZM23870,30525C23870,30522 23748,30423 23599,30304C23233,30012 23007,29786 22784,29490C22693,29369 22239,28688 22077,28430C21914,28169 21610,27715 21545,27635C21397,27450 20609,26628 20496,26540C20486,26532 20524,26595 20581,26680C20688,26839 20818,27058 21025,27425C21471,28219 21577,28380 22014,28925C22396,29402 22564,29585 22795,29776C22948,29903 23493,30313 23602,30384C23648,30413 23726,30458 23775,30484C23873,30534 23870,30532 23870,30525ZM11871,30461C12018,30349 12179,30157 12298,29950C12432,29716 12497,29521 12580,29095C12597,29007 12623,28891 12637,28837C12651,28783 12659,28736 12656,28732C12647,28724 12556,28700 12551,28705C12548,28709 12516,28840 12475,29022C12425,29248 12335,29500 12204,29789C12145,29917 11975,30216 11853,30403C11819,30457 11790,30503 11790,30505C11790,30518 11813,30506 11871,30461ZM24003,30377C23869,30206 23556,29737 23390,29460C23018,28837 22882,28641 22609,28335C22466,28175 22403,28100 22036,27656C21808,27381 21488,27071 21167,26815C21054,26724 20841,26577 20833,26584C20832,26585 20941,26698 21076,26835C21383,27147 21620,27402 21717,27522C21807,27634 21924,27811 22135,28150C22790,29202 22904,29381 23018,29525C23116,29649 23270,29818 23379,29922C23490,30028 24078,30505 24087,30496C24090,30494 24052,30440 24003,30377ZM11650,30450C11650,30444 11698,30342 11756,30223C12034,29651 12057,29599 12202,29195C12316,28876 12392,28638 12382,28629C12374,28622 12308,28599 12305,28602C12303,28604 12279,28652 12250,28709C12222,28767 12156,28884 12106,28969C11923,29277 11708,29727 11626,29975C11555,30191 11552,30347 11615,30444C11631,30468 11650,30471 11650,30450ZM11283,30153C11290,30010 11318,29895 11397,29690C11527,29352 11664,29080 11840,28810C11888,28736 11969,28601 12020,28511L12111,28347L12078,28319C12016,28264 12015,28265 11982,28323C11966,28351 11909,28454 11855,28550C11765,28710 11655,28884 11345,29355C11159,29637 11018,29817 10886,29942C10830,29995 10808,30022 10815,30029C10821,30035 10903,30076 10998,30119C11093,30163 11192,30214 11218,30234C11244,30253 11268,30270 11271,30270C11274,30270 11280,30217 11283,30153ZM16600,30255C16600,30252 16565,30197 16521,30132C16414,29972 16345,29851 16224,29610C16110,29382 16053,29251 15992,29080C15913,28859 15844,28570 15833,28412C15830,28366 15823,28333 15819,28337C15805,28351 15770,28493 15770,28534C15770,28624 15929,29146 16065,29505C16106,29612 16181,29764 16253,29881C16320,29992 16464,30192 16498,30223C16524,30246 16600,30270 16600,30255ZM16829,30140C16850,30013 16860,29760 16850,29620C16831,29369 16767,29058 16693,28860C16584,28566 16366,28229 16141,28006L16062,27927L16030,27961C15999,27995 15998,27996 16004,28072C16008,28115 16021,28191 16034,28242C16048,28293 16077,28430 16099,28545C16182,28975 16278,29247 16511,29712C16617,29925 16798,30226 16811,30212C16815,30208 16823,30176 16829,30140ZM17105,30152C17161,30110 17182,30064 17201,29942C17218,29829 17224,29487 17211,29355C17187,29117 17123,28839 17053,28670C16945,28408 16877,28262 16814,28155C16788,28111 16775,28102 16648,28046C16582,28018 16374,27957 16359,27962C16353,27964 16396,28007 16453,28057C16617,28202 16752,28386 16870,28625C16989,28867 17051,29069 17090,29349C17126,29599 17111,29911 17055,30120C17032,30206 17033,30207 17105,30152ZM16340,30175C16340,30173 16309,30124 16271,30068C16117,29836 16033,29643 15886,29180C15855,29084 15811,28931 15787,28841C15763,28750 15741,28681 15737,28686C15720,28714 15708,28888 15713,29025C15730,29472 15895,29901 16114,30067C16192,30126 16340,30197 16340,30175ZM10895,29692C10997,29558 11121,29373 11255,29155C11339,29018 11420,28891 11505,28766C11528,28731 11520,28735 11435,28800C11265,28930 11122,28999 10914,29054C10763,29093 10626,29110 10415,29116C10257,29121 10207,29118 10118,29103C10058,29093 10010,29088 10010,29093C10010,29098 10033,29147 10062,29203C10135,29347 10193,29402 10385,29510C10595,29628 10674,29709 10720,29854L10733,29894L10771,29849C10793,29825 10849,29754 10895,29692ZM17402,29785C17492,29610 17530,29445 17530,29235C17530,29081 17512,28963 17468,28830C17412,28659 17347,28555 17212,28422C17133,28344 16995,28230 16979,28230C16974,28230 16981,28248 16996,28271C17145,28508 17286,28838 17325,29046C17372,29290 17385,29599 17355,29775C17337,29886 17336,29901 17351,29880C17356,29872 17379,29829 17402,29785ZM10523,28931C10855,28881 11099,28791 11285,28650C11370,28586 11699,28304 11813,28198L11881,28135L11854,28097C11822,28053 11822,28053 11665,28105C11572,28136 11199,28318 11014,28422C10814,28536 10427,28711 10312,28741C10222,28764 10082,28766 9995,28746C9962,28738 9934,28733 9931,28735C9926,28741 9952,28913 9961,28932C9973,28954 10019,28958 10220,28955C10322,28953 10438,28944 10523,28931ZM10244,28428C10265,28423 10333,28397 10394,28370C10455,28344 10552,28303 10610,28280C10668,28256 10786,28202 10873,28158C10960,28115 11084,28057 11148,28031C11213,28004 11315,27960 11375,27932C11473,27888 11604,27842 11683,27825C11710,27820 11710,27819 11710,27740C11710,27662 11709,27660 11688,27665C11675,27667 11582,27685 11481,27705C11112,27776 10886,27846 10657,27961C10517,28031 10407,28109 10250,28251C10176,28318 10100,28384 10083,28397C10065,28411 10050,28426 10050,28431C10050,28449 10165,28448 10244,28428ZM9986,28323C10068,28221 10233,28041 10293,27988C10469,27833 10704,27703 10946,27627C11025,27602 11296,27549 11415,27535C11448,27531 11479,27525 11485,27522C11501,27512 11384,27492 11238,27479C10923,27450 10628,27512 10363,27661C10267,27715 10087,27890 10015,27999C9954,28092 9890,28239 9890,28287C9890,28321 9920,28370 9941,28370C9944,28370 9965,28349 9986,28323ZM26183,26965C26262,26948 26403,26884 26509,26816L26584,26768L26492,26724C26337,26649 26239,26544 26053,26250C26003,26170 25913,26036 25853,25953C25585,25575 25493,25344 25455,24955C25446,24867 25433,24737 25424,24665C25416,24594 25403,24454 25395,24356C25387,24257 25378,24175 25375,24172C25352,24148 25329,24420 25328,24735C25327,24954 25329,24973 25358,25122C25440,25531 25515,25771 25654,26068C25729,26226 25740,26260 25717,26260C25681,26260 25527,26015 25449,25833C25366,25642 25332,25538 25275,25310C25196,24994 25195,24987 25195,24698C25195,24557 25194,24443 25192,24444C25191,24446 25183,24483 25174,24526C25156,24618 25154,24824 25169,24955C25175,25005 25189,25172 25200,25326C25211,25481 25230,25677 25241,25761C25252,25847 25265,26027 25270,26170C25282,26502 25301,26561 25427,26682C25549,26797 25830,26951 25960,26973C26016,26982 26119,26979 26183,26965ZM27046,26549C27106,26530 27122,26519 27190,26452C27232,26409 27312,26320 27368,26254C27468,26135 27536,26073 27671,25977C27755,25918 27788,25874 27841,25746C27919,25559 27954,25507 28097,25359C28258,25192 28266,25175 28256,24991C28234,24590 28235,24576 28308,24355C28354,24214 28356,24116 28315,23994C28227,23730 28053,23590 27730,23525C27610,23501 27183,23441 27043,23429C26837,23411 26483,23432 26268,23476C26226,23484 26154,23506 26109,23523C26026,23555 26026,23555 26004,23610C25961,23716 25959,23713 26081,23726C26275,23748 26577,23817 26745,23879C26933,23947 27314,24118 27458,24198C27570,24260 27689,24356 27728,24416C27767,24475 27766,24494 27722,24498C27698,24501 27645,24480 27511,24416C27412,24369 27329,24330 27325,24330C27321,24330 27178,24274 27006,24206C26669,24072 26541,24028 26350,23980C26281,23963 26154,23931 26068,23908L25910,23867L25891,23891C25865,23921 25865,23947 25890,24029C25901,24065 25930,24192 25954,24310C26011,24580 26063,24803 26095,24911C26144,25076 26256,25339 26389,25603C26498,25818 26521,25873 26511,25883C26477,25916 26262,25613 26121,25331C25990,25071 25929,24914 25860,24664C25820,24517 25746,24183 25734,24093C25724,24015 25715,24007 25662,24032C25625,24050 25619,24056 25625,24077C25628,24090 25639,24221 25650,24368C25690,24917 25722,25151 25776,25302C25835,25464 25906,25588 26100,25860C26164,25951 26252,26083 26296,26153C26446,26396 26520,26474 26650,26526C26735,26560 26777,26568 26886,26569C26954,26570 26996,26564 27046,26549ZM20960,23648C20966,23608 20980,23532 20990,23480C21001,23428 21030,23268 21055,23125C21080,22982 21125,22739 21155,22585C21283,21921 21314,21665 21351,21010C21362,20798 21354,20619 21305,20070C21297,19979 21284,19806 21275,19685C21255,19400 21237,19223 21195,18910C21155,18607 21126,18357 21105,18125C21096,18032 21081,17883 21070,17795C21021,17390 20972,16793 20945,16275C20925,15881 20919,15788 20915,15792C20911,15796 20879,15940 20835,16150C20822,16213 20793,16348 20771,16450C20543,17520 20474,18699 20551,20220C20581,20821 20608,21069 20729,21865C20777,22182 20813,22485 20840,22810C20874,23216 20932,23720 20945,23720C20947,23720 20953,23687 20960,23648ZM20755,23335C20747,23285 20720,23054 20695,22820C20646,22369 20615,22126 20575,21890C20466,21250 20410,20769 20366,20095C20357,19969 20345,19784 20338,19685C20321,19442 20321,18389 20338,18135C20369,17675 20422,17248 20516,16725C20559,16486 20677,15912 20696,15846C20712,15794 20670,15862 20551,16079C20420,16317 20361,16438 20292,16600C20174,16883 20135,17007 20075,17295C20045,17438 20007,17618 19990,17695C19831,18420 19813,18536 19788,18993C19770,19320 19786,19538 19875,20165C19967,20816 20064,21327 20191,21835C20294,22249 20365,22461 20540,22885C20611,23056 20682,23231 20699,23275C20741,23381 20762,23431 20766,23427C20768,23426 20763,23384 20755,23335ZM28245,23309C28283,23296 28285,23293 28288,23247C28298,23093 28198,22917 28045,22818C27959,22762 27828,22701 27757,22685C27587,22646 27213,22641 27045,22674C26859,22712 26645,22787 26379,22910C26299,22947 26224,22981 26212,22984C26189,22992 26184,23015 26199,23039C26207,23051 26225,23049 26317,23023C26546,22957 26603,22947 26956,22919C27159,22903 27390,22912 27495,22939C27605,22968 27630,22979 27630,23000C27630,23024 27601,23028 27355,23035C27177,23040 26956,23059 26685,23090C26636,23096 26525,23116 26440,23134C26355,23153 26269,23171 26249,23174C26217,23180 26210,23186 26196,23223C26187,23246 26180,23269 26180,23272C26180,23276 26210,23270 26246,23260C26423,23209 26702,23170 26890,23170C27107,23170 27518,23218 27720,23267C27944,23321 28001,23330 28105,23326C28160,23324 28223,23316 28245,23309ZM29368,21913C29360,21903 29302,21832 29239,21755C29177,21678 29089,21570 29045,21515C29000,21460 28903,21334 28830,21235C28679,21032 28521,20831 28350,20625C28198,20442 28100,20316 27833,19963C27712,19803 27534,19574 27438,19454C27235,19199 27134,19069 26870,18720C26665,18449 26589,18356 26310,18030C26213,17917 26074,17751 26000,17660C25669,17251 25410,16984 24965,16595C24764,16419 24695,16366 24380,16143C24098,15944 24014,15892 23806,15788C23729,15749 23584,15674 23485,15620C23386,15566 23237,15488 23153,15447C23003,15371 22650,15216 22644,15223C22640,15227 23089,15673 23210,15786C23257,15829 23381,15941 23485,16034C23590,16127 23745,16269 23830,16349C23915,16430 24073,16577 24180,16677C24363,16847 25340,17830 25569,18074C25685,18198 26019,18568 26209,18784C26367,18963 26705,19370 26980,19710C27306,20113 27379,20194 27928,20757C28337,21177 28520,21340 28874,21599C29112,21773 29349,21930 29374,21930C29379,21930 29376,21922 29368,21913ZM28920,21807C28912,21799 28817,21728 28710,21647C28603,21567 28445,21442 28360,21369C28185,21219 27400,20438 27210,20224C27141,20147 26919,19881 26715,19634C26315,19148 26170,18977 25960,18745C25886,18663 25735,18494 25625,18370C25515,18246 25299,18017 25145,17860C24991,17703 24752,17456 24614,17310C24475,17164 24311,16995 24249,16935C24046,16738 23569,16287 23430,16161C23356,16094 23076,15817 22809,15547C22541,15276 22320,15057 22317,15060C22301,15076 22607,15438 23000,15870C23208,16098 23294,16201 23840,16870C24145,17244 24260,17390 24475,17675C24579,17813 24725,18002 24800,18095C24875,18189 24974,18315 25020,18375C25199,18609 25379,18824 25770,19270C25845,19355 25996,19533 26107,19665C26299,19896 26643,20270 26793,20414C27249,20849 27990,21402 28340,21569C28442,21618 28911,21819 28925,21819C28930,21820 28928,21814 28920,21807ZM13370,21780C13716,21745 14146,21651 14540,21524C15043,21363 15520,21112 15965,20776C16150,20636 16457,20324 16785,19940C16938,19761 17088,19581 17120,19540C17204,19429 17294,19291 17287,19283C17283,19280 17232,19322 17173,19376C17113,19431 16984,19548 16885,19635C16786,19723 16656,19840 16595,19894C16308,20151 16066,20326 15722,20524C15551,20622 15465,20665 15293,20738C14894,20908 14284,21067 13848,21115C13534,21150 13030,21145 12723,21104C12466,21071 12120,20977 11850,20867C11505,20728 10390,20194 10135,20047C9959,19946 9742,19783 9545,19606C9353,19432 9277,19343 9161,19153C9126,19096 9096,19050 9094,19050C9088,19050 9164,19259 9204,19350C9333,19644 9602,20104 9808,20380C10011,20652 10395,20985 10755,21200C11068,21387 11551,21582 11921,21670C12144,21723 12512,21777 12765,21794C12862,21800 13257,21791 13370,21780ZM13854,20875C14276,20831 14883,20680 15258,20526C15533,20414 15929,20187 16196,19990C16301,19912 16752,19539 16747,19533C16745,19532 16712,19539 16674,19550C16496,19602 16315,19642 16090,19680C15716,19742 15577,19781 15220,19920C14986,20012 14696,20113 14560,20150C14174,20257 13731,20266 13280,20174C12810,20078 12511,19990 12112,19831C11741,19682 11570,19603 11315,19460C10857,19203 10601,19112 10165,19050C9772,18994 9484,18915 9260,18803C9203,18774 9154,18752 9153,18754C9151,18755 9178,18800 9213,18854C9247,18908 9309,19005 9350,19071C9468,19260 9583,19379 9850,19593C10059,19761 10225,19861 10530,20005C10604,20039 10715,20091 10775,20120C11155,20300 11886,20620 12060,20683C12309,20773 12597,20842 12835,20870C13104,20902 13578,20904 13854,20875Z" style="fill-rule:nonzero;"/></g></g><g id="converted-96.svg1" serif:id="converted 96.svg"></g></g></svg>