<?xml version="1.0" encoding="UTF-8" standalone="no"?><!DOCTYPE svg PUBLIC "-//W3C//DTD SVG 1.1//EN" "http://www.w3.org/Graphics/SVG/1.1/DTD/svg11.dtd"><svg width="3000px" height="3000px" version="1.1" xmlns="http://www.w3.org/2000/svg" xmlns:xlink="http://www.w3.org/1999/xlink" xml:space="preserve" xmlns:serif="http://www.serif.com/" style="fill-rule:evenodd;clip-rule:evenodd;stroke-linejoin:round;stroke-miterlimit:2;"><g transform="matrix(0.74925,0,0,0.74925,1498.5,1501.5)"><g id="converted-45.svg" serif:id="converted 45.svg" transform="matrix(1,0,0,1,-2000,-2000)"><g transform="matrix(0.1,0,0,-0.1,0,4000)"><path fill="#65656A" d="M4685,33801C4184,33786 3905,33762 3803,33725C3727,33698 3700,33672 3700,33628C3700,33556 3743,33533 3945,33496C4129,33462 4237,33453 4655,33435C5146,33414 5618,33401 6400,33390C6784,33384 7323,33369 7650,33355C8168,33333 8363,33324 9115,33290C9644,33266 10005,33216 10603,33084C11391,32911 11828,32756 12605,32375C12886,32238 12876,32246 13061,32019C13340,31678 13585,31320 13715,31060C13955,30582 14062,30201 14130,29585C14141,29491 14140,29480 14119,29420C14072,29281 13988,29139 13877,29010C13809,28931 13620,28755 13462,28625C13246,28447 12696,28046 12289,27769C11615,27311 11150,26933 10797,26555C10560,26302 10349,26039 10214,25830C10035,25552 9809,25100 9683,24770C9477,24225 9367,23843 9300,23441C9194,22796 9211,22327 9366,21585C9402,21409 9606,20636 9684,20375C9802,19984 9903,19651 9972,19425C10016,19282 10103,18996 10165,18790C10227,18584 10300,18341 10328,18250C10424,17934 10445,17851 10525,17481C10586,17199 10600,17097 10609,16856C10623,16491 10602,16269 10525,15975C10475,15782 10439,15687 10327,15455C10217,15226 10202,15173 10234,15111C10269,15044 10354,15022 10435,15059C10486,15082 10943,15401 11123,15539C11429,15773 11786,16029 11945,16127C12059,16198 12570,16490 12665,16539C12780,16598 13355,16874 13630,17002C13759,17062 13915,17134 13975,17162C14263,17297 14546,17461 14930,17715C15373,18009 15600,18189 15891,18480C16352,18941 16622,19320 16860,19840C17137,20445 17286,21014 17352,21715C17369,21900 17369,22603 17352,22800C17274,23668 17105,24340 16789,25032C16627,25387 16312,25945 16082,26285C15607,26985 15479,27168 15305,27395C15069,27704 14918,27946 14770,28252C14537,28737 14470,28967 14410,29495C14344,30069 14284,30359 14169,30668C14008,31099 13837,31413 13572,31763C13511,31844 13465,31910 13471,31910C13492,31910 14024,31616 14340,31429C14436,31373 14729,31204 14990,31054C15251,30905 15569,30723 15695,30650C16153,30386 16786,30059 17215,29865C17309,29822 17405,29773 17430,29755C17503,29701 18237,28956 18346,28825C18553,28575 18892,28128 19007,27953C19087,27830 19250,27550 19310,27430C19371,27309 19475,26966 19540,26675C19712,25903 19759,25484 19731,24995C19712,24675 19705,24633 19560,23940C19411,23225 19376,22934 19340,22110C19315,21544 19335,21026 19406,20390C19450,19995 19489,19784 19577,19471L19623,19307L19617,19146C19606,18798 19539,18588 19330,18240C19037,17754 18728,17329 18125,16585C17926,16340 17522,15824 17436,15705C17316,15540 16975,15025 16873,14855C16596,14394 16401,14004 16266,13645C16220,13523 16188,13425 16085,13090C15999,12808 15905,12340 15875,12036C15853,11818 15845,11389 15859,11190C15904,10570 16038,9868 16335,8695C16452,8235 16556,7718 16621,7270C16627,7229 16635,7096 16639,6975C16645,6791 16649,6751 16663,6729C16695,6682 16756,6667 16809,6695C16836,6708 16880,6780 16880,6809C16880,6834 16969,7048 17029,7168C17203,7515 17385,7802 17744,8295C17914,8529 17939,8561 18211,8906C18717,9549 19047,10074 19433,10850C19828,11642 20107,12431 20304,13310C20495,14163 20601,15352 20561,16186C20546,16504 20531,16627 20460,17049C20392,17445 20358,17610 20266,17980C20192,18274 20182,18308 20025,18805C19748,19684 19706,19877 19631,20610C19572,21186 19560,21775 19594,22420C19627,23056 19645,23183 19819,24075C19863,24301 19906,24539 19914,24605C19964,24980 19958,25446 19900,25825C19883,25931 19832,26192 19804,26309C19790,26366 19781,26414 19783,26416C19795,26429 19916,26097 20001,25818C20040,25690 20082,25551 20095,25510C20120,25425 20148,25343 20278,24960C20328,24814 20376,24655 20384,24605C20393,24556 20410,24463 20422,24400C20439,24307 20444,24246 20444,24085C20445,23872 20435,23774 20390,23505C20360,23331 20311,23007 20266,22685C20226,22409 20182,21994 20170,21805C20150,21463 20161,20724 20190,20495C20225,20224 20282,19932 20335,19754C20468,19310 20701,18864 21069,18352C21143,18249 21269,18073 21349,17960C21428,17847 21562,17665 21645,17555C21857,17274 21946,17138 22099,16862C22279,16536 22373,16313 22560,15770C22695,15379 22744,15261 22867,15035C23066,14670 23180,14503 23663,13870C24027,13394 24004,13422 24362,13019C24419,12956 24496,12860 24534,12806C24618,12688 24639,12670 24696,12670C24752,12670 24798,12708 24807,12762C24812,12794 24804,12817 24760,12907C24608,13219 24394,13724 24241,14132C24079,14563 23926,15187 23870,15645C23818,16071 23792,16424 23780,16855C23760,17580 23734,18037 23695,18345C23597,19111 23443,19727 23205,20306C22917,21005 22651,21470 22104,22233C21810,22641 21428,23189 21348,23317C21102,23705 20818,24257 20658,24660C20595,24818 20375,25470 20280,25780C20173,26132 20125,26269 20017,26536C19823,27011 19709,27242 19427,27730C19242,28050 19138,28204 18875,28540C18579,28918 18474,29038 18212,29298C18072,29436 17961,29550 17965,29550C17975,29550 18338,29416 18530,29342C18812,29232 19511,28939 19750,28831C20298,28581 20929,28187 21455,27765C22041,27294 22376,26958 23245,25965C23332,25866 23527,25643 23678,25470C24362,24688 24721,24337 25450,23735C25721,23511 25927,23346 26082,23230C26208,23135 26209,23135 26241,23060C26366,22764 26434,22330 26401,22041C26388,21929 26382,21909 26348,21868C26331,21847 26325,21821 26320,21753C26315,21690 26300,21624 26266,21518C26170,21216 26143,21002 26160,20663C26165,20554 26172,20440 26175,20410C26178,20380 26187,20234 26195,20085C26214,19749 26228,19638 26290,19330C26345,19052 26366,18892 26379,18637C26393,18365 26379,18208 26311,17850C26239,17470 26230,17257 26269,16790C26309,16312 26285,15963 26179,15512C26073,15057 26058,14927 26035,14295C26013,13699 26022,13410 26080,12915C26178,12080 26226,11889 26506,11229C26570,11078 26646,10897 26675,10825C26783,10559 26900,10282 27142,9715C27222,9528 27331,9272 27385,9145C27544,8769 27673,8534 27942,8128C28118,7863 28234,7710 28516,7369C28642,7218 28783,7045 28830,6985C28945,6837 29352,6340 29464,6210C29660,5985 30157,5510 30271,5441C30319,5412 30396,5413 30441,5443C30460,5455 30486,5485 30498,5510C30521,5554 30522,5558 30513,5720C30509,5811 30505,6106 30506,6375C30506,6890 30521,7163 30570,7558C30630,8046 30640,8328 30615,8945C30583,9760 30609,9999 30802,10635C30961,11162 31037,11455 31079,11702C31128,11987 31167,12530 31156,12755C31136,13172 31016,13754 30872,14138C30854,14183 30844,14220 30848,14220C30861,14219 31083,14060 31180,13982C31327,13863 31440,13744 31635,13505C31897,13183 32062,13019 32250,12893C32381,12805 32514,12733 32940,12520C33396,12293 33453,12262 33743,12088C34207,11809 34443,11650 34714,11431C34807,11356 34957,11235 35049,11162C35317,10946 35387,10880 35660,10585C35970,10250 36034,10195 36127,10183C36179,10177 36247,10213 36272,10260C36301,10315 36294,10387 36236,10677C36147,11114 36077,11585 36050,11924C36033,12140 36037,12522 36060,12746C36097,13117 36104,13274 36105,13685C36105,14118 36100,14196 36054,14480C35978,14948 35837,15325 35552,15825C35267,16327 34852,16847 34206,17514C33802,17932 33594,18123 33130,18499C32618,18915 32481,19021 32130,19266C31827,19479 31743,19531 31125,19897C30777,20102 30708,20141 30423,20289C30139,20435 30136,20437 29965,20538C29843,20611 29515,20827 29375,20928C29199,21055 29080,21162 28844,21407C28472,21793 28275,21980 28045,22165C27853,22319 27283,22738 26945,22975C26353,23388 26146,23544 25690,23924C24994,24504 24592,24897 24005,25575C23895,25702 23735,25884 23650,25980C23564,26076 23420,26240 23330,26344C23007,26716 22589,27162 22307,27437C21766,27964 20978,28536 20252,28929C19894,29123 18961,29525 18265,29785C17922,29913 17797,29964 17545,30078C16963,30341 16310,30679 15640,31065C15533,31127 15326,31244 15180,31325C15034,31407 14778,31553 14610,31650C14211,31881 14109,31939 13905,32050C13812,32101 13594,32221 13421,32317C13248,32414 13005,32545 12881,32610C12757,32674 12599,32760 12530,32800C12322,32921 12195,32984 11990,33068C11631,33215 11351,33300 11115,33335C11055,33344 10917,33371 10810,33396C9861,33616 9662,33642 8370,33710C8158,33721 7873,33737 7735,33745C7422,33763 6950,33777 6160,33790C5200,33807 4954,33808 4685,33801ZM14202,28130C14203,27654 14199,27437 14187,27220C14178,27063 14165,26850 14159,26745C14154,26641 14145,26134 14140,25620C14134,25020 14126,24583 14116,24400C14074,23640 13997,23097 13844,22500C13647,21729 13405,21115 13053,20492C12857,20145 12714,19937 12326,19435C11507,18373 11284,17926 10995,16770C10944,16568 10862,16295 10853,16303C10851,16306 10853,16348 10859,16397C10876,16548 10883,16866 10871,17030C10859,17203 10839,17329 10779,17606C10710,17930 10672,18076 10550,18480C10518,18587 10459,18783 10419,18915C10380,19047 10333,19202 10315,19260C10297,19318 10226,19552 10157,19780C10088,20008 10011,20263 9985,20345C9960,20428 9905,20619 9864,20770C9823,20921 9769,21115 9745,21200C9674,21452 9642,21580 9605,21773C9483,22408 9470,22771 9550,23311C9599,23641 9671,23924 9801,24292C10140,25254 10486,25826 11105,26446C11449,26791 11840,27109 12429,27525C12816,27797 13334,28184 13520,28340C13649,28447 13918,28701 13987,28779C14023,28820 14082,28899 14119,28954L14185,29053L14193,28904C14197,28822 14201,28474 14202,28130ZM14709,27797C14804,27637 14902,27497 15095,27240C15490,26715 15957,26042 16147,25725C16581,24999 16814,24461 16969,23820C17131,23156 17187,22301 17114,21625C17038,20918 16845,20290 16519,19686C16316,19310 16091,19020 15719,18655C15438,18380 15241,18225 14845,17965C14393,17668 14080,17495 13670,17315C13495,17238 12956,16983 12635,16825C12449,16733 11902,16411 11708,16278C11574,16186 11221,15927 10985,15746C10903,15683 10835,15632 10833,15634C10832,15635 10848,15676 10869,15726C10967,15955 11112,16390 11190,16695C11293,17094 11384,17385 11482,17630C11541,17778 11672,18052 11737,18165C11916,18472 12184,18852 12595,19380C12969,19860 13162,20149 13376,20550C13630,21025 13820,21497 14004,22110C14131,22534 14252,23138 14304,23610C14373,24230 14382,24451 14390,25735C14396,26638 14401,26945 14415,27165C14428,27380 14431,27549 14428,27897L14424,28350L14531,28132C14590,28013 14670,27862 14709,27797ZM20699,23818C20710,23783 20738,23685 20760,23600C20783,23515 20824,23366 20850,23269C20928,22989 21026,22566 21074,22310C21143,21936 21217,21523 21265,21240C21294,21067 21330,20869 21344,20800C21396,20557 21536,20045 21628,19765C21743,19417 21986,18809 22146,18473C22312,18124 22415,17891 22569,17519C22705,17188 22740,17087 22969,16360C23067,16048 23085,15987 23160,15705C23238,15412 23274,15309 23405,14990C23447,14888 23504,14747 23532,14675C23592,14520 23676,14329 23737,14206C23761,14158 23779,14116 23777,14114C23771,14107 23450,14540 23353,14685C23164,14969 22990,15280 22907,15485C22882,15546 22823,15708 22775,15845C22530,16548 22407,16825 22142,17265C22045,17426 21995,17499 21820,17735C21750,17829 21642,17979 21580,18070C21518,18161 21408,18318 21335,18420C21151,18680 21069,18802 20967,18975C20614,19573 20447,20131 20410,20835C20397,21083 20397,21553 20410,21755C20429,22038 20537,22927 20615,23435C20645,23632 20660,23759 20660,23828C20660,23856 20664,23880 20669,23880C20674,23880 20688,23852 20699,23818ZM21185,23123C21318,22925 21619,22503 21950,22050C22249,21642 22387,21432 22585,21085C22856,20610 23092,20047 23229,19545C23345,19122 23452,18498 23489,18030C23503,17854 23530,17131 23530,16926C23530,16587 23579,15945 23636,15535C23693,15125 23864,14439 23999,14082C24023,14020 24039,13966 24036,13963C24029,13956 23836,14350 23790,14465C23756,14552 23684,14747 23537,15160C23433,15451 23405,15545 23331,15850C23246,16198 23026,16932 22895,17304C22779,17635 22592,18082 22380,18540C22214,18898 21968,19515 21866,19827C21803,20024 21698,20388 21646,20595C21593,20808 21566,20938 21510,21260C21482,21422 21434,21674 21405,21820C21375,21966 21335,22171 21315,22275C21261,22556 21179,22875 21080,23183C21028,23347 21023,23368 21043,23336C21050,23326 21114,23230 21185,23123ZM26782,22729C27165,22461 27523,22198 27735,22029C27846,21940 27926,21858 27994,21763C28032,21710 28141,21489 28191,21362C28241,21238 28284,20979 28315,20630C28353,20196 28396,19939 28470,19709C28491,19641 28507,19584 28505,19582C28503,19579 28470,19604 28433,19637C28315,19741 28182,19843 27940,20015C27518,20317 27351,20451 27173,20631C26921,20888 26887,20940 26589,21541L26552,21617L26586,21746C26640,21951 26653,22065 26647,22280C26642,22472 26628,22570 26580,22768C26559,22853 26556,22880 26566,22876C26573,22873 26671,22807 26782,22729ZM28673,20940C29015,20333 29255,19978 29735,19370C30098,18910 30388,18577 30768,18185C31434,17497 31532,17390 31809,17045C32158,16610 32336,16350 32543,15969C32684,15709 32965,15149 33057,14945C33278,14455 33322,14360 33417,14170C33691,13622 33859,13373 34539,12510C35007,11916 35117,11778 35274,11590C35349,11500 35442,11381 35479,11325C35545,11228 35660,11031 35660,11015C35660,11011 35609,11056 35547,11116C35486,11176 35325,11314 35190,11422C35055,11530 34884,11669 34810,11730C34650,11861 34523,11951 34202,12158C33755,12446 33589,12540 33065,12800C32790,12936 32524,13072 32474,13102C32237,13244 32080,13395 31768,13780C31527,14079 31351,14233 30911,14536C30627,14730 30492,14858 30325,15085C30111,15378 29999,15628 29864,16125C29743,16566 29695,16758 29640,17010C29612,17139 29553,17405 29509,17600C29465,17795 29410,18034 29389,18130C29297,18534 29212,18780 28950,19390C28746,19866 28699,20035 28640,20515C28609,20765 28582,20941 28554,21064C28541,21124 28530,21178 28530,21184C28530,21190 28546,21166 28566,21130C28586,21094 28634,21009 28673,20940ZM26455,21127C26468,21050 26584,20724 26696,20452C26747,20329 26943,19943 27046,19765C27208,19483 27268,19375 27402,19115C27476,18972 27561,18812 27590,18760C27836,18322 27883,18232 28014,17933C28310,17259 28363,17106 28525,16460C28667,15894 28718,15451 28706,14875C28699,14529 28690,14370 28655,13970C28641,13819 28623,13598 28615,13480C28606,13362 28590,13173 28580,13060C28569,12947 28555,12676 28548,12456C28534,11983 28543,11723 28590,11260C28642,10751 28670,10583 28789,10075C28941,9428 29054,8835 29114,8370C29152,8079 29193,7892 29277,7620C29390,7258 29689,6582 29927,6147C29963,6082 29990,6027 29987,6024C29983,6020 29792,6218 29683,6340C29641,6387 29393,6693 29035,7140C28918,7286 28751,7488 28664,7590C28386,7914 28312,8011 28105,8325C27887,8656 27784,8857 27595,9320C27516,9512 27357,9889 27170,10320C27098,10488 27009,10697 26973,10785C26937,10873 26845,11096 26770,11280C26604,11684 26570,11775 26525,11930C26454,12180 26399,12536 26329,13195C26302,13447 26294,13956 26309,14423C26324,14889 26344,15056 26430,15430C26472,15611 26516,15881 26534,16064C26555,16275 26554,16450 26530,16770C26508,17061 26505,17325 26520,17465C26526,17515 26553,17684 26580,17841C26641,18187 26654,18339 26645,18565C26634,18868 26603,19101 26530,19440C26465,19743 26456,19831 26424,20429C26408,20731 26409,21105 26425,21157C26435,21189 26447,21177 26455,21127ZM29134,20742C29267,20643 29597,20425 29787,20311C29870,20261 30082,20147 30257,20057C30432,19967 30618,19869 30670,19840C31647,19292 32091,18997 32830,18406C33396,17954 33611,17761 34035,17329C34333,17025 34565,16763 34836,16424C35063,16140 35219,15909 35382,15613C35836,14788 35917,14191 35770,12755C35723,12293 35738,11906 35826,11312C35840,11216 35850,11136 35847,11134C35845,11132 35828,11158 35810,11192C35720,11363 35585,11559 35426,11750C35352,11839 35207,12026 34720,12665C33988,13623 33788,13949 33390,14830C33154,15352 32782,16059 32547,16430C32350,16740 31955,17245 31637,17594C31571,17666 31363,17883 31175,18075C30766,18495 30686,18579 30472,18820C30046,19298 29651,19790 29307,20272C29133,20515 28840,20956 28840,20974C28840,20978 28883,20944 28936,20899C28989,20855 29078,20784 29134,20742ZM26943,20471C27112,20280 27359,20077 27852,19722C28198,19474 28299,19393 28445,19246C28712,18978 28857,18744 28944,18435C28965,18364 28995,18258 29011,18200C29028,18142 29070,18005 29105,17895C29171,17691 29232,17451 29315,17075C29365,16849 29552,16102 29601,15930C29631,15827 29682,15675 29735,15535C29841,15251 30059,14906 30291,14654C30378,14560 30498,14373 30560,14235C30656,14021 30772,13625 30824,13335C30882,13014 30885,12977 30885,12615C30884,12260 30871,12073 30829,11792C30797,11581 30691,11174 30555,10745C30474,10489 30443,10378 30411,10230C30320,9820 30305,9476 30350,8820C30380,8374 30372,8082 30319,7675C30244,7090 30227,6870 30226,6403C30225,6151 30223,6084 30213,6092C30176,6122 29870,6756 29754,7042C29586,7456 29560,7522 29527,7630C29438,7917 29401,8091 29350,8471C29307,8792 29279,8955 29211,9285C29110,9772 29069,9961 28966,10430C28941,10543 28909,10725 28895,10835C28863,11092 28813,11693 28805,11925C28796,12176 28815,12730 28845,13075C28858,13235 28876,13460 28885,13575C28894,13691 28912,13913 28926,14070C29005,14971 28966,15687 28804,16340C28684,16825 28577,17177 28465,17450C28277,17912 28086,18307 27873,18680C27796,18815 27673,19035 27600,19170C27460,19428 27346,19630 27253,19783C27095,20043 26819,20580 26842,20580C26844,20580 26890,20531 26943,20471ZM19781,18306C19814,17651 19706,16543 19545,15890C19418,15374 19287,14979 19123,14626C18992,14340 18882,14140 18520,13520C18072,12753 17893,12408 17585,11720C17336,11163 17159,10598 17056,10034C17014,9807 16999,9664 16960,9120C16943,8892 16925,8660 16920,8605C16898,8395 16859,8110 16835,7975C16821,7898 16806,7820 16803,7802C16796,7760 16783,7753 16776,7787C16773,7803 16752,7914 16730,8035C16658,8422 16640,8510 16575,8785C16540,8934 16494,9127 16475,9215C16455,9303 16423,9440 16405,9520C16369,9676 16254,10251 16221,10440C16202,10548 16174,10759 16150,10965C16107,11339 16121,11848 16185,12280C16234,12610 16373,13160 16491,13490C16609,13818 16869,14337 17130,14765C17240,14945 17556,15419 17657,15555C17765,15700 18208,16262 18454,16565C18774,16958 19119,17431 19311,17738C19541,18108 19672,18352 19722,18508C19750,18594 19755,18601 19761,18576C19766,18560 19774,18439 19781,18306ZM20026,18010C20093,17749 20154,17470 20193,17245C20213,17135 20240,16979 20254,16899C20372,16225 20370,15566 20245,14480C20152,13669 20028,13085 19808,12410C19623,11843 19417,11353 19133,10800C18732,10022 18451,9590 17910,8925C17578,8517 17212,8006 17020,7682C16980,7615 16945,7562 16943,7564C16940,7566 16952,7619 16969,7682C17036,7932 17109,8390 17150,8820C17161,8938 17177,9091 17185,9160C17193,9229 17209,9380 17220,9495C17246,9764 17263,9881 17310,10115C17381,10467 17433,10657 17544,10971C17688,11381 17846,11746 18139,12345C18296,12665 18374,12810 18685,13355C19095,14073 19237,14345 19377,14680C19510,14997 19598,15275 19705,15715C19833,16242 19876,16532 19926,17215C19947,17504 19951,17626 19950,17915C19949,18108 19949,18270 19950,18275C19952,18288 19970,18227 20026,18010Z" style="fill-rule:nonzero;"/></g></g><g id="converted-45.svg1" serif:id="converted 45.svg"></g></g></svg>